G04 EAGLE Gerber RS-274X export*
G75*
%MOMM*%
%FSLAX34Y34*%
%LPD*%
%INSoldermask Bottom*%
%IPPOS*%
%AMOC8*
5,1,8,0,0,1.08239X$1,22.5*%
G01*
%ADD10C,3.429000*%
%ADD11C,0.228600*%
%ADD12C,2.006600*%
%ADD13C,1.727000*%
%ADD14C,0.762000*%
%ADD15C,0.228344*%
%ADD16C,1.127000*%
%ADD17C,1.270000*%
%ADD18C,1.627000*%

G36*
X585941Y1448955D02*
X585941Y1448955D01*
X586007Y1448957D01*
X586051Y1448975D01*
X586097Y1448983D01*
X586154Y1449017D01*
X586215Y1449042D01*
X586250Y1449073D01*
X586290Y1449098D01*
X586332Y1449149D01*
X586380Y1449193D01*
X586402Y1449235D01*
X586432Y1449272D01*
X586453Y1449334D01*
X586483Y1449393D01*
X586491Y1449447D01*
X586504Y1449484D01*
X586503Y1449524D01*
X586511Y1449578D01*
X586511Y1452118D01*
X586499Y1452183D01*
X586497Y1452249D01*
X586479Y1452292D01*
X586471Y1452339D01*
X586437Y1452396D01*
X586413Y1452456D01*
X586381Y1452491D01*
X586357Y1452532D01*
X586306Y1452574D01*
X586261Y1452622D01*
X586219Y1452644D01*
X586183Y1452673D01*
X586120Y1452694D01*
X586062Y1452725D01*
X586007Y1452733D01*
X585970Y1452745D01*
X585931Y1452744D01*
X585876Y1452752D01*
X582066Y1452752D01*
X582002Y1452741D01*
X581936Y1452739D01*
X581892Y1452721D01*
X581846Y1452713D01*
X581789Y1452679D01*
X581728Y1452654D01*
X581693Y1452623D01*
X581652Y1452598D01*
X581611Y1452547D01*
X581562Y1452503D01*
X581541Y1452461D01*
X581511Y1452424D01*
X581490Y1452362D01*
X581460Y1452303D01*
X581452Y1452249D01*
X581439Y1452212D01*
X581439Y1452209D01*
X581440Y1452172D01*
X581432Y1452118D01*
X581432Y1449578D01*
X581444Y1449513D01*
X581446Y1449447D01*
X581463Y1449404D01*
X581472Y1449357D01*
X581505Y1449300D01*
X581530Y1449240D01*
X581562Y1449205D01*
X581586Y1449164D01*
X581637Y1449123D01*
X581681Y1449074D01*
X581724Y1449052D01*
X581760Y1449023D01*
X581822Y1449002D01*
X581881Y1448971D01*
X581935Y1448963D01*
X581973Y1448951D01*
X582012Y1448952D01*
X582066Y1448944D01*
X585876Y1448944D01*
X585941Y1448955D01*
G37*
G36*
X276061Y1448955D02*
X276061Y1448955D01*
X276127Y1448957D01*
X276171Y1448975D01*
X276217Y1448983D01*
X276274Y1449017D01*
X276335Y1449042D01*
X276370Y1449073D01*
X276410Y1449098D01*
X276452Y1449149D01*
X276500Y1449193D01*
X276522Y1449235D01*
X276552Y1449272D01*
X276573Y1449334D01*
X276603Y1449393D01*
X276611Y1449447D01*
X276624Y1449484D01*
X276623Y1449524D01*
X276631Y1449578D01*
X276631Y1452118D01*
X276619Y1452183D01*
X276617Y1452249D01*
X276599Y1452292D01*
X276591Y1452339D01*
X276557Y1452396D01*
X276533Y1452456D01*
X276501Y1452491D01*
X276477Y1452532D01*
X276426Y1452574D01*
X276381Y1452622D01*
X276339Y1452644D01*
X276303Y1452673D01*
X276240Y1452694D01*
X276182Y1452725D01*
X276127Y1452733D01*
X276090Y1452745D01*
X276051Y1452744D01*
X275996Y1452752D01*
X272186Y1452752D01*
X272122Y1452741D01*
X272056Y1452739D01*
X272012Y1452721D01*
X271966Y1452713D01*
X271909Y1452679D01*
X271848Y1452654D01*
X271813Y1452623D01*
X271772Y1452598D01*
X271731Y1452547D01*
X271682Y1452503D01*
X271661Y1452461D01*
X271631Y1452424D01*
X271610Y1452362D01*
X271580Y1452303D01*
X271572Y1452249D01*
X271559Y1452212D01*
X271559Y1452209D01*
X271560Y1452172D01*
X271552Y1452118D01*
X271552Y1449578D01*
X271564Y1449513D01*
X271566Y1449447D01*
X271583Y1449404D01*
X271592Y1449357D01*
X271625Y1449300D01*
X271650Y1449240D01*
X271682Y1449205D01*
X271706Y1449164D01*
X271757Y1449123D01*
X271801Y1449074D01*
X271844Y1449052D01*
X271880Y1449023D01*
X271942Y1449002D01*
X272001Y1448971D01*
X272055Y1448963D01*
X272093Y1448951D01*
X272132Y1448952D01*
X272186Y1448944D01*
X275996Y1448944D01*
X276061Y1448955D01*
G37*
G36*
X1205701Y1448955D02*
X1205701Y1448955D01*
X1205767Y1448957D01*
X1205811Y1448975D01*
X1205857Y1448983D01*
X1205914Y1449017D01*
X1205975Y1449042D01*
X1206010Y1449073D01*
X1206050Y1449098D01*
X1206092Y1449149D01*
X1206140Y1449193D01*
X1206162Y1449235D01*
X1206192Y1449272D01*
X1206213Y1449334D01*
X1206243Y1449393D01*
X1206251Y1449447D01*
X1206264Y1449484D01*
X1206263Y1449524D01*
X1206271Y1449578D01*
X1206271Y1452118D01*
X1206259Y1452183D01*
X1206257Y1452249D01*
X1206239Y1452292D01*
X1206231Y1452339D01*
X1206197Y1452396D01*
X1206173Y1452456D01*
X1206141Y1452491D01*
X1206117Y1452532D01*
X1206066Y1452574D01*
X1206021Y1452622D01*
X1205979Y1452644D01*
X1205943Y1452673D01*
X1205880Y1452694D01*
X1205822Y1452725D01*
X1205767Y1452733D01*
X1205730Y1452745D01*
X1205691Y1452744D01*
X1205636Y1452752D01*
X1201826Y1452752D01*
X1201762Y1452741D01*
X1201696Y1452739D01*
X1201652Y1452721D01*
X1201606Y1452713D01*
X1201549Y1452679D01*
X1201488Y1452654D01*
X1201453Y1452623D01*
X1201412Y1452598D01*
X1201371Y1452547D01*
X1201322Y1452503D01*
X1201301Y1452461D01*
X1201271Y1452424D01*
X1201250Y1452362D01*
X1201220Y1452303D01*
X1201212Y1452249D01*
X1201199Y1452212D01*
X1201199Y1452209D01*
X1201200Y1452172D01*
X1201192Y1452118D01*
X1201192Y1449578D01*
X1201204Y1449513D01*
X1201206Y1449447D01*
X1201223Y1449404D01*
X1201232Y1449357D01*
X1201265Y1449300D01*
X1201290Y1449240D01*
X1201322Y1449205D01*
X1201346Y1449164D01*
X1201397Y1449123D01*
X1201441Y1449074D01*
X1201484Y1449052D01*
X1201520Y1449023D01*
X1201582Y1449002D01*
X1201641Y1448971D01*
X1201695Y1448963D01*
X1201733Y1448951D01*
X1201772Y1448952D01*
X1201826Y1448944D01*
X1205636Y1448944D01*
X1205701Y1448955D01*
G37*
G36*
X895821Y1448955D02*
X895821Y1448955D01*
X895887Y1448957D01*
X895931Y1448975D01*
X895977Y1448983D01*
X896034Y1449017D01*
X896095Y1449042D01*
X896130Y1449073D01*
X896170Y1449098D01*
X896212Y1449149D01*
X896260Y1449193D01*
X896282Y1449235D01*
X896312Y1449272D01*
X896333Y1449334D01*
X896363Y1449393D01*
X896371Y1449447D01*
X896384Y1449484D01*
X896383Y1449524D01*
X896391Y1449578D01*
X896391Y1452118D01*
X896379Y1452183D01*
X896377Y1452249D01*
X896359Y1452292D01*
X896351Y1452339D01*
X896317Y1452396D01*
X896293Y1452456D01*
X896261Y1452491D01*
X896237Y1452532D01*
X896186Y1452574D01*
X896141Y1452622D01*
X896099Y1452644D01*
X896063Y1452673D01*
X896000Y1452694D01*
X895942Y1452725D01*
X895887Y1452733D01*
X895850Y1452745D01*
X895811Y1452744D01*
X895756Y1452752D01*
X891946Y1452752D01*
X891882Y1452741D01*
X891816Y1452739D01*
X891772Y1452721D01*
X891726Y1452713D01*
X891669Y1452679D01*
X891608Y1452654D01*
X891573Y1452623D01*
X891532Y1452598D01*
X891491Y1452547D01*
X891442Y1452503D01*
X891421Y1452461D01*
X891391Y1452424D01*
X891370Y1452362D01*
X891340Y1452303D01*
X891332Y1452249D01*
X891319Y1452212D01*
X891319Y1452209D01*
X891320Y1452172D01*
X891312Y1452118D01*
X891312Y1449578D01*
X891324Y1449513D01*
X891326Y1449447D01*
X891343Y1449404D01*
X891352Y1449357D01*
X891385Y1449300D01*
X891410Y1449240D01*
X891442Y1449205D01*
X891466Y1449164D01*
X891517Y1449123D01*
X891561Y1449074D01*
X891604Y1449052D01*
X891640Y1449023D01*
X891702Y1449002D01*
X891761Y1448971D01*
X891815Y1448963D01*
X891853Y1448951D01*
X891892Y1448952D01*
X891946Y1448944D01*
X895756Y1448944D01*
X895821Y1448955D01*
G37*
G36*
X1205701Y1189875D02*
X1205701Y1189875D01*
X1205767Y1189877D01*
X1205811Y1189895D01*
X1205857Y1189903D01*
X1205914Y1189937D01*
X1205975Y1189962D01*
X1206010Y1189993D01*
X1206050Y1190018D01*
X1206092Y1190069D01*
X1206140Y1190113D01*
X1206162Y1190155D01*
X1206192Y1190192D01*
X1206213Y1190254D01*
X1206243Y1190313D01*
X1206251Y1190367D01*
X1206264Y1190404D01*
X1206263Y1190444D01*
X1206271Y1190498D01*
X1206271Y1193038D01*
X1206259Y1193103D01*
X1206257Y1193169D01*
X1206239Y1193212D01*
X1206231Y1193259D01*
X1206197Y1193316D01*
X1206173Y1193376D01*
X1206141Y1193411D01*
X1206117Y1193452D01*
X1206066Y1193494D01*
X1206021Y1193542D01*
X1205979Y1193564D01*
X1205943Y1193593D01*
X1205880Y1193614D01*
X1205822Y1193645D01*
X1205767Y1193653D01*
X1205730Y1193665D01*
X1205691Y1193664D01*
X1205636Y1193672D01*
X1201826Y1193672D01*
X1201762Y1193661D01*
X1201696Y1193659D01*
X1201652Y1193641D01*
X1201606Y1193633D01*
X1201549Y1193599D01*
X1201488Y1193574D01*
X1201453Y1193543D01*
X1201412Y1193518D01*
X1201371Y1193467D01*
X1201322Y1193423D01*
X1201301Y1193381D01*
X1201271Y1193344D01*
X1201250Y1193282D01*
X1201220Y1193223D01*
X1201212Y1193169D01*
X1201199Y1193132D01*
X1201199Y1193129D01*
X1201200Y1193092D01*
X1201192Y1193038D01*
X1201192Y1190498D01*
X1201204Y1190433D01*
X1201206Y1190367D01*
X1201223Y1190324D01*
X1201232Y1190277D01*
X1201265Y1190220D01*
X1201290Y1190160D01*
X1201322Y1190125D01*
X1201346Y1190084D01*
X1201397Y1190043D01*
X1201441Y1189994D01*
X1201484Y1189972D01*
X1201520Y1189943D01*
X1201582Y1189922D01*
X1201641Y1189891D01*
X1201695Y1189883D01*
X1201733Y1189871D01*
X1201772Y1189872D01*
X1201826Y1189864D01*
X1205636Y1189864D01*
X1205701Y1189875D01*
G37*
G36*
X895821Y1189875D02*
X895821Y1189875D01*
X895887Y1189877D01*
X895931Y1189895D01*
X895977Y1189903D01*
X896034Y1189937D01*
X896095Y1189962D01*
X896130Y1189993D01*
X896170Y1190018D01*
X896212Y1190069D01*
X896260Y1190113D01*
X896282Y1190155D01*
X896312Y1190192D01*
X896333Y1190254D01*
X896363Y1190313D01*
X896371Y1190367D01*
X896384Y1190404D01*
X896383Y1190444D01*
X896391Y1190498D01*
X896391Y1193038D01*
X896379Y1193103D01*
X896377Y1193169D01*
X896359Y1193212D01*
X896351Y1193259D01*
X896317Y1193316D01*
X896293Y1193376D01*
X896261Y1193411D01*
X896237Y1193452D01*
X896186Y1193494D01*
X896141Y1193542D01*
X896099Y1193564D01*
X896063Y1193593D01*
X896000Y1193614D01*
X895942Y1193645D01*
X895887Y1193653D01*
X895850Y1193665D01*
X895811Y1193664D01*
X895756Y1193672D01*
X891946Y1193672D01*
X891882Y1193661D01*
X891816Y1193659D01*
X891772Y1193641D01*
X891726Y1193633D01*
X891669Y1193599D01*
X891608Y1193574D01*
X891573Y1193543D01*
X891532Y1193518D01*
X891491Y1193467D01*
X891442Y1193423D01*
X891421Y1193381D01*
X891391Y1193344D01*
X891370Y1193282D01*
X891340Y1193223D01*
X891332Y1193169D01*
X891319Y1193132D01*
X891319Y1193129D01*
X891320Y1193092D01*
X891312Y1193038D01*
X891312Y1190498D01*
X891324Y1190433D01*
X891326Y1190367D01*
X891343Y1190324D01*
X891352Y1190277D01*
X891385Y1190220D01*
X891410Y1190160D01*
X891442Y1190125D01*
X891466Y1190084D01*
X891517Y1190043D01*
X891561Y1189994D01*
X891604Y1189972D01*
X891640Y1189943D01*
X891702Y1189922D01*
X891761Y1189891D01*
X891815Y1189883D01*
X891853Y1189871D01*
X891892Y1189872D01*
X891946Y1189864D01*
X895756Y1189864D01*
X895821Y1189875D01*
G37*
G36*
X585941Y1189875D02*
X585941Y1189875D01*
X586007Y1189877D01*
X586051Y1189895D01*
X586097Y1189903D01*
X586154Y1189937D01*
X586215Y1189962D01*
X586250Y1189993D01*
X586290Y1190018D01*
X586332Y1190069D01*
X586380Y1190113D01*
X586402Y1190155D01*
X586432Y1190192D01*
X586453Y1190254D01*
X586483Y1190313D01*
X586491Y1190367D01*
X586504Y1190404D01*
X586503Y1190444D01*
X586511Y1190498D01*
X586511Y1193038D01*
X586499Y1193103D01*
X586497Y1193169D01*
X586479Y1193212D01*
X586471Y1193259D01*
X586437Y1193316D01*
X586413Y1193376D01*
X586381Y1193411D01*
X586357Y1193452D01*
X586306Y1193494D01*
X586261Y1193542D01*
X586219Y1193564D01*
X586183Y1193593D01*
X586120Y1193614D01*
X586062Y1193645D01*
X586007Y1193653D01*
X585970Y1193665D01*
X585931Y1193664D01*
X585876Y1193672D01*
X582066Y1193672D01*
X582002Y1193661D01*
X581936Y1193659D01*
X581892Y1193641D01*
X581846Y1193633D01*
X581789Y1193599D01*
X581728Y1193574D01*
X581693Y1193543D01*
X581652Y1193518D01*
X581611Y1193467D01*
X581562Y1193423D01*
X581541Y1193381D01*
X581511Y1193344D01*
X581490Y1193282D01*
X581460Y1193223D01*
X581452Y1193169D01*
X581439Y1193132D01*
X581439Y1193129D01*
X581440Y1193092D01*
X581432Y1193038D01*
X581432Y1190498D01*
X581444Y1190433D01*
X581446Y1190367D01*
X581463Y1190324D01*
X581472Y1190277D01*
X581505Y1190220D01*
X581530Y1190160D01*
X581562Y1190125D01*
X581586Y1190084D01*
X581637Y1190043D01*
X581681Y1189994D01*
X581724Y1189972D01*
X581760Y1189943D01*
X581822Y1189922D01*
X581881Y1189891D01*
X581935Y1189883D01*
X581973Y1189871D01*
X582012Y1189872D01*
X582066Y1189864D01*
X585876Y1189864D01*
X585941Y1189875D01*
G37*
G36*
X276061Y1189875D02*
X276061Y1189875D01*
X276127Y1189877D01*
X276171Y1189895D01*
X276217Y1189903D01*
X276274Y1189937D01*
X276335Y1189962D01*
X276370Y1189993D01*
X276410Y1190018D01*
X276452Y1190069D01*
X276500Y1190113D01*
X276522Y1190155D01*
X276552Y1190192D01*
X276573Y1190254D01*
X276603Y1190313D01*
X276611Y1190367D01*
X276624Y1190404D01*
X276623Y1190444D01*
X276631Y1190498D01*
X276631Y1193038D01*
X276619Y1193103D01*
X276617Y1193169D01*
X276599Y1193212D01*
X276591Y1193259D01*
X276557Y1193316D01*
X276533Y1193376D01*
X276501Y1193411D01*
X276477Y1193452D01*
X276426Y1193494D01*
X276381Y1193542D01*
X276339Y1193564D01*
X276303Y1193593D01*
X276240Y1193614D01*
X276182Y1193645D01*
X276127Y1193653D01*
X276090Y1193665D01*
X276051Y1193664D01*
X275996Y1193672D01*
X272186Y1193672D01*
X272122Y1193661D01*
X272056Y1193659D01*
X272012Y1193641D01*
X271966Y1193633D01*
X271909Y1193599D01*
X271848Y1193574D01*
X271813Y1193543D01*
X271772Y1193518D01*
X271731Y1193467D01*
X271682Y1193423D01*
X271661Y1193381D01*
X271631Y1193344D01*
X271610Y1193282D01*
X271580Y1193223D01*
X271572Y1193169D01*
X271559Y1193132D01*
X271559Y1193129D01*
X271560Y1193092D01*
X271552Y1193038D01*
X271552Y1190498D01*
X271564Y1190433D01*
X271566Y1190367D01*
X271583Y1190324D01*
X271592Y1190277D01*
X271625Y1190220D01*
X271650Y1190160D01*
X271682Y1190125D01*
X271706Y1190084D01*
X271757Y1190043D01*
X271801Y1189994D01*
X271844Y1189972D01*
X271880Y1189943D01*
X271942Y1189922D01*
X272001Y1189891D01*
X272055Y1189883D01*
X272093Y1189871D01*
X272132Y1189872D01*
X272186Y1189864D01*
X275996Y1189864D01*
X276061Y1189875D01*
G37*
G36*
X1205701Y930795D02*
X1205701Y930795D01*
X1205767Y930797D01*
X1205811Y930815D01*
X1205857Y930823D01*
X1205914Y930857D01*
X1205975Y930882D01*
X1206010Y930913D01*
X1206050Y930938D01*
X1206092Y930989D01*
X1206140Y931033D01*
X1206162Y931075D01*
X1206192Y931112D01*
X1206213Y931174D01*
X1206243Y931233D01*
X1206251Y931287D01*
X1206264Y931324D01*
X1206263Y931364D01*
X1206271Y931418D01*
X1206271Y933958D01*
X1206259Y934023D01*
X1206257Y934089D01*
X1206239Y934132D01*
X1206231Y934179D01*
X1206197Y934236D01*
X1206173Y934296D01*
X1206141Y934331D01*
X1206117Y934372D01*
X1206066Y934414D01*
X1206021Y934462D01*
X1205979Y934484D01*
X1205943Y934513D01*
X1205880Y934534D01*
X1205822Y934565D01*
X1205767Y934573D01*
X1205730Y934585D01*
X1205691Y934584D01*
X1205636Y934592D01*
X1201826Y934592D01*
X1201762Y934581D01*
X1201696Y934579D01*
X1201652Y934561D01*
X1201606Y934553D01*
X1201549Y934519D01*
X1201488Y934494D01*
X1201453Y934463D01*
X1201412Y934438D01*
X1201371Y934387D01*
X1201322Y934343D01*
X1201301Y934301D01*
X1201271Y934264D01*
X1201250Y934202D01*
X1201220Y934143D01*
X1201212Y934089D01*
X1201199Y934052D01*
X1201199Y934049D01*
X1201200Y934012D01*
X1201192Y933958D01*
X1201192Y931418D01*
X1201204Y931353D01*
X1201206Y931287D01*
X1201223Y931244D01*
X1201232Y931197D01*
X1201265Y931140D01*
X1201290Y931080D01*
X1201322Y931045D01*
X1201346Y931004D01*
X1201397Y930963D01*
X1201441Y930914D01*
X1201484Y930892D01*
X1201520Y930863D01*
X1201582Y930842D01*
X1201641Y930811D01*
X1201695Y930803D01*
X1201733Y930791D01*
X1201772Y930792D01*
X1201826Y930784D01*
X1205636Y930784D01*
X1205701Y930795D01*
G37*
G36*
X895821Y930795D02*
X895821Y930795D01*
X895887Y930797D01*
X895931Y930815D01*
X895977Y930823D01*
X896034Y930857D01*
X896095Y930882D01*
X896130Y930913D01*
X896170Y930938D01*
X896212Y930989D01*
X896260Y931033D01*
X896282Y931075D01*
X896312Y931112D01*
X896333Y931174D01*
X896363Y931233D01*
X896371Y931287D01*
X896384Y931324D01*
X896383Y931364D01*
X896391Y931418D01*
X896391Y933958D01*
X896379Y934023D01*
X896377Y934089D01*
X896359Y934132D01*
X896351Y934179D01*
X896317Y934236D01*
X896293Y934296D01*
X896261Y934331D01*
X896237Y934372D01*
X896186Y934414D01*
X896141Y934462D01*
X896099Y934484D01*
X896063Y934513D01*
X896000Y934534D01*
X895942Y934565D01*
X895887Y934573D01*
X895850Y934585D01*
X895811Y934584D01*
X895756Y934592D01*
X891946Y934592D01*
X891882Y934581D01*
X891816Y934579D01*
X891772Y934561D01*
X891726Y934553D01*
X891669Y934519D01*
X891608Y934494D01*
X891573Y934463D01*
X891532Y934438D01*
X891491Y934387D01*
X891442Y934343D01*
X891421Y934301D01*
X891391Y934264D01*
X891370Y934202D01*
X891340Y934143D01*
X891332Y934089D01*
X891319Y934052D01*
X891319Y934049D01*
X891320Y934012D01*
X891312Y933958D01*
X891312Y931418D01*
X891324Y931353D01*
X891326Y931287D01*
X891343Y931244D01*
X891352Y931197D01*
X891385Y931140D01*
X891410Y931080D01*
X891442Y931045D01*
X891466Y931004D01*
X891517Y930963D01*
X891561Y930914D01*
X891604Y930892D01*
X891640Y930863D01*
X891702Y930842D01*
X891761Y930811D01*
X891815Y930803D01*
X891853Y930791D01*
X891892Y930792D01*
X891946Y930784D01*
X895756Y930784D01*
X895821Y930795D01*
G37*
G36*
X585941Y930795D02*
X585941Y930795D01*
X586007Y930797D01*
X586051Y930815D01*
X586097Y930823D01*
X586154Y930857D01*
X586215Y930882D01*
X586250Y930913D01*
X586290Y930938D01*
X586332Y930989D01*
X586380Y931033D01*
X586402Y931075D01*
X586432Y931112D01*
X586453Y931174D01*
X586483Y931233D01*
X586491Y931287D01*
X586504Y931324D01*
X586503Y931364D01*
X586511Y931418D01*
X586511Y933958D01*
X586499Y934023D01*
X586497Y934089D01*
X586479Y934132D01*
X586471Y934179D01*
X586437Y934236D01*
X586413Y934296D01*
X586381Y934331D01*
X586357Y934372D01*
X586306Y934414D01*
X586261Y934462D01*
X586219Y934484D01*
X586183Y934513D01*
X586120Y934534D01*
X586062Y934565D01*
X586007Y934573D01*
X585970Y934585D01*
X585931Y934584D01*
X585876Y934592D01*
X582066Y934592D01*
X582002Y934581D01*
X581936Y934579D01*
X581892Y934561D01*
X581846Y934553D01*
X581789Y934519D01*
X581728Y934494D01*
X581693Y934463D01*
X581652Y934438D01*
X581611Y934387D01*
X581562Y934343D01*
X581541Y934301D01*
X581511Y934264D01*
X581490Y934202D01*
X581460Y934143D01*
X581452Y934089D01*
X581439Y934052D01*
X581439Y934049D01*
X581440Y934012D01*
X581432Y933958D01*
X581432Y931418D01*
X581444Y931353D01*
X581446Y931287D01*
X581463Y931244D01*
X581472Y931197D01*
X581505Y931140D01*
X581530Y931080D01*
X581562Y931045D01*
X581586Y931004D01*
X581637Y930963D01*
X581681Y930914D01*
X581724Y930892D01*
X581760Y930863D01*
X581822Y930842D01*
X581881Y930811D01*
X581935Y930803D01*
X581973Y930791D01*
X582012Y930792D01*
X582066Y930784D01*
X585876Y930784D01*
X585941Y930795D01*
G37*
G36*
X276061Y930795D02*
X276061Y930795D01*
X276127Y930797D01*
X276171Y930815D01*
X276217Y930823D01*
X276274Y930857D01*
X276335Y930882D01*
X276370Y930913D01*
X276410Y930938D01*
X276452Y930989D01*
X276500Y931033D01*
X276522Y931075D01*
X276552Y931112D01*
X276573Y931174D01*
X276603Y931233D01*
X276611Y931287D01*
X276624Y931324D01*
X276623Y931364D01*
X276631Y931418D01*
X276631Y933958D01*
X276619Y934023D01*
X276617Y934089D01*
X276599Y934132D01*
X276591Y934179D01*
X276557Y934236D01*
X276533Y934296D01*
X276501Y934331D01*
X276477Y934372D01*
X276426Y934414D01*
X276381Y934462D01*
X276339Y934484D01*
X276303Y934513D01*
X276240Y934534D01*
X276182Y934565D01*
X276127Y934573D01*
X276090Y934585D01*
X276051Y934584D01*
X275996Y934592D01*
X272186Y934592D01*
X272122Y934581D01*
X272056Y934579D01*
X272012Y934561D01*
X271966Y934553D01*
X271909Y934519D01*
X271848Y934494D01*
X271813Y934463D01*
X271772Y934438D01*
X271731Y934387D01*
X271682Y934343D01*
X271661Y934301D01*
X271631Y934264D01*
X271610Y934202D01*
X271580Y934143D01*
X271572Y934089D01*
X271559Y934052D01*
X271559Y934049D01*
X271560Y934012D01*
X271552Y933958D01*
X271552Y931418D01*
X271564Y931353D01*
X271566Y931287D01*
X271583Y931244D01*
X271592Y931197D01*
X271625Y931140D01*
X271650Y931080D01*
X271682Y931045D01*
X271706Y931004D01*
X271757Y930963D01*
X271801Y930914D01*
X271844Y930892D01*
X271880Y930863D01*
X271942Y930842D01*
X272001Y930811D01*
X272055Y930803D01*
X272093Y930791D01*
X272132Y930792D01*
X272186Y930784D01*
X275996Y930784D01*
X276061Y930795D01*
G37*
G36*
X1205701Y671715D02*
X1205701Y671715D01*
X1205767Y671717D01*
X1205811Y671735D01*
X1205857Y671743D01*
X1205914Y671777D01*
X1205975Y671802D01*
X1206010Y671833D01*
X1206050Y671858D01*
X1206092Y671909D01*
X1206140Y671953D01*
X1206162Y671995D01*
X1206192Y672032D01*
X1206213Y672094D01*
X1206243Y672153D01*
X1206251Y672207D01*
X1206264Y672244D01*
X1206263Y672284D01*
X1206271Y672338D01*
X1206271Y674878D01*
X1206259Y674943D01*
X1206257Y675009D01*
X1206239Y675052D01*
X1206231Y675099D01*
X1206197Y675156D01*
X1206173Y675216D01*
X1206141Y675251D01*
X1206117Y675292D01*
X1206066Y675334D01*
X1206021Y675382D01*
X1205979Y675404D01*
X1205943Y675433D01*
X1205880Y675454D01*
X1205822Y675485D01*
X1205767Y675493D01*
X1205730Y675505D01*
X1205691Y675504D01*
X1205636Y675512D01*
X1201826Y675512D01*
X1201762Y675501D01*
X1201696Y675499D01*
X1201652Y675481D01*
X1201606Y675473D01*
X1201549Y675439D01*
X1201488Y675414D01*
X1201453Y675383D01*
X1201412Y675358D01*
X1201371Y675307D01*
X1201322Y675263D01*
X1201301Y675221D01*
X1201271Y675184D01*
X1201250Y675122D01*
X1201220Y675063D01*
X1201212Y675009D01*
X1201199Y674972D01*
X1201199Y674969D01*
X1201200Y674932D01*
X1201192Y674878D01*
X1201192Y672338D01*
X1201204Y672273D01*
X1201206Y672207D01*
X1201223Y672164D01*
X1201232Y672117D01*
X1201265Y672060D01*
X1201290Y672000D01*
X1201322Y671965D01*
X1201346Y671924D01*
X1201397Y671883D01*
X1201441Y671834D01*
X1201484Y671812D01*
X1201520Y671783D01*
X1201582Y671762D01*
X1201641Y671731D01*
X1201695Y671723D01*
X1201733Y671711D01*
X1201772Y671712D01*
X1201826Y671704D01*
X1205636Y671704D01*
X1205701Y671715D01*
G37*
G36*
X895821Y671715D02*
X895821Y671715D01*
X895887Y671717D01*
X895931Y671735D01*
X895977Y671743D01*
X896034Y671777D01*
X896095Y671802D01*
X896130Y671833D01*
X896170Y671858D01*
X896212Y671909D01*
X896260Y671953D01*
X896282Y671995D01*
X896312Y672032D01*
X896333Y672094D01*
X896363Y672153D01*
X896371Y672207D01*
X896384Y672244D01*
X896383Y672284D01*
X896391Y672338D01*
X896391Y674878D01*
X896379Y674943D01*
X896377Y675009D01*
X896359Y675052D01*
X896351Y675099D01*
X896317Y675156D01*
X896293Y675216D01*
X896261Y675251D01*
X896237Y675292D01*
X896186Y675334D01*
X896141Y675382D01*
X896099Y675404D01*
X896063Y675433D01*
X896000Y675454D01*
X895942Y675485D01*
X895887Y675493D01*
X895850Y675505D01*
X895811Y675504D01*
X895756Y675512D01*
X891946Y675512D01*
X891882Y675501D01*
X891816Y675499D01*
X891772Y675481D01*
X891726Y675473D01*
X891669Y675439D01*
X891608Y675414D01*
X891573Y675383D01*
X891532Y675358D01*
X891491Y675307D01*
X891442Y675263D01*
X891421Y675221D01*
X891391Y675184D01*
X891370Y675122D01*
X891340Y675063D01*
X891332Y675009D01*
X891319Y674972D01*
X891319Y674969D01*
X891320Y674932D01*
X891312Y674878D01*
X891312Y672338D01*
X891324Y672273D01*
X891326Y672207D01*
X891343Y672164D01*
X891352Y672117D01*
X891385Y672060D01*
X891410Y672000D01*
X891442Y671965D01*
X891466Y671924D01*
X891517Y671883D01*
X891561Y671834D01*
X891604Y671812D01*
X891640Y671783D01*
X891702Y671762D01*
X891761Y671731D01*
X891815Y671723D01*
X891853Y671711D01*
X891892Y671712D01*
X891946Y671704D01*
X895756Y671704D01*
X895821Y671715D01*
G37*
G36*
X585941Y671715D02*
X585941Y671715D01*
X586007Y671717D01*
X586051Y671735D01*
X586097Y671743D01*
X586154Y671777D01*
X586215Y671802D01*
X586250Y671833D01*
X586290Y671858D01*
X586332Y671909D01*
X586380Y671953D01*
X586402Y671995D01*
X586432Y672032D01*
X586453Y672094D01*
X586483Y672153D01*
X586491Y672207D01*
X586504Y672244D01*
X586503Y672284D01*
X586511Y672338D01*
X586511Y674878D01*
X586499Y674943D01*
X586497Y675009D01*
X586479Y675052D01*
X586471Y675099D01*
X586437Y675156D01*
X586413Y675216D01*
X586381Y675251D01*
X586357Y675292D01*
X586306Y675334D01*
X586261Y675382D01*
X586219Y675404D01*
X586183Y675433D01*
X586120Y675454D01*
X586062Y675485D01*
X586007Y675493D01*
X585970Y675505D01*
X585931Y675504D01*
X585876Y675512D01*
X582066Y675512D01*
X582002Y675501D01*
X581936Y675499D01*
X581892Y675481D01*
X581846Y675473D01*
X581789Y675439D01*
X581728Y675414D01*
X581693Y675383D01*
X581652Y675358D01*
X581611Y675307D01*
X581562Y675263D01*
X581541Y675221D01*
X581511Y675184D01*
X581490Y675122D01*
X581460Y675063D01*
X581452Y675009D01*
X581439Y674972D01*
X581439Y674969D01*
X581440Y674932D01*
X581432Y674878D01*
X581432Y672338D01*
X581444Y672273D01*
X581446Y672207D01*
X581463Y672164D01*
X581472Y672117D01*
X581505Y672060D01*
X581530Y672000D01*
X581562Y671965D01*
X581586Y671924D01*
X581637Y671883D01*
X581681Y671834D01*
X581724Y671812D01*
X581760Y671783D01*
X581822Y671762D01*
X581881Y671731D01*
X581935Y671723D01*
X581973Y671711D01*
X582012Y671712D01*
X582066Y671704D01*
X585876Y671704D01*
X585941Y671715D01*
G37*
G36*
X276061Y671715D02*
X276061Y671715D01*
X276127Y671717D01*
X276171Y671735D01*
X276217Y671743D01*
X276274Y671777D01*
X276335Y671802D01*
X276370Y671833D01*
X276410Y671858D01*
X276452Y671909D01*
X276500Y671953D01*
X276522Y671995D01*
X276552Y672032D01*
X276573Y672094D01*
X276603Y672153D01*
X276611Y672207D01*
X276624Y672244D01*
X276623Y672284D01*
X276631Y672338D01*
X276631Y674878D01*
X276619Y674943D01*
X276617Y675009D01*
X276599Y675052D01*
X276591Y675099D01*
X276557Y675156D01*
X276533Y675216D01*
X276501Y675251D01*
X276477Y675292D01*
X276426Y675334D01*
X276381Y675382D01*
X276339Y675404D01*
X276303Y675433D01*
X276240Y675454D01*
X276182Y675485D01*
X276127Y675493D01*
X276090Y675505D01*
X276051Y675504D01*
X275996Y675512D01*
X272186Y675512D01*
X272122Y675501D01*
X272056Y675499D01*
X272012Y675481D01*
X271966Y675473D01*
X271909Y675439D01*
X271848Y675414D01*
X271813Y675383D01*
X271772Y675358D01*
X271731Y675307D01*
X271682Y675263D01*
X271661Y675221D01*
X271631Y675184D01*
X271610Y675122D01*
X271580Y675063D01*
X271572Y675009D01*
X271559Y674972D01*
X271559Y674969D01*
X271560Y674932D01*
X271552Y674878D01*
X271552Y672338D01*
X271564Y672273D01*
X271566Y672207D01*
X271583Y672164D01*
X271592Y672117D01*
X271625Y672060D01*
X271650Y672000D01*
X271682Y671965D01*
X271706Y671924D01*
X271757Y671883D01*
X271801Y671834D01*
X271844Y671812D01*
X271880Y671783D01*
X271942Y671762D01*
X272001Y671731D01*
X272055Y671723D01*
X272093Y671711D01*
X272132Y671712D01*
X272186Y671704D01*
X275996Y671704D01*
X276061Y671715D01*
G37*
G36*
X585941Y412635D02*
X585941Y412635D01*
X586007Y412637D01*
X586051Y412655D01*
X586097Y412663D01*
X586154Y412697D01*
X586215Y412722D01*
X586250Y412753D01*
X586290Y412778D01*
X586332Y412829D01*
X586380Y412873D01*
X586402Y412915D01*
X586432Y412952D01*
X586453Y413014D01*
X586483Y413073D01*
X586491Y413127D01*
X586504Y413164D01*
X586503Y413204D01*
X586511Y413258D01*
X586511Y415798D01*
X586499Y415863D01*
X586497Y415929D01*
X586479Y415972D01*
X586471Y416019D01*
X586437Y416076D01*
X586413Y416136D01*
X586381Y416171D01*
X586357Y416212D01*
X586306Y416254D01*
X586261Y416302D01*
X586219Y416324D01*
X586183Y416353D01*
X586120Y416374D01*
X586062Y416405D01*
X586007Y416413D01*
X585970Y416425D01*
X585931Y416424D01*
X585876Y416432D01*
X582066Y416432D01*
X582002Y416421D01*
X581936Y416419D01*
X581892Y416401D01*
X581846Y416393D01*
X581789Y416359D01*
X581728Y416334D01*
X581693Y416303D01*
X581652Y416278D01*
X581611Y416227D01*
X581562Y416183D01*
X581541Y416141D01*
X581511Y416104D01*
X581490Y416042D01*
X581460Y415983D01*
X581452Y415929D01*
X581439Y415892D01*
X581439Y415889D01*
X581440Y415852D01*
X581432Y415798D01*
X581432Y413258D01*
X581444Y413193D01*
X581446Y413127D01*
X581463Y413084D01*
X581472Y413037D01*
X581505Y412980D01*
X581530Y412920D01*
X581562Y412885D01*
X581586Y412844D01*
X581637Y412803D01*
X581681Y412754D01*
X581724Y412732D01*
X581760Y412703D01*
X581822Y412682D01*
X581881Y412651D01*
X581935Y412643D01*
X581973Y412631D01*
X582012Y412632D01*
X582066Y412624D01*
X585876Y412624D01*
X585941Y412635D01*
G37*
G36*
X276061Y412635D02*
X276061Y412635D01*
X276127Y412637D01*
X276171Y412655D01*
X276217Y412663D01*
X276274Y412697D01*
X276335Y412722D01*
X276370Y412753D01*
X276410Y412778D01*
X276452Y412829D01*
X276500Y412873D01*
X276522Y412915D01*
X276552Y412952D01*
X276573Y413014D01*
X276603Y413073D01*
X276611Y413127D01*
X276624Y413164D01*
X276623Y413204D01*
X276631Y413258D01*
X276631Y415798D01*
X276619Y415863D01*
X276617Y415929D01*
X276599Y415972D01*
X276591Y416019D01*
X276557Y416076D01*
X276533Y416136D01*
X276501Y416171D01*
X276477Y416212D01*
X276426Y416254D01*
X276381Y416302D01*
X276339Y416324D01*
X276303Y416353D01*
X276240Y416374D01*
X276182Y416405D01*
X276127Y416413D01*
X276090Y416425D01*
X276051Y416424D01*
X275996Y416432D01*
X272186Y416432D01*
X272122Y416421D01*
X272056Y416419D01*
X272012Y416401D01*
X271966Y416393D01*
X271909Y416359D01*
X271848Y416334D01*
X271813Y416303D01*
X271772Y416278D01*
X271731Y416227D01*
X271682Y416183D01*
X271661Y416141D01*
X271631Y416104D01*
X271610Y416042D01*
X271580Y415983D01*
X271572Y415929D01*
X271559Y415892D01*
X271559Y415889D01*
X271560Y415852D01*
X271552Y415798D01*
X271552Y413258D01*
X271564Y413193D01*
X271566Y413127D01*
X271583Y413084D01*
X271592Y413037D01*
X271625Y412980D01*
X271650Y412920D01*
X271682Y412885D01*
X271706Y412844D01*
X271757Y412803D01*
X271801Y412754D01*
X271844Y412732D01*
X271880Y412703D01*
X271942Y412682D01*
X272001Y412651D01*
X272055Y412643D01*
X272093Y412631D01*
X272132Y412632D01*
X272186Y412624D01*
X275996Y412624D01*
X276061Y412635D01*
G37*
G36*
X1205701Y412635D02*
X1205701Y412635D01*
X1205767Y412637D01*
X1205811Y412655D01*
X1205857Y412663D01*
X1205914Y412697D01*
X1205975Y412722D01*
X1206010Y412753D01*
X1206050Y412778D01*
X1206092Y412829D01*
X1206140Y412873D01*
X1206162Y412915D01*
X1206192Y412952D01*
X1206213Y413014D01*
X1206243Y413073D01*
X1206251Y413127D01*
X1206264Y413164D01*
X1206263Y413204D01*
X1206271Y413258D01*
X1206271Y415798D01*
X1206259Y415863D01*
X1206257Y415929D01*
X1206239Y415972D01*
X1206231Y416019D01*
X1206197Y416076D01*
X1206173Y416136D01*
X1206141Y416171D01*
X1206117Y416212D01*
X1206066Y416254D01*
X1206021Y416302D01*
X1205979Y416324D01*
X1205943Y416353D01*
X1205880Y416374D01*
X1205822Y416405D01*
X1205767Y416413D01*
X1205730Y416425D01*
X1205691Y416424D01*
X1205636Y416432D01*
X1201826Y416432D01*
X1201762Y416421D01*
X1201696Y416419D01*
X1201652Y416401D01*
X1201606Y416393D01*
X1201549Y416359D01*
X1201488Y416334D01*
X1201453Y416303D01*
X1201412Y416278D01*
X1201371Y416227D01*
X1201322Y416183D01*
X1201301Y416141D01*
X1201271Y416104D01*
X1201250Y416042D01*
X1201220Y415983D01*
X1201212Y415929D01*
X1201199Y415892D01*
X1201199Y415889D01*
X1201200Y415852D01*
X1201192Y415798D01*
X1201192Y413258D01*
X1201204Y413193D01*
X1201206Y413127D01*
X1201223Y413084D01*
X1201232Y413037D01*
X1201265Y412980D01*
X1201290Y412920D01*
X1201322Y412885D01*
X1201346Y412844D01*
X1201397Y412803D01*
X1201441Y412754D01*
X1201484Y412732D01*
X1201520Y412703D01*
X1201582Y412682D01*
X1201641Y412651D01*
X1201695Y412643D01*
X1201733Y412631D01*
X1201772Y412632D01*
X1201826Y412624D01*
X1205636Y412624D01*
X1205701Y412635D01*
G37*
G36*
X895821Y412635D02*
X895821Y412635D01*
X895887Y412637D01*
X895931Y412655D01*
X895977Y412663D01*
X896034Y412697D01*
X896095Y412722D01*
X896130Y412753D01*
X896170Y412778D01*
X896212Y412829D01*
X896260Y412873D01*
X896282Y412915D01*
X896312Y412952D01*
X896333Y413014D01*
X896363Y413073D01*
X896371Y413127D01*
X896384Y413164D01*
X896383Y413204D01*
X896391Y413258D01*
X896391Y415798D01*
X896379Y415863D01*
X896377Y415929D01*
X896359Y415972D01*
X896351Y416019D01*
X896317Y416076D01*
X896293Y416136D01*
X896261Y416171D01*
X896237Y416212D01*
X896186Y416254D01*
X896141Y416302D01*
X896099Y416324D01*
X896063Y416353D01*
X896000Y416374D01*
X895942Y416405D01*
X895887Y416413D01*
X895850Y416425D01*
X895811Y416424D01*
X895756Y416432D01*
X891946Y416432D01*
X891882Y416421D01*
X891816Y416419D01*
X891772Y416401D01*
X891726Y416393D01*
X891669Y416359D01*
X891608Y416334D01*
X891573Y416303D01*
X891532Y416278D01*
X891491Y416227D01*
X891442Y416183D01*
X891421Y416141D01*
X891391Y416104D01*
X891370Y416042D01*
X891340Y415983D01*
X891332Y415929D01*
X891319Y415892D01*
X891319Y415889D01*
X891320Y415852D01*
X891312Y415798D01*
X891312Y413258D01*
X891324Y413193D01*
X891326Y413127D01*
X891343Y413084D01*
X891352Y413037D01*
X891385Y412980D01*
X891410Y412920D01*
X891442Y412885D01*
X891466Y412844D01*
X891517Y412803D01*
X891561Y412754D01*
X891604Y412732D01*
X891640Y412703D01*
X891702Y412682D01*
X891761Y412651D01*
X891815Y412643D01*
X891853Y412631D01*
X891892Y412632D01*
X891946Y412624D01*
X895756Y412624D01*
X895821Y412635D01*
G37*
G36*
X1205701Y153555D02*
X1205701Y153555D01*
X1205767Y153557D01*
X1205811Y153575D01*
X1205857Y153583D01*
X1205914Y153617D01*
X1205975Y153642D01*
X1206010Y153673D01*
X1206050Y153698D01*
X1206092Y153749D01*
X1206140Y153793D01*
X1206162Y153835D01*
X1206192Y153872D01*
X1206213Y153934D01*
X1206243Y153993D01*
X1206251Y154047D01*
X1206264Y154084D01*
X1206263Y154124D01*
X1206271Y154178D01*
X1206271Y156718D01*
X1206259Y156783D01*
X1206257Y156849D01*
X1206239Y156892D01*
X1206231Y156939D01*
X1206197Y156996D01*
X1206173Y157056D01*
X1206141Y157091D01*
X1206117Y157132D01*
X1206066Y157174D01*
X1206021Y157222D01*
X1205979Y157244D01*
X1205943Y157273D01*
X1205880Y157294D01*
X1205822Y157325D01*
X1205767Y157333D01*
X1205730Y157345D01*
X1205691Y157344D01*
X1205636Y157352D01*
X1201826Y157352D01*
X1201762Y157341D01*
X1201696Y157339D01*
X1201652Y157321D01*
X1201606Y157313D01*
X1201549Y157279D01*
X1201488Y157254D01*
X1201453Y157223D01*
X1201412Y157198D01*
X1201371Y157147D01*
X1201322Y157103D01*
X1201301Y157061D01*
X1201271Y157024D01*
X1201250Y156962D01*
X1201220Y156903D01*
X1201212Y156849D01*
X1201199Y156812D01*
X1201199Y156809D01*
X1201200Y156772D01*
X1201192Y156718D01*
X1201192Y154178D01*
X1201204Y154113D01*
X1201206Y154047D01*
X1201223Y154004D01*
X1201232Y153957D01*
X1201265Y153900D01*
X1201290Y153840D01*
X1201322Y153805D01*
X1201346Y153764D01*
X1201397Y153723D01*
X1201441Y153674D01*
X1201484Y153652D01*
X1201520Y153623D01*
X1201582Y153602D01*
X1201641Y153571D01*
X1201695Y153563D01*
X1201733Y153551D01*
X1201772Y153552D01*
X1201826Y153544D01*
X1205636Y153544D01*
X1205701Y153555D01*
G37*
G36*
X895821Y153555D02*
X895821Y153555D01*
X895887Y153557D01*
X895931Y153575D01*
X895977Y153583D01*
X896034Y153617D01*
X896095Y153642D01*
X896130Y153673D01*
X896170Y153698D01*
X896212Y153749D01*
X896260Y153793D01*
X896282Y153835D01*
X896312Y153872D01*
X896333Y153934D01*
X896363Y153993D01*
X896371Y154047D01*
X896384Y154084D01*
X896383Y154124D01*
X896391Y154178D01*
X896391Y156718D01*
X896379Y156783D01*
X896377Y156849D01*
X896359Y156892D01*
X896351Y156939D01*
X896317Y156996D01*
X896293Y157056D01*
X896261Y157091D01*
X896237Y157132D01*
X896186Y157174D01*
X896141Y157222D01*
X896099Y157244D01*
X896063Y157273D01*
X896000Y157294D01*
X895942Y157325D01*
X895887Y157333D01*
X895850Y157345D01*
X895811Y157344D01*
X895756Y157352D01*
X891946Y157352D01*
X891882Y157341D01*
X891816Y157339D01*
X891772Y157321D01*
X891726Y157313D01*
X891669Y157279D01*
X891608Y157254D01*
X891573Y157223D01*
X891532Y157198D01*
X891491Y157147D01*
X891442Y157103D01*
X891421Y157061D01*
X891391Y157024D01*
X891370Y156962D01*
X891340Y156903D01*
X891332Y156849D01*
X891319Y156812D01*
X891319Y156809D01*
X891320Y156772D01*
X891312Y156718D01*
X891312Y154178D01*
X891324Y154113D01*
X891326Y154047D01*
X891343Y154004D01*
X891352Y153957D01*
X891385Y153900D01*
X891410Y153840D01*
X891442Y153805D01*
X891466Y153764D01*
X891517Y153723D01*
X891561Y153674D01*
X891604Y153652D01*
X891640Y153623D01*
X891702Y153602D01*
X891761Y153571D01*
X891815Y153563D01*
X891853Y153551D01*
X891892Y153552D01*
X891946Y153544D01*
X895756Y153544D01*
X895821Y153555D01*
G37*
G36*
X585941Y153555D02*
X585941Y153555D01*
X586007Y153557D01*
X586051Y153575D01*
X586097Y153583D01*
X586154Y153617D01*
X586215Y153642D01*
X586250Y153673D01*
X586290Y153698D01*
X586332Y153749D01*
X586380Y153793D01*
X586402Y153835D01*
X586432Y153872D01*
X586453Y153934D01*
X586483Y153993D01*
X586491Y154047D01*
X586504Y154084D01*
X586503Y154124D01*
X586511Y154178D01*
X586511Y156718D01*
X586499Y156783D01*
X586497Y156849D01*
X586479Y156892D01*
X586471Y156939D01*
X586437Y156996D01*
X586413Y157056D01*
X586381Y157091D01*
X586357Y157132D01*
X586306Y157174D01*
X586261Y157222D01*
X586219Y157244D01*
X586183Y157273D01*
X586120Y157294D01*
X586062Y157325D01*
X586007Y157333D01*
X585970Y157345D01*
X585931Y157344D01*
X585876Y157352D01*
X582066Y157352D01*
X582002Y157341D01*
X581936Y157339D01*
X581892Y157321D01*
X581846Y157313D01*
X581789Y157279D01*
X581728Y157254D01*
X581693Y157223D01*
X581652Y157198D01*
X581611Y157147D01*
X581562Y157103D01*
X581541Y157061D01*
X581511Y157024D01*
X581490Y156962D01*
X581460Y156903D01*
X581452Y156849D01*
X581439Y156812D01*
X581439Y156809D01*
X581440Y156772D01*
X581432Y156718D01*
X581432Y154178D01*
X581444Y154113D01*
X581446Y154047D01*
X581463Y154004D01*
X581472Y153957D01*
X581505Y153900D01*
X581530Y153840D01*
X581562Y153805D01*
X581586Y153764D01*
X581637Y153723D01*
X581681Y153674D01*
X581724Y153652D01*
X581760Y153623D01*
X581822Y153602D01*
X581881Y153571D01*
X581935Y153563D01*
X581973Y153551D01*
X582012Y153552D01*
X582066Y153544D01*
X585876Y153544D01*
X585941Y153555D01*
G37*
G36*
X276061Y153555D02*
X276061Y153555D01*
X276127Y153557D01*
X276171Y153575D01*
X276217Y153583D01*
X276274Y153617D01*
X276335Y153642D01*
X276370Y153673D01*
X276410Y153698D01*
X276452Y153749D01*
X276500Y153793D01*
X276522Y153835D01*
X276552Y153872D01*
X276573Y153934D01*
X276603Y153993D01*
X276611Y154047D01*
X276624Y154084D01*
X276623Y154124D01*
X276631Y154178D01*
X276631Y156718D01*
X276619Y156783D01*
X276617Y156849D01*
X276599Y156892D01*
X276591Y156939D01*
X276557Y156996D01*
X276533Y157056D01*
X276501Y157091D01*
X276477Y157132D01*
X276426Y157174D01*
X276381Y157222D01*
X276339Y157244D01*
X276303Y157273D01*
X276240Y157294D01*
X276182Y157325D01*
X276127Y157333D01*
X276090Y157345D01*
X276051Y157344D01*
X275996Y157352D01*
X272186Y157352D01*
X272122Y157341D01*
X272056Y157339D01*
X272012Y157321D01*
X271966Y157313D01*
X271909Y157279D01*
X271848Y157254D01*
X271813Y157223D01*
X271772Y157198D01*
X271731Y157147D01*
X271682Y157103D01*
X271661Y157061D01*
X271631Y157024D01*
X271610Y156962D01*
X271580Y156903D01*
X271572Y156849D01*
X271559Y156812D01*
X271559Y156809D01*
X271560Y156772D01*
X271552Y156718D01*
X271552Y154178D01*
X271564Y154113D01*
X271566Y154047D01*
X271583Y154004D01*
X271592Y153957D01*
X271625Y153900D01*
X271650Y153840D01*
X271682Y153805D01*
X271706Y153764D01*
X271757Y153723D01*
X271801Y153674D01*
X271844Y153652D01*
X271880Y153623D01*
X271942Y153602D01*
X272001Y153571D01*
X272055Y153563D01*
X272093Y153551D01*
X272132Y153552D01*
X272186Y153544D01*
X275996Y153544D01*
X276061Y153555D01*
G37*
D10*
X25400Y228600D03*
X279400Y228600D03*
D11*
X248183Y98679D02*
X242849Y98679D01*
X248183Y98679D02*
X248183Y86995D01*
X242849Y86995D01*
X242849Y98679D01*
X242849Y89167D02*
X248183Y89167D01*
X248183Y91339D02*
X242849Y91339D01*
X242849Y93511D02*
X248183Y93511D01*
X248183Y95683D02*
X242849Y95683D01*
X242849Y97855D02*
X248183Y97855D01*
X240055Y98679D02*
X234721Y98679D01*
X240055Y98679D02*
X240055Y86995D01*
X234721Y86995D01*
X234721Y98679D01*
X234721Y89167D02*
X240055Y89167D01*
X240055Y91339D02*
X234721Y91339D01*
X234721Y93511D02*
X240055Y93511D01*
X240055Y95683D02*
X234721Y95683D01*
X234721Y97855D02*
X240055Y97855D01*
X62103Y57658D02*
X56769Y57658D01*
X56769Y69342D01*
X62103Y69342D01*
X62103Y57658D01*
X62103Y59830D02*
X56769Y59830D01*
X56769Y62002D02*
X62103Y62002D01*
X62103Y64174D02*
X56769Y64174D01*
X56769Y66346D02*
X62103Y66346D01*
X62103Y68518D02*
X56769Y68518D01*
X64897Y57658D02*
X70231Y57658D01*
X64897Y57658D02*
X64897Y69342D01*
X70231Y69342D01*
X70231Y57658D01*
X70231Y59830D02*
X64897Y59830D01*
X64897Y62002D02*
X70231Y62002D01*
X70231Y64174D02*
X64897Y64174D01*
X64897Y66346D02*
X70231Y66346D01*
X70231Y68518D02*
X64897Y68518D01*
X62103Y83058D02*
X56769Y83058D01*
X56769Y94742D01*
X62103Y94742D01*
X62103Y83058D01*
X62103Y85230D02*
X56769Y85230D01*
X56769Y87402D02*
X62103Y87402D01*
X62103Y89574D02*
X56769Y89574D01*
X56769Y91746D02*
X62103Y91746D01*
X62103Y93918D02*
X56769Y93918D01*
X64897Y83058D02*
X70231Y83058D01*
X64897Y83058D02*
X64897Y94742D01*
X70231Y94742D01*
X70231Y83058D01*
X70231Y85230D02*
X64897Y85230D01*
X64897Y87402D02*
X70231Y87402D01*
X70231Y89574D02*
X64897Y89574D01*
X64897Y91746D02*
X70231Y91746D01*
X70231Y93918D02*
X64897Y93918D01*
D12*
X63500Y241300D03*
X88900Y241300D03*
X114300Y241300D03*
X139700Y241300D03*
X165100Y241300D03*
X190500Y241300D03*
X215900Y241300D03*
X241300Y241300D03*
X215900Y12700D03*
X241300Y12700D03*
X88900Y190500D03*
X114300Y190500D03*
X139700Y190500D03*
X165100Y190500D03*
X190500Y190500D03*
X215900Y190500D03*
D13*
X12700Y76200D03*
D12*
X88900Y12700D03*
X63500Y12700D03*
D14*
X295910Y8890D03*
X7620Y246380D03*
D12*
X114300Y12700D03*
X139700Y12700D03*
X165100Y12700D03*
X190500Y12700D03*
D15*
X266088Y149604D02*
X271680Y149604D01*
X266088Y149604D02*
X266088Y161292D01*
X271680Y161292D01*
X271680Y149604D01*
X271680Y151773D02*
X266088Y151773D01*
X266088Y153942D02*
X271680Y153942D01*
X271680Y156111D02*
X266088Y156111D01*
X266088Y158280D02*
X271680Y158280D01*
X271680Y160449D02*
X266088Y160449D01*
X276502Y149604D02*
X282094Y149604D01*
X276502Y149604D02*
X276502Y161292D01*
X282094Y161292D01*
X282094Y149604D01*
X282094Y151773D02*
X276502Y151773D01*
X276502Y153942D02*
X282094Y153942D01*
X282094Y156111D02*
X276502Y156111D01*
X276502Y158280D02*
X282094Y158280D01*
X282094Y160449D02*
X276502Y160449D01*
D10*
X335280Y228600D03*
X589280Y228600D03*
D11*
X558063Y98679D02*
X552729Y98679D01*
X558063Y98679D02*
X558063Y86995D01*
X552729Y86995D01*
X552729Y98679D01*
X552729Y89167D02*
X558063Y89167D01*
X558063Y91339D02*
X552729Y91339D01*
X552729Y93511D02*
X558063Y93511D01*
X558063Y95683D02*
X552729Y95683D01*
X552729Y97855D02*
X558063Y97855D01*
X549935Y98679D02*
X544601Y98679D01*
X549935Y98679D02*
X549935Y86995D01*
X544601Y86995D01*
X544601Y98679D01*
X544601Y89167D02*
X549935Y89167D01*
X549935Y91339D02*
X544601Y91339D01*
X544601Y93511D02*
X549935Y93511D01*
X549935Y95683D02*
X544601Y95683D01*
X544601Y97855D02*
X549935Y97855D01*
X371983Y57658D02*
X366649Y57658D01*
X366649Y69342D01*
X371983Y69342D01*
X371983Y57658D01*
X371983Y59830D02*
X366649Y59830D01*
X366649Y62002D02*
X371983Y62002D01*
X371983Y64174D02*
X366649Y64174D01*
X366649Y66346D02*
X371983Y66346D01*
X371983Y68518D02*
X366649Y68518D01*
X374777Y57658D02*
X380111Y57658D01*
X374777Y57658D02*
X374777Y69342D01*
X380111Y69342D01*
X380111Y57658D01*
X380111Y59830D02*
X374777Y59830D01*
X374777Y62002D02*
X380111Y62002D01*
X380111Y64174D02*
X374777Y64174D01*
X374777Y66346D02*
X380111Y66346D01*
X380111Y68518D02*
X374777Y68518D01*
X371983Y83058D02*
X366649Y83058D01*
X366649Y94742D01*
X371983Y94742D01*
X371983Y83058D01*
X371983Y85230D02*
X366649Y85230D01*
X366649Y87402D02*
X371983Y87402D01*
X371983Y89574D02*
X366649Y89574D01*
X366649Y91746D02*
X371983Y91746D01*
X371983Y93918D02*
X366649Y93918D01*
X374777Y83058D02*
X380111Y83058D01*
X374777Y83058D02*
X374777Y94742D01*
X380111Y94742D01*
X380111Y83058D01*
X380111Y85230D02*
X374777Y85230D01*
X374777Y87402D02*
X380111Y87402D01*
X380111Y89574D02*
X374777Y89574D01*
X374777Y91746D02*
X380111Y91746D01*
X380111Y93918D02*
X374777Y93918D01*
D12*
X373380Y241300D03*
X398780Y241300D03*
X424180Y241300D03*
X449580Y241300D03*
X474980Y241300D03*
X500380Y241300D03*
X525780Y241300D03*
X551180Y241300D03*
X525780Y12700D03*
X551180Y12700D03*
X398780Y190500D03*
X424180Y190500D03*
X449580Y190500D03*
X474980Y190500D03*
X500380Y190500D03*
X525780Y190500D03*
D13*
X322580Y76200D03*
D12*
X398780Y12700D03*
X373380Y12700D03*
D14*
X605790Y8890D03*
X317500Y246380D03*
D12*
X424180Y12700D03*
X449580Y12700D03*
X474980Y12700D03*
X500380Y12700D03*
D15*
X575968Y149604D02*
X581560Y149604D01*
X575968Y149604D02*
X575968Y161292D01*
X581560Y161292D01*
X581560Y149604D01*
X581560Y151773D02*
X575968Y151773D01*
X575968Y153942D02*
X581560Y153942D01*
X581560Y156111D02*
X575968Y156111D01*
X575968Y158280D02*
X581560Y158280D01*
X581560Y160449D02*
X575968Y160449D01*
X586382Y149604D02*
X591974Y149604D01*
X586382Y149604D02*
X586382Y161292D01*
X591974Y161292D01*
X591974Y149604D01*
X591974Y151773D02*
X586382Y151773D01*
X586382Y153942D02*
X591974Y153942D01*
X591974Y156111D02*
X586382Y156111D01*
X586382Y158280D02*
X591974Y158280D01*
X591974Y160449D02*
X586382Y160449D01*
D10*
X645160Y228600D03*
X899160Y228600D03*
D11*
X867943Y98679D02*
X862609Y98679D01*
X867943Y98679D02*
X867943Y86995D01*
X862609Y86995D01*
X862609Y98679D01*
X862609Y89167D02*
X867943Y89167D01*
X867943Y91339D02*
X862609Y91339D01*
X862609Y93511D02*
X867943Y93511D01*
X867943Y95683D02*
X862609Y95683D01*
X862609Y97855D02*
X867943Y97855D01*
X859815Y98679D02*
X854481Y98679D01*
X859815Y98679D02*
X859815Y86995D01*
X854481Y86995D01*
X854481Y98679D01*
X854481Y89167D02*
X859815Y89167D01*
X859815Y91339D02*
X854481Y91339D01*
X854481Y93511D02*
X859815Y93511D01*
X859815Y95683D02*
X854481Y95683D01*
X854481Y97855D02*
X859815Y97855D01*
X681863Y57658D02*
X676529Y57658D01*
X676529Y69342D01*
X681863Y69342D01*
X681863Y57658D01*
X681863Y59830D02*
X676529Y59830D01*
X676529Y62002D02*
X681863Y62002D01*
X681863Y64174D02*
X676529Y64174D01*
X676529Y66346D02*
X681863Y66346D01*
X681863Y68518D02*
X676529Y68518D01*
X684657Y57658D02*
X689991Y57658D01*
X684657Y57658D02*
X684657Y69342D01*
X689991Y69342D01*
X689991Y57658D01*
X689991Y59830D02*
X684657Y59830D01*
X684657Y62002D02*
X689991Y62002D01*
X689991Y64174D02*
X684657Y64174D01*
X684657Y66346D02*
X689991Y66346D01*
X689991Y68518D02*
X684657Y68518D01*
X681863Y83058D02*
X676529Y83058D01*
X676529Y94742D01*
X681863Y94742D01*
X681863Y83058D01*
X681863Y85230D02*
X676529Y85230D01*
X676529Y87402D02*
X681863Y87402D01*
X681863Y89574D02*
X676529Y89574D01*
X676529Y91746D02*
X681863Y91746D01*
X681863Y93918D02*
X676529Y93918D01*
X684657Y83058D02*
X689991Y83058D01*
X684657Y83058D02*
X684657Y94742D01*
X689991Y94742D01*
X689991Y83058D01*
X689991Y85230D02*
X684657Y85230D01*
X684657Y87402D02*
X689991Y87402D01*
X689991Y89574D02*
X684657Y89574D01*
X684657Y91746D02*
X689991Y91746D01*
X689991Y93918D02*
X684657Y93918D01*
D12*
X683260Y241300D03*
X708660Y241300D03*
X734060Y241300D03*
X759460Y241300D03*
X784860Y241300D03*
X810260Y241300D03*
X835660Y241300D03*
X861060Y241300D03*
X835660Y12700D03*
X861060Y12700D03*
X708660Y190500D03*
X734060Y190500D03*
X759460Y190500D03*
X784860Y190500D03*
X810260Y190500D03*
X835660Y190500D03*
D13*
X632460Y76200D03*
D12*
X708660Y12700D03*
X683260Y12700D03*
D14*
X915670Y8890D03*
X627380Y246380D03*
D12*
X734060Y12700D03*
X759460Y12700D03*
X784860Y12700D03*
X810260Y12700D03*
D15*
X885848Y149604D02*
X891440Y149604D01*
X885848Y149604D02*
X885848Y161292D01*
X891440Y161292D01*
X891440Y149604D01*
X891440Y151773D02*
X885848Y151773D01*
X885848Y153942D02*
X891440Y153942D01*
X891440Y156111D02*
X885848Y156111D01*
X885848Y158280D02*
X891440Y158280D01*
X891440Y160449D02*
X885848Y160449D01*
X896262Y149604D02*
X901854Y149604D01*
X896262Y149604D02*
X896262Y161292D01*
X901854Y161292D01*
X901854Y149604D01*
X901854Y151773D02*
X896262Y151773D01*
X896262Y153942D02*
X901854Y153942D01*
X901854Y156111D02*
X896262Y156111D01*
X896262Y158280D02*
X901854Y158280D01*
X901854Y160449D02*
X896262Y160449D01*
D10*
X955040Y228600D03*
X1209040Y228600D03*
D11*
X1177823Y98679D02*
X1172489Y98679D01*
X1177823Y98679D02*
X1177823Y86995D01*
X1172489Y86995D01*
X1172489Y98679D01*
X1172489Y89167D02*
X1177823Y89167D01*
X1177823Y91339D02*
X1172489Y91339D01*
X1172489Y93511D02*
X1177823Y93511D01*
X1177823Y95683D02*
X1172489Y95683D01*
X1172489Y97855D02*
X1177823Y97855D01*
X1169695Y98679D02*
X1164361Y98679D01*
X1169695Y98679D02*
X1169695Y86995D01*
X1164361Y86995D01*
X1164361Y98679D01*
X1164361Y89167D02*
X1169695Y89167D01*
X1169695Y91339D02*
X1164361Y91339D01*
X1164361Y93511D02*
X1169695Y93511D01*
X1169695Y95683D02*
X1164361Y95683D01*
X1164361Y97855D02*
X1169695Y97855D01*
X991743Y57658D02*
X986409Y57658D01*
X986409Y69342D01*
X991743Y69342D01*
X991743Y57658D01*
X991743Y59830D02*
X986409Y59830D01*
X986409Y62002D02*
X991743Y62002D01*
X991743Y64174D02*
X986409Y64174D01*
X986409Y66346D02*
X991743Y66346D01*
X991743Y68518D02*
X986409Y68518D01*
X994537Y57658D02*
X999871Y57658D01*
X994537Y57658D02*
X994537Y69342D01*
X999871Y69342D01*
X999871Y57658D01*
X999871Y59830D02*
X994537Y59830D01*
X994537Y62002D02*
X999871Y62002D01*
X999871Y64174D02*
X994537Y64174D01*
X994537Y66346D02*
X999871Y66346D01*
X999871Y68518D02*
X994537Y68518D01*
X991743Y83058D02*
X986409Y83058D01*
X986409Y94742D01*
X991743Y94742D01*
X991743Y83058D01*
X991743Y85230D02*
X986409Y85230D01*
X986409Y87402D02*
X991743Y87402D01*
X991743Y89574D02*
X986409Y89574D01*
X986409Y91746D02*
X991743Y91746D01*
X991743Y93918D02*
X986409Y93918D01*
X994537Y83058D02*
X999871Y83058D01*
X994537Y83058D02*
X994537Y94742D01*
X999871Y94742D01*
X999871Y83058D01*
X999871Y85230D02*
X994537Y85230D01*
X994537Y87402D02*
X999871Y87402D01*
X999871Y89574D02*
X994537Y89574D01*
X994537Y91746D02*
X999871Y91746D01*
X999871Y93918D02*
X994537Y93918D01*
D12*
X993140Y241300D03*
X1018540Y241300D03*
X1043940Y241300D03*
X1069340Y241300D03*
X1094740Y241300D03*
X1120140Y241300D03*
X1145540Y241300D03*
X1170940Y241300D03*
X1145540Y12700D03*
X1170940Y12700D03*
X1018540Y190500D03*
X1043940Y190500D03*
X1069340Y190500D03*
X1094740Y190500D03*
X1120140Y190500D03*
X1145540Y190500D03*
D13*
X942340Y76200D03*
D12*
X1018540Y12700D03*
X993140Y12700D03*
D14*
X1225550Y8890D03*
X937260Y246380D03*
D12*
X1043940Y12700D03*
X1069340Y12700D03*
X1094740Y12700D03*
X1120140Y12700D03*
D15*
X1195728Y149604D02*
X1201320Y149604D01*
X1195728Y149604D02*
X1195728Y161292D01*
X1201320Y161292D01*
X1201320Y149604D01*
X1201320Y151773D02*
X1195728Y151773D01*
X1195728Y153942D02*
X1201320Y153942D01*
X1201320Y156111D02*
X1195728Y156111D01*
X1195728Y158280D02*
X1201320Y158280D01*
X1201320Y160449D02*
X1195728Y160449D01*
X1206142Y149604D02*
X1211734Y149604D01*
X1206142Y149604D02*
X1206142Y161292D01*
X1211734Y161292D01*
X1211734Y149604D01*
X1211734Y151773D02*
X1206142Y151773D01*
X1206142Y153942D02*
X1211734Y153942D01*
X1211734Y156111D02*
X1206142Y156111D01*
X1206142Y158280D02*
X1211734Y158280D01*
X1211734Y160449D02*
X1206142Y160449D01*
D10*
X25400Y487680D03*
X279400Y487680D03*
D11*
X248183Y357759D02*
X242849Y357759D01*
X248183Y357759D02*
X248183Y346075D01*
X242849Y346075D01*
X242849Y357759D01*
X242849Y348247D02*
X248183Y348247D01*
X248183Y350419D02*
X242849Y350419D01*
X242849Y352591D02*
X248183Y352591D01*
X248183Y354763D02*
X242849Y354763D01*
X242849Y356935D02*
X248183Y356935D01*
X240055Y357759D02*
X234721Y357759D01*
X240055Y357759D02*
X240055Y346075D01*
X234721Y346075D01*
X234721Y357759D01*
X234721Y348247D02*
X240055Y348247D01*
X240055Y350419D02*
X234721Y350419D01*
X234721Y352591D02*
X240055Y352591D01*
X240055Y354763D02*
X234721Y354763D01*
X234721Y356935D02*
X240055Y356935D01*
X62103Y316738D02*
X56769Y316738D01*
X56769Y328422D01*
X62103Y328422D01*
X62103Y316738D01*
X62103Y318910D02*
X56769Y318910D01*
X56769Y321082D02*
X62103Y321082D01*
X62103Y323254D02*
X56769Y323254D01*
X56769Y325426D02*
X62103Y325426D01*
X62103Y327598D02*
X56769Y327598D01*
X64897Y316738D02*
X70231Y316738D01*
X64897Y316738D02*
X64897Y328422D01*
X70231Y328422D01*
X70231Y316738D01*
X70231Y318910D02*
X64897Y318910D01*
X64897Y321082D02*
X70231Y321082D01*
X70231Y323254D02*
X64897Y323254D01*
X64897Y325426D02*
X70231Y325426D01*
X70231Y327598D02*
X64897Y327598D01*
X62103Y342138D02*
X56769Y342138D01*
X56769Y353822D01*
X62103Y353822D01*
X62103Y342138D01*
X62103Y344310D02*
X56769Y344310D01*
X56769Y346482D02*
X62103Y346482D01*
X62103Y348654D02*
X56769Y348654D01*
X56769Y350826D02*
X62103Y350826D01*
X62103Y352998D02*
X56769Y352998D01*
X64897Y342138D02*
X70231Y342138D01*
X64897Y342138D02*
X64897Y353822D01*
X70231Y353822D01*
X70231Y342138D01*
X70231Y344310D02*
X64897Y344310D01*
X64897Y346482D02*
X70231Y346482D01*
X70231Y348654D02*
X64897Y348654D01*
X64897Y350826D02*
X70231Y350826D01*
X70231Y352998D02*
X64897Y352998D01*
D12*
X63500Y500380D03*
X88900Y500380D03*
X114300Y500380D03*
X139700Y500380D03*
X165100Y500380D03*
X190500Y500380D03*
X215900Y500380D03*
X241300Y500380D03*
X215900Y271780D03*
X241300Y271780D03*
X88900Y449580D03*
X114300Y449580D03*
X139700Y449580D03*
X165100Y449580D03*
X190500Y449580D03*
X215900Y449580D03*
D13*
X12700Y335280D03*
D12*
X88900Y271780D03*
X63500Y271780D03*
D14*
X295910Y267970D03*
X7620Y505460D03*
D12*
X114300Y271780D03*
X139700Y271780D03*
X165100Y271780D03*
X190500Y271780D03*
D15*
X266088Y408684D02*
X271680Y408684D01*
X266088Y408684D02*
X266088Y420372D01*
X271680Y420372D01*
X271680Y408684D01*
X271680Y410853D02*
X266088Y410853D01*
X266088Y413022D02*
X271680Y413022D01*
X271680Y415191D02*
X266088Y415191D01*
X266088Y417360D02*
X271680Y417360D01*
X271680Y419529D02*
X266088Y419529D01*
X276502Y408684D02*
X282094Y408684D01*
X276502Y408684D02*
X276502Y420372D01*
X282094Y420372D01*
X282094Y408684D01*
X282094Y410853D02*
X276502Y410853D01*
X276502Y413022D02*
X282094Y413022D01*
X282094Y415191D02*
X276502Y415191D01*
X276502Y417360D02*
X282094Y417360D01*
X282094Y419529D02*
X276502Y419529D01*
D10*
X335280Y487680D03*
X589280Y487680D03*
D11*
X558063Y357759D02*
X552729Y357759D01*
X558063Y357759D02*
X558063Y346075D01*
X552729Y346075D01*
X552729Y357759D01*
X552729Y348247D02*
X558063Y348247D01*
X558063Y350419D02*
X552729Y350419D01*
X552729Y352591D02*
X558063Y352591D01*
X558063Y354763D02*
X552729Y354763D01*
X552729Y356935D02*
X558063Y356935D01*
X549935Y357759D02*
X544601Y357759D01*
X549935Y357759D02*
X549935Y346075D01*
X544601Y346075D01*
X544601Y357759D01*
X544601Y348247D02*
X549935Y348247D01*
X549935Y350419D02*
X544601Y350419D01*
X544601Y352591D02*
X549935Y352591D01*
X549935Y354763D02*
X544601Y354763D01*
X544601Y356935D02*
X549935Y356935D01*
X371983Y316738D02*
X366649Y316738D01*
X366649Y328422D01*
X371983Y328422D01*
X371983Y316738D01*
X371983Y318910D02*
X366649Y318910D01*
X366649Y321082D02*
X371983Y321082D01*
X371983Y323254D02*
X366649Y323254D01*
X366649Y325426D02*
X371983Y325426D01*
X371983Y327598D02*
X366649Y327598D01*
X374777Y316738D02*
X380111Y316738D01*
X374777Y316738D02*
X374777Y328422D01*
X380111Y328422D01*
X380111Y316738D01*
X380111Y318910D02*
X374777Y318910D01*
X374777Y321082D02*
X380111Y321082D01*
X380111Y323254D02*
X374777Y323254D01*
X374777Y325426D02*
X380111Y325426D01*
X380111Y327598D02*
X374777Y327598D01*
X371983Y342138D02*
X366649Y342138D01*
X366649Y353822D01*
X371983Y353822D01*
X371983Y342138D01*
X371983Y344310D02*
X366649Y344310D01*
X366649Y346482D02*
X371983Y346482D01*
X371983Y348654D02*
X366649Y348654D01*
X366649Y350826D02*
X371983Y350826D01*
X371983Y352998D02*
X366649Y352998D01*
X374777Y342138D02*
X380111Y342138D01*
X374777Y342138D02*
X374777Y353822D01*
X380111Y353822D01*
X380111Y342138D01*
X380111Y344310D02*
X374777Y344310D01*
X374777Y346482D02*
X380111Y346482D01*
X380111Y348654D02*
X374777Y348654D01*
X374777Y350826D02*
X380111Y350826D01*
X380111Y352998D02*
X374777Y352998D01*
D12*
X373380Y500380D03*
X398780Y500380D03*
X424180Y500380D03*
X449580Y500380D03*
X474980Y500380D03*
X500380Y500380D03*
X525780Y500380D03*
X551180Y500380D03*
X525780Y271780D03*
X551180Y271780D03*
X398780Y449580D03*
X424180Y449580D03*
X449580Y449580D03*
X474980Y449580D03*
X500380Y449580D03*
X525780Y449580D03*
D13*
X322580Y335280D03*
D12*
X398780Y271780D03*
X373380Y271780D03*
D14*
X605790Y267970D03*
X317500Y505460D03*
D12*
X424180Y271780D03*
X449580Y271780D03*
X474980Y271780D03*
X500380Y271780D03*
D15*
X575968Y408684D02*
X581560Y408684D01*
X575968Y408684D02*
X575968Y420372D01*
X581560Y420372D01*
X581560Y408684D01*
X581560Y410853D02*
X575968Y410853D01*
X575968Y413022D02*
X581560Y413022D01*
X581560Y415191D02*
X575968Y415191D01*
X575968Y417360D02*
X581560Y417360D01*
X581560Y419529D02*
X575968Y419529D01*
X586382Y408684D02*
X591974Y408684D01*
X586382Y408684D02*
X586382Y420372D01*
X591974Y420372D01*
X591974Y408684D01*
X591974Y410853D02*
X586382Y410853D01*
X586382Y413022D02*
X591974Y413022D01*
X591974Y415191D02*
X586382Y415191D01*
X586382Y417360D02*
X591974Y417360D01*
X591974Y419529D02*
X586382Y419529D01*
D10*
X645160Y487680D03*
X899160Y487680D03*
D11*
X867943Y357759D02*
X862609Y357759D01*
X867943Y357759D02*
X867943Y346075D01*
X862609Y346075D01*
X862609Y357759D01*
X862609Y348247D02*
X867943Y348247D01*
X867943Y350419D02*
X862609Y350419D01*
X862609Y352591D02*
X867943Y352591D01*
X867943Y354763D02*
X862609Y354763D01*
X862609Y356935D02*
X867943Y356935D01*
X859815Y357759D02*
X854481Y357759D01*
X859815Y357759D02*
X859815Y346075D01*
X854481Y346075D01*
X854481Y357759D01*
X854481Y348247D02*
X859815Y348247D01*
X859815Y350419D02*
X854481Y350419D01*
X854481Y352591D02*
X859815Y352591D01*
X859815Y354763D02*
X854481Y354763D01*
X854481Y356935D02*
X859815Y356935D01*
X681863Y316738D02*
X676529Y316738D01*
X676529Y328422D01*
X681863Y328422D01*
X681863Y316738D01*
X681863Y318910D02*
X676529Y318910D01*
X676529Y321082D02*
X681863Y321082D01*
X681863Y323254D02*
X676529Y323254D01*
X676529Y325426D02*
X681863Y325426D01*
X681863Y327598D02*
X676529Y327598D01*
X684657Y316738D02*
X689991Y316738D01*
X684657Y316738D02*
X684657Y328422D01*
X689991Y328422D01*
X689991Y316738D01*
X689991Y318910D02*
X684657Y318910D01*
X684657Y321082D02*
X689991Y321082D01*
X689991Y323254D02*
X684657Y323254D01*
X684657Y325426D02*
X689991Y325426D01*
X689991Y327598D02*
X684657Y327598D01*
X681863Y342138D02*
X676529Y342138D01*
X676529Y353822D01*
X681863Y353822D01*
X681863Y342138D01*
X681863Y344310D02*
X676529Y344310D01*
X676529Y346482D02*
X681863Y346482D01*
X681863Y348654D02*
X676529Y348654D01*
X676529Y350826D02*
X681863Y350826D01*
X681863Y352998D02*
X676529Y352998D01*
X684657Y342138D02*
X689991Y342138D01*
X684657Y342138D02*
X684657Y353822D01*
X689991Y353822D01*
X689991Y342138D01*
X689991Y344310D02*
X684657Y344310D01*
X684657Y346482D02*
X689991Y346482D01*
X689991Y348654D02*
X684657Y348654D01*
X684657Y350826D02*
X689991Y350826D01*
X689991Y352998D02*
X684657Y352998D01*
D12*
X683260Y500380D03*
X708660Y500380D03*
X734060Y500380D03*
X759460Y500380D03*
X784860Y500380D03*
X810260Y500380D03*
X835660Y500380D03*
X861060Y500380D03*
X835660Y271780D03*
X861060Y271780D03*
X708660Y449580D03*
X734060Y449580D03*
X759460Y449580D03*
X784860Y449580D03*
X810260Y449580D03*
X835660Y449580D03*
D13*
X632460Y335280D03*
D12*
X708660Y271780D03*
X683260Y271780D03*
D14*
X915670Y267970D03*
X627380Y505460D03*
D12*
X734060Y271780D03*
X759460Y271780D03*
X784860Y271780D03*
X810260Y271780D03*
D15*
X885848Y408684D02*
X891440Y408684D01*
X885848Y408684D02*
X885848Y420372D01*
X891440Y420372D01*
X891440Y408684D01*
X891440Y410853D02*
X885848Y410853D01*
X885848Y413022D02*
X891440Y413022D01*
X891440Y415191D02*
X885848Y415191D01*
X885848Y417360D02*
X891440Y417360D01*
X891440Y419529D02*
X885848Y419529D01*
X896262Y408684D02*
X901854Y408684D01*
X896262Y408684D02*
X896262Y420372D01*
X901854Y420372D01*
X901854Y408684D01*
X901854Y410853D02*
X896262Y410853D01*
X896262Y413022D02*
X901854Y413022D01*
X901854Y415191D02*
X896262Y415191D01*
X896262Y417360D02*
X901854Y417360D01*
X901854Y419529D02*
X896262Y419529D01*
D10*
X955040Y487680D03*
X1209040Y487680D03*
D11*
X1177823Y357759D02*
X1172489Y357759D01*
X1177823Y357759D02*
X1177823Y346075D01*
X1172489Y346075D01*
X1172489Y357759D01*
X1172489Y348247D02*
X1177823Y348247D01*
X1177823Y350419D02*
X1172489Y350419D01*
X1172489Y352591D02*
X1177823Y352591D01*
X1177823Y354763D02*
X1172489Y354763D01*
X1172489Y356935D02*
X1177823Y356935D01*
X1169695Y357759D02*
X1164361Y357759D01*
X1169695Y357759D02*
X1169695Y346075D01*
X1164361Y346075D01*
X1164361Y357759D01*
X1164361Y348247D02*
X1169695Y348247D01*
X1169695Y350419D02*
X1164361Y350419D01*
X1164361Y352591D02*
X1169695Y352591D01*
X1169695Y354763D02*
X1164361Y354763D01*
X1164361Y356935D02*
X1169695Y356935D01*
X991743Y316738D02*
X986409Y316738D01*
X986409Y328422D01*
X991743Y328422D01*
X991743Y316738D01*
X991743Y318910D02*
X986409Y318910D01*
X986409Y321082D02*
X991743Y321082D01*
X991743Y323254D02*
X986409Y323254D01*
X986409Y325426D02*
X991743Y325426D01*
X991743Y327598D02*
X986409Y327598D01*
X994537Y316738D02*
X999871Y316738D01*
X994537Y316738D02*
X994537Y328422D01*
X999871Y328422D01*
X999871Y316738D01*
X999871Y318910D02*
X994537Y318910D01*
X994537Y321082D02*
X999871Y321082D01*
X999871Y323254D02*
X994537Y323254D01*
X994537Y325426D02*
X999871Y325426D01*
X999871Y327598D02*
X994537Y327598D01*
X991743Y342138D02*
X986409Y342138D01*
X986409Y353822D01*
X991743Y353822D01*
X991743Y342138D01*
X991743Y344310D02*
X986409Y344310D01*
X986409Y346482D02*
X991743Y346482D01*
X991743Y348654D02*
X986409Y348654D01*
X986409Y350826D02*
X991743Y350826D01*
X991743Y352998D02*
X986409Y352998D01*
X994537Y342138D02*
X999871Y342138D01*
X994537Y342138D02*
X994537Y353822D01*
X999871Y353822D01*
X999871Y342138D01*
X999871Y344310D02*
X994537Y344310D01*
X994537Y346482D02*
X999871Y346482D01*
X999871Y348654D02*
X994537Y348654D01*
X994537Y350826D02*
X999871Y350826D01*
X999871Y352998D02*
X994537Y352998D01*
D12*
X993140Y500380D03*
X1018540Y500380D03*
X1043940Y500380D03*
X1069340Y500380D03*
X1094740Y500380D03*
X1120140Y500380D03*
X1145540Y500380D03*
X1170940Y500380D03*
X1145540Y271780D03*
X1170940Y271780D03*
X1018540Y449580D03*
X1043940Y449580D03*
X1069340Y449580D03*
X1094740Y449580D03*
X1120140Y449580D03*
X1145540Y449580D03*
D13*
X942340Y335280D03*
D12*
X1018540Y271780D03*
X993140Y271780D03*
D14*
X1225550Y267970D03*
X937260Y505460D03*
D12*
X1043940Y271780D03*
X1069340Y271780D03*
X1094740Y271780D03*
X1120140Y271780D03*
D15*
X1195728Y408684D02*
X1201320Y408684D01*
X1195728Y408684D02*
X1195728Y420372D01*
X1201320Y420372D01*
X1201320Y408684D01*
X1201320Y410853D02*
X1195728Y410853D01*
X1195728Y413022D02*
X1201320Y413022D01*
X1201320Y415191D02*
X1195728Y415191D01*
X1195728Y417360D02*
X1201320Y417360D01*
X1201320Y419529D02*
X1195728Y419529D01*
X1206142Y408684D02*
X1211734Y408684D01*
X1206142Y408684D02*
X1206142Y420372D01*
X1211734Y420372D01*
X1211734Y408684D01*
X1211734Y410853D02*
X1206142Y410853D01*
X1206142Y413022D02*
X1211734Y413022D01*
X1211734Y415191D02*
X1206142Y415191D01*
X1206142Y417360D02*
X1211734Y417360D01*
X1211734Y419529D02*
X1206142Y419529D01*
D10*
X25400Y746760D03*
X279400Y746760D03*
D11*
X248183Y616839D02*
X242849Y616839D01*
X248183Y616839D02*
X248183Y605155D01*
X242849Y605155D01*
X242849Y616839D01*
X242849Y607327D02*
X248183Y607327D01*
X248183Y609499D02*
X242849Y609499D01*
X242849Y611671D02*
X248183Y611671D01*
X248183Y613843D02*
X242849Y613843D01*
X242849Y616015D02*
X248183Y616015D01*
X240055Y616839D02*
X234721Y616839D01*
X240055Y616839D02*
X240055Y605155D01*
X234721Y605155D01*
X234721Y616839D01*
X234721Y607327D02*
X240055Y607327D01*
X240055Y609499D02*
X234721Y609499D01*
X234721Y611671D02*
X240055Y611671D01*
X240055Y613843D02*
X234721Y613843D01*
X234721Y616015D02*
X240055Y616015D01*
X62103Y575818D02*
X56769Y575818D01*
X56769Y587502D01*
X62103Y587502D01*
X62103Y575818D01*
X62103Y577990D02*
X56769Y577990D01*
X56769Y580162D02*
X62103Y580162D01*
X62103Y582334D02*
X56769Y582334D01*
X56769Y584506D02*
X62103Y584506D01*
X62103Y586678D02*
X56769Y586678D01*
X64897Y575818D02*
X70231Y575818D01*
X64897Y575818D02*
X64897Y587502D01*
X70231Y587502D01*
X70231Y575818D01*
X70231Y577990D02*
X64897Y577990D01*
X64897Y580162D02*
X70231Y580162D01*
X70231Y582334D02*
X64897Y582334D01*
X64897Y584506D02*
X70231Y584506D01*
X70231Y586678D02*
X64897Y586678D01*
X62103Y601218D02*
X56769Y601218D01*
X56769Y612902D01*
X62103Y612902D01*
X62103Y601218D01*
X62103Y603390D02*
X56769Y603390D01*
X56769Y605562D02*
X62103Y605562D01*
X62103Y607734D02*
X56769Y607734D01*
X56769Y609906D02*
X62103Y609906D01*
X62103Y612078D02*
X56769Y612078D01*
X64897Y601218D02*
X70231Y601218D01*
X64897Y601218D02*
X64897Y612902D01*
X70231Y612902D01*
X70231Y601218D01*
X70231Y603390D02*
X64897Y603390D01*
X64897Y605562D02*
X70231Y605562D01*
X70231Y607734D02*
X64897Y607734D01*
X64897Y609906D02*
X70231Y609906D01*
X70231Y612078D02*
X64897Y612078D01*
D12*
X63500Y759460D03*
X88900Y759460D03*
X114300Y759460D03*
X139700Y759460D03*
X165100Y759460D03*
X190500Y759460D03*
X215900Y759460D03*
X241300Y759460D03*
X215900Y530860D03*
X241300Y530860D03*
X88900Y708660D03*
X114300Y708660D03*
X139700Y708660D03*
X165100Y708660D03*
X190500Y708660D03*
X215900Y708660D03*
D13*
X12700Y594360D03*
D12*
X88900Y530860D03*
X63500Y530860D03*
D14*
X295910Y527050D03*
X7620Y764540D03*
D12*
X114300Y530860D03*
X139700Y530860D03*
X165100Y530860D03*
X190500Y530860D03*
D15*
X266088Y667764D02*
X271680Y667764D01*
X266088Y667764D02*
X266088Y679452D01*
X271680Y679452D01*
X271680Y667764D01*
X271680Y669933D02*
X266088Y669933D01*
X266088Y672102D02*
X271680Y672102D01*
X271680Y674271D02*
X266088Y674271D01*
X266088Y676440D02*
X271680Y676440D01*
X271680Y678609D02*
X266088Y678609D01*
X276502Y667764D02*
X282094Y667764D01*
X276502Y667764D02*
X276502Y679452D01*
X282094Y679452D01*
X282094Y667764D01*
X282094Y669933D02*
X276502Y669933D01*
X276502Y672102D02*
X282094Y672102D01*
X282094Y674271D02*
X276502Y674271D01*
X276502Y676440D02*
X282094Y676440D01*
X282094Y678609D02*
X276502Y678609D01*
D10*
X335280Y746760D03*
X589280Y746760D03*
D11*
X558063Y616839D02*
X552729Y616839D01*
X558063Y616839D02*
X558063Y605155D01*
X552729Y605155D01*
X552729Y616839D01*
X552729Y607327D02*
X558063Y607327D01*
X558063Y609499D02*
X552729Y609499D01*
X552729Y611671D02*
X558063Y611671D01*
X558063Y613843D02*
X552729Y613843D01*
X552729Y616015D02*
X558063Y616015D01*
X549935Y616839D02*
X544601Y616839D01*
X549935Y616839D02*
X549935Y605155D01*
X544601Y605155D01*
X544601Y616839D01*
X544601Y607327D02*
X549935Y607327D01*
X549935Y609499D02*
X544601Y609499D01*
X544601Y611671D02*
X549935Y611671D01*
X549935Y613843D02*
X544601Y613843D01*
X544601Y616015D02*
X549935Y616015D01*
X371983Y575818D02*
X366649Y575818D01*
X366649Y587502D01*
X371983Y587502D01*
X371983Y575818D01*
X371983Y577990D02*
X366649Y577990D01*
X366649Y580162D02*
X371983Y580162D01*
X371983Y582334D02*
X366649Y582334D01*
X366649Y584506D02*
X371983Y584506D01*
X371983Y586678D02*
X366649Y586678D01*
X374777Y575818D02*
X380111Y575818D01*
X374777Y575818D02*
X374777Y587502D01*
X380111Y587502D01*
X380111Y575818D01*
X380111Y577990D02*
X374777Y577990D01*
X374777Y580162D02*
X380111Y580162D01*
X380111Y582334D02*
X374777Y582334D01*
X374777Y584506D02*
X380111Y584506D01*
X380111Y586678D02*
X374777Y586678D01*
X371983Y601218D02*
X366649Y601218D01*
X366649Y612902D01*
X371983Y612902D01*
X371983Y601218D01*
X371983Y603390D02*
X366649Y603390D01*
X366649Y605562D02*
X371983Y605562D01*
X371983Y607734D02*
X366649Y607734D01*
X366649Y609906D02*
X371983Y609906D01*
X371983Y612078D02*
X366649Y612078D01*
X374777Y601218D02*
X380111Y601218D01*
X374777Y601218D02*
X374777Y612902D01*
X380111Y612902D01*
X380111Y601218D01*
X380111Y603390D02*
X374777Y603390D01*
X374777Y605562D02*
X380111Y605562D01*
X380111Y607734D02*
X374777Y607734D01*
X374777Y609906D02*
X380111Y609906D01*
X380111Y612078D02*
X374777Y612078D01*
D12*
X373380Y759460D03*
X398780Y759460D03*
X424180Y759460D03*
X449580Y759460D03*
X474980Y759460D03*
X500380Y759460D03*
X525780Y759460D03*
X551180Y759460D03*
X525780Y530860D03*
X551180Y530860D03*
X398780Y708660D03*
X424180Y708660D03*
X449580Y708660D03*
X474980Y708660D03*
X500380Y708660D03*
X525780Y708660D03*
D13*
X322580Y594360D03*
D12*
X398780Y530860D03*
X373380Y530860D03*
D14*
X605790Y527050D03*
X317500Y764540D03*
D12*
X424180Y530860D03*
X449580Y530860D03*
X474980Y530860D03*
X500380Y530860D03*
D15*
X575968Y667764D02*
X581560Y667764D01*
X575968Y667764D02*
X575968Y679452D01*
X581560Y679452D01*
X581560Y667764D01*
X581560Y669933D02*
X575968Y669933D01*
X575968Y672102D02*
X581560Y672102D01*
X581560Y674271D02*
X575968Y674271D01*
X575968Y676440D02*
X581560Y676440D01*
X581560Y678609D02*
X575968Y678609D01*
X586382Y667764D02*
X591974Y667764D01*
X586382Y667764D02*
X586382Y679452D01*
X591974Y679452D01*
X591974Y667764D01*
X591974Y669933D02*
X586382Y669933D01*
X586382Y672102D02*
X591974Y672102D01*
X591974Y674271D02*
X586382Y674271D01*
X586382Y676440D02*
X591974Y676440D01*
X591974Y678609D02*
X586382Y678609D01*
D10*
X645160Y746760D03*
X899160Y746760D03*
D11*
X867943Y616839D02*
X862609Y616839D01*
X867943Y616839D02*
X867943Y605155D01*
X862609Y605155D01*
X862609Y616839D01*
X862609Y607327D02*
X867943Y607327D01*
X867943Y609499D02*
X862609Y609499D01*
X862609Y611671D02*
X867943Y611671D01*
X867943Y613843D02*
X862609Y613843D01*
X862609Y616015D02*
X867943Y616015D01*
X859815Y616839D02*
X854481Y616839D01*
X859815Y616839D02*
X859815Y605155D01*
X854481Y605155D01*
X854481Y616839D01*
X854481Y607327D02*
X859815Y607327D01*
X859815Y609499D02*
X854481Y609499D01*
X854481Y611671D02*
X859815Y611671D01*
X859815Y613843D02*
X854481Y613843D01*
X854481Y616015D02*
X859815Y616015D01*
X681863Y575818D02*
X676529Y575818D01*
X676529Y587502D01*
X681863Y587502D01*
X681863Y575818D01*
X681863Y577990D02*
X676529Y577990D01*
X676529Y580162D02*
X681863Y580162D01*
X681863Y582334D02*
X676529Y582334D01*
X676529Y584506D02*
X681863Y584506D01*
X681863Y586678D02*
X676529Y586678D01*
X684657Y575818D02*
X689991Y575818D01*
X684657Y575818D02*
X684657Y587502D01*
X689991Y587502D01*
X689991Y575818D01*
X689991Y577990D02*
X684657Y577990D01*
X684657Y580162D02*
X689991Y580162D01*
X689991Y582334D02*
X684657Y582334D01*
X684657Y584506D02*
X689991Y584506D01*
X689991Y586678D02*
X684657Y586678D01*
X681863Y601218D02*
X676529Y601218D01*
X676529Y612902D01*
X681863Y612902D01*
X681863Y601218D01*
X681863Y603390D02*
X676529Y603390D01*
X676529Y605562D02*
X681863Y605562D01*
X681863Y607734D02*
X676529Y607734D01*
X676529Y609906D02*
X681863Y609906D01*
X681863Y612078D02*
X676529Y612078D01*
X684657Y601218D02*
X689991Y601218D01*
X684657Y601218D02*
X684657Y612902D01*
X689991Y612902D01*
X689991Y601218D01*
X689991Y603390D02*
X684657Y603390D01*
X684657Y605562D02*
X689991Y605562D01*
X689991Y607734D02*
X684657Y607734D01*
X684657Y609906D02*
X689991Y609906D01*
X689991Y612078D02*
X684657Y612078D01*
D12*
X683260Y759460D03*
X708660Y759460D03*
X734060Y759460D03*
X759460Y759460D03*
X784860Y759460D03*
X810260Y759460D03*
X835660Y759460D03*
X861060Y759460D03*
X835660Y530860D03*
X861060Y530860D03*
X708660Y708660D03*
X734060Y708660D03*
X759460Y708660D03*
X784860Y708660D03*
X810260Y708660D03*
X835660Y708660D03*
D13*
X632460Y594360D03*
D12*
X708660Y530860D03*
X683260Y530860D03*
D14*
X915670Y527050D03*
X627380Y764540D03*
D12*
X734060Y530860D03*
X759460Y530860D03*
X784860Y530860D03*
X810260Y530860D03*
D15*
X885848Y667764D02*
X891440Y667764D01*
X885848Y667764D02*
X885848Y679452D01*
X891440Y679452D01*
X891440Y667764D01*
X891440Y669933D02*
X885848Y669933D01*
X885848Y672102D02*
X891440Y672102D01*
X891440Y674271D02*
X885848Y674271D01*
X885848Y676440D02*
X891440Y676440D01*
X891440Y678609D02*
X885848Y678609D01*
X896262Y667764D02*
X901854Y667764D01*
X896262Y667764D02*
X896262Y679452D01*
X901854Y679452D01*
X901854Y667764D01*
X901854Y669933D02*
X896262Y669933D01*
X896262Y672102D02*
X901854Y672102D01*
X901854Y674271D02*
X896262Y674271D01*
X896262Y676440D02*
X901854Y676440D01*
X901854Y678609D02*
X896262Y678609D01*
D10*
X955040Y746760D03*
X1209040Y746760D03*
D11*
X1177823Y616839D02*
X1172489Y616839D01*
X1177823Y616839D02*
X1177823Y605155D01*
X1172489Y605155D01*
X1172489Y616839D01*
X1172489Y607327D02*
X1177823Y607327D01*
X1177823Y609499D02*
X1172489Y609499D01*
X1172489Y611671D02*
X1177823Y611671D01*
X1177823Y613843D02*
X1172489Y613843D01*
X1172489Y616015D02*
X1177823Y616015D01*
X1169695Y616839D02*
X1164361Y616839D01*
X1169695Y616839D02*
X1169695Y605155D01*
X1164361Y605155D01*
X1164361Y616839D01*
X1164361Y607327D02*
X1169695Y607327D01*
X1169695Y609499D02*
X1164361Y609499D01*
X1164361Y611671D02*
X1169695Y611671D01*
X1169695Y613843D02*
X1164361Y613843D01*
X1164361Y616015D02*
X1169695Y616015D01*
X991743Y575818D02*
X986409Y575818D01*
X986409Y587502D01*
X991743Y587502D01*
X991743Y575818D01*
X991743Y577990D02*
X986409Y577990D01*
X986409Y580162D02*
X991743Y580162D01*
X991743Y582334D02*
X986409Y582334D01*
X986409Y584506D02*
X991743Y584506D01*
X991743Y586678D02*
X986409Y586678D01*
X994537Y575818D02*
X999871Y575818D01*
X994537Y575818D02*
X994537Y587502D01*
X999871Y587502D01*
X999871Y575818D01*
X999871Y577990D02*
X994537Y577990D01*
X994537Y580162D02*
X999871Y580162D01*
X999871Y582334D02*
X994537Y582334D01*
X994537Y584506D02*
X999871Y584506D01*
X999871Y586678D02*
X994537Y586678D01*
X991743Y601218D02*
X986409Y601218D01*
X986409Y612902D01*
X991743Y612902D01*
X991743Y601218D01*
X991743Y603390D02*
X986409Y603390D01*
X986409Y605562D02*
X991743Y605562D01*
X991743Y607734D02*
X986409Y607734D01*
X986409Y609906D02*
X991743Y609906D01*
X991743Y612078D02*
X986409Y612078D01*
X994537Y601218D02*
X999871Y601218D01*
X994537Y601218D02*
X994537Y612902D01*
X999871Y612902D01*
X999871Y601218D01*
X999871Y603390D02*
X994537Y603390D01*
X994537Y605562D02*
X999871Y605562D01*
X999871Y607734D02*
X994537Y607734D01*
X994537Y609906D02*
X999871Y609906D01*
X999871Y612078D02*
X994537Y612078D01*
D12*
X993140Y759460D03*
X1018540Y759460D03*
X1043940Y759460D03*
X1069340Y759460D03*
X1094740Y759460D03*
X1120140Y759460D03*
X1145540Y759460D03*
X1170940Y759460D03*
X1145540Y530860D03*
X1170940Y530860D03*
X1018540Y708660D03*
X1043940Y708660D03*
X1069340Y708660D03*
X1094740Y708660D03*
X1120140Y708660D03*
X1145540Y708660D03*
D13*
X942340Y594360D03*
D12*
X1018540Y530860D03*
X993140Y530860D03*
D14*
X1225550Y527050D03*
X937260Y764540D03*
D12*
X1043940Y530860D03*
X1069340Y530860D03*
X1094740Y530860D03*
X1120140Y530860D03*
D15*
X1195728Y667764D02*
X1201320Y667764D01*
X1195728Y667764D02*
X1195728Y679452D01*
X1201320Y679452D01*
X1201320Y667764D01*
X1201320Y669933D02*
X1195728Y669933D01*
X1195728Y672102D02*
X1201320Y672102D01*
X1201320Y674271D02*
X1195728Y674271D01*
X1195728Y676440D02*
X1201320Y676440D01*
X1201320Y678609D02*
X1195728Y678609D01*
X1206142Y667764D02*
X1211734Y667764D01*
X1206142Y667764D02*
X1206142Y679452D01*
X1211734Y679452D01*
X1211734Y667764D01*
X1211734Y669933D02*
X1206142Y669933D01*
X1206142Y672102D02*
X1211734Y672102D01*
X1211734Y674271D02*
X1206142Y674271D01*
X1206142Y676440D02*
X1211734Y676440D01*
X1211734Y678609D02*
X1206142Y678609D01*
D10*
X25400Y1005840D03*
X279400Y1005840D03*
D11*
X248183Y875919D02*
X242849Y875919D01*
X248183Y875919D02*
X248183Y864235D01*
X242849Y864235D01*
X242849Y875919D01*
X242849Y866407D02*
X248183Y866407D01*
X248183Y868579D02*
X242849Y868579D01*
X242849Y870751D02*
X248183Y870751D01*
X248183Y872923D02*
X242849Y872923D01*
X242849Y875095D02*
X248183Y875095D01*
X240055Y875919D02*
X234721Y875919D01*
X240055Y875919D02*
X240055Y864235D01*
X234721Y864235D01*
X234721Y875919D01*
X234721Y866407D02*
X240055Y866407D01*
X240055Y868579D02*
X234721Y868579D01*
X234721Y870751D02*
X240055Y870751D01*
X240055Y872923D02*
X234721Y872923D01*
X234721Y875095D02*
X240055Y875095D01*
X62103Y834898D02*
X56769Y834898D01*
X56769Y846582D01*
X62103Y846582D01*
X62103Y834898D01*
X62103Y837070D02*
X56769Y837070D01*
X56769Y839242D02*
X62103Y839242D01*
X62103Y841414D02*
X56769Y841414D01*
X56769Y843586D02*
X62103Y843586D01*
X62103Y845758D02*
X56769Y845758D01*
X64897Y834898D02*
X70231Y834898D01*
X64897Y834898D02*
X64897Y846582D01*
X70231Y846582D01*
X70231Y834898D01*
X70231Y837070D02*
X64897Y837070D01*
X64897Y839242D02*
X70231Y839242D01*
X70231Y841414D02*
X64897Y841414D01*
X64897Y843586D02*
X70231Y843586D01*
X70231Y845758D02*
X64897Y845758D01*
X62103Y860298D02*
X56769Y860298D01*
X56769Y871982D01*
X62103Y871982D01*
X62103Y860298D01*
X62103Y862470D02*
X56769Y862470D01*
X56769Y864642D02*
X62103Y864642D01*
X62103Y866814D02*
X56769Y866814D01*
X56769Y868986D02*
X62103Y868986D01*
X62103Y871158D02*
X56769Y871158D01*
X64897Y860298D02*
X70231Y860298D01*
X64897Y860298D02*
X64897Y871982D01*
X70231Y871982D01*
X70231Y860298D01*
X70231Y862470D02*
X64897Y862470D01*
X64897Y864642D02*
X70231Y864642D01*
X70231Y866814D02*
X64897Y866814D01*
X64897Y868986D02*
X70231Y868986D01*
X70231Y871158D02*
X64897Y871158D01*
D12*
X63500Y1018540D03*
X88900Y1018540D03*
X114300Y1018540D03*
X139700Y1018540D03*
X165100Y1018540D03*
X190500Y1018540D03*
X215900Y1018540D03*
X241300Y1018540D03*
X215900Y789940D03*
X241300Y789940D03*
X88900Y967740D03*
X114300Y967740D03*
X139700Y967740D03*
X165100Y967740D03*
X190500Y967740D03*
X215900Y967740D03*
D13*
X12700Y853440D03*
D12*
X88900Y789940D03*
X63500Y789940D03*
D14*
X295910Y786130D03*
X7620Y1023620D03*
D12*
X114300Y789940D03*
X139700Y789940D03*
X165100Y789940D03*
X190500Y789940D03*
D15*
X266088Y926844D02*
X271680Y926844D01*
X266088Y926844D02*
X266088Y938532D01*
X271680Y938532D01*
X271680Y926844D01*
X271680Y929013D02*
X266088Y929013D01*
X266088Y931182D02*
X271680Y931182D01*
X271680Y933351D02*
X266088Y933351D01*
X266088Y935520D02*
X271680Y935520D01*
X271680Y937689D02*
X266088Y937689D01*
X276502Y926844D02*
X282094Y926844D01*
X276502Y926844D02*
X276502Y938532D01*
X282094Y938532D01*
X282094Y926844D01*
X282094Y929013D02*
X276502Y929013D01*
X276502Y931182D02*
X282094Y931182D01*
X282094Y933351D02*
X276502Y933351D01*
X276502Y935520D02*
X282094Y935520D01*
X282094Y937689D02*
X276502Y937689D01*
D10*
X335280Y1005840D03*
X589280Y1005840D03*
D11*
X558063Y875919D02*
X552729Y875919D01*
X558063Y875919D02*
X558063Y864235D01*
X552729Y864235D01*
X552729Y875919D01*
X552729Y866407D02*
X558063Y866407D01*
X558063Y868579D02*
X552729Y868579D01*
X552729Y870751D02*
X558063Y870751D01*
X558063Y872923D02*
X552729Y872923D01*
X552729Y875095D02*
X558063Y875095D01*
X549935Y875919D02*
X544601Y875919D01*
X549935Y875919D02*
X549935Y864235D01*
X544601Y864235D01*
X544601Y875919D01*
X544601Y866407D02*
X549935Y866407D01*
X549935Y868579D02*
X544601Y868579D01*
X544601Y870751D02*
X549935Y870751D01*
X549935Y872923D02*
X544601Y872923D01*
X544601Y875095D02*
X549935Y875095D01*
X371983Y834898D02*
X366649Y834898D01*
X366649Y846582D01*
X371983Y846582D01*
X371983Y834898D01*
X371983Y837070D02*
X366649Y837070D01*
X366649Y839242D02*
X371983Y839242D01*
X371983Y841414D02*
X366649Y841414D01*
X366649Y843586D02*
X371983Y843586D01*
X371983Y845758D02*
X366649Y845758D01*
X374777Y834898D02*
X380111Y834898D01*
X374777Y834898D02*
X374777Y846582D01*
X380111Y846582D01*
X380111Y834898D01*
X380111Y837070D02*
X374777Y837070D01*
X374777Y839242D02*
X380111Y839242D01*
X380111Y841414D02*
X374777Y841414D01*
X374777Y843586D02*
X380111Y843586D01*
X380111Y845758D02*
X374777Y845758D01*
X371983Y860298D02*
X366649Y860298D01*
X366649Y871982D01*
X371983Y871982D01*
X371983Y860298D01*
X371983Y862470D02*
X366649Y862470D01*
X366649Y864642D02*
X371983Y864642D01*
X371983Y866814D02*
X366649Y866814D01*
X366649Y868986D02*
X371983Y868986D01*
X371983Y871158D02*
X366649Y871158D01*
X374777Y860298D02*
X380111Y860298D01*
X374777Y860298D02*
X374777Y871982D01*
X380111Y871982D01*
X380111Y860298D01*
X380111Y862470D02*
X374777Y862470D01*
X374777Y864642D02*
X380111Y864642D01*
X380111Y866814D02*
X374777Y866814D01*
X374777Y868986D02*
X380111Y868986D01*
X380111Y871158D02*
X374777Y871158D01*
D12*
X373380Y1018540D03*
X398780Y1018540D03*
X424180Y1018540D03*
X449580Y1018540D03*
X474980Y1018540D03*
X500380Y1018540D03*
X525780Y1018540D03*
X551180Y1018540D03*
X525780Y789940D03*
X551180Y789940D03*
X398780Y967740D03*
X424180Y967740D03*
X449580Y967740D03*
X474980Y967740D03*
X500380Y967740D03*
X525780Y967740D03*
D13*
X322580Y853440D03*
D12*
X398780Y789940D03*
X373380Y789940D03*
D14*
X605790Y786130D03*
X317500Y1023620D03*
D12*
X424180Y789940D03*
X449580Y789940D03*
X474980Y789940D03*
X500380Y789940D03*
D15*
X575968Y926844D02*
X581560Y926844D01*
X575968Y926844D02*
X575968Y938532D01*
X581560Y938532D01*
X581560Y926844D01*
X581560Y929013D02*
X575968Y929013D01*
X575968Y931182D02*
X581560Y931182D01*
X581560Y933351D02*
X575968Y933351D01*
X575968Y935520D02*
X581560Y935520D01*
X581560Y937689D02*
X575968Y937689D01*
X586382Y926844D02*
X591974Y926844D01*
X586382Y926844D02*
X586382Y938532D01*
X591974Y938532D01*
X591974Y926844D01*
X591974Y929013D02*
X586382Y929013D01*
X586382Y931182D02*
X591974Y931182D01*
X591974Y933351D02*
X586382Y933351D01*
X586382Y935520D02*
X591974Y935520D01*
X591974Y937689D02*
X586382Y937689D01*
D10*
X645160Y1005840D03*
X899160Y1005840D03*
D11*
X867943Y875919D02*
X862609Y875919D01*
X867943Y875919D02*
X867943Y864235D01*
X862609Y864235D01*
X862609Y875919D01*
X862609Y866407D02*
X867943Y866407D01*
X867943Y868579D02*
X862609Y868579D01*
X862609Y870751D02*
X867943Y870751D01*
X867943Y872923D02*
X862609Y872923D01*
X862609Y875095D02*
X867943Y875095D01*
X859815Y875919D02*
X854481Y875919D01*
X859815Y875919D02*
X859815Y864235D01*
X854481Y864235D01*
X854481Y875919D01*
X854481Y866407D02*
X859815Y866407D01*
X859815Y868579D02*
X854481Y868579D01*
X854481Y870751D02*
X859815Y870751D01*
X859815Y872923D02*
X854481Y872923D01*
X854481Y875095D02*
X859815Y875095D01*
X681863Y834898D02*
X676529Y834898D01*
X676529Y846582D01*
X681863Y846582D01*
X681863Y834898D01*
X681863Y837070D02*
X676529Y837070D01*
X676529Y839242D02*
X681863Y839242D01*
X681863Y841414D02*
X676529Y841414D01*
X676529Y843586D02*
X681863Y843586D01*
X681863Y845758D02*
X676529Y845758D01*
X684657Y834898D02*
X689991Y834898D01*
X684657Y834898D02*
X684657Y846582D01*
X689991Y846582D01*
X689991Y834898D01*
X689991Y837070D02*
X684657Y837070D01*
X684657Y839242D02*
X689991Y839242D01*
X689991Y841414D02*
X684657Y841414D01*
X684657Y843586D02*
X689991Y843586D01*
X689991Y845758D02*
X684657Y845758D01*
X681863Y860298D02*
X676529Y860298D01*
X676529Y871982D01*
X681863Y871982D01*
X681863Y860298D01*
X681863Y862470D02*
X676529Y862470D01*
X676529Y864642D02*
X681863Y864642D01*
X681863Y866814D02*
X676529Y866814D01*
X676529Y868986D02*
X681863Y868986D01*
X681863Y871158D02*
X676529Y871158D01*
X684657Y860298D02*
X689991Y860298D01*
X684657Y860298D02*
X684657Y871982D01*
X689991Y871982D01*
X689991Y860298D01*
X689991Y862470D02*
X684657Y862470D01*
X684657Y864642D02*
X689991Y864642D01*
X689991Y866814D02*
X684657Y866814D01*
X684657Y868986D02*
X689991Y868986D01*
X689991Y871158D02*
X684657Y871158D01*
D12*
X683260Y1018540D03*
X708660Y1018540D03*
X734060Y1018540D03*
X759460Y1018540D03*
X784860Y1018540D03*
X810260Y1018540D03*
X835660Y1018540D03*
X861060Y1018540D03*
X835660Y789940D03*
X861060Y789940D03*
X708660Y967740D03*
X734060Y967740D03*
X759460Y967740D03*
X784860Y967740D03*
X810260Y967740D03*
X835660Y967740D03*
D13*
X632460Y853440D03*
D12*
X708660Y789940D03*
X683260Y789940D03*
D14*
X915670Y786130D03*
X627380Y1023620D03*
D12*
X734060Y789940D03*
X759460Y789940D03*
X784860Y789940D03*
X810260Y789940D03*
D15*
X885848Y926844D02*
X891440Y926844D01*
X885848Y926844D02*
X885848Y938532D01*
X891440Y938532D01*
X891440Y926844D01*
X891440Y929013D02*
X885848Y929013D01*
X885848Y931182D02*
X891440Y931182D01*
X891440Y933351D02*
X885848Y933351D01*
X885848Y935520D02*
X891440Y935520D01*
X891440Y937689D02*
X885848Y937689D01*
X896262Y926844D02*
X901854Y926844D01*
X896262Y926844D02*
X896262Y938532D01*
X901854Y938532D01*
X901854Y926844D01*
X901854Y929013D02*
X896262Y929013D01*
X896262Y931182D02*
X901854Y931182D01*
X901854Y933351D02*
X896262Y933351D01*
X896262Y935520D02*
X901854Y935520D01*
X901854Y937689D02*
X896262Y937689D01*
D10*
X955040Y1005840D03*
X1209040Y1005840D03*
D11*
X1177823Y875919D02*
X1172489Y875919D01*
X1177823Y875919D02*
X1177823Y864235D01*
X1172489Y864235D01*
X1172489Y875919D01*
X1172489Y866407D02*
X1177823Y866407D01*
X1177823Y868579D02*
X1172489Y868579D01*
X1172489Y870751D02*
X1177823Y870751D01*
X1177823Y872923D02*
X1172489Y872923D01*
X1172489Y875095D02*
X1177823Y875095D01*
X1169695Y875919D02*
X1164361Y875919D01*
X1169695Y875919D02*
X1169695Y864235D01*
X1164361Y864235D01*
X1164361Y875919D01*
X1164361Y866407D02*
X1169695Y866407D01*
X1169695Y868579D02*
X1164361Y868579D01*
X1164361Y870751D02*
X1169695Y870751D01*
X1169695Y872923D02*
X1164361Y872923D01*
X1164361Y875095D02*
X1169695Y875095D01*
X991743Y834898D02*
X986409Y834898D01*
X986409Y846582D01*
X991743Y846582D01*
X991743Y834898D01*
X991743Y837070D02*
X986409Y837070D01*
X986409Y839242D02*
X991743Y839242D01*
X991743Y841414D02*
X986409Y841414D01*
X986409Y843586D02*
X991743Y843586D01*
X991743Y845758D02*
X986409Y845758D01*
X994537Y834898D02*
X999871Y834898D01*
X994537Y834898D02*
X994537Y846582D01*
X999871Y846582D01*
X999871Y834898D01*
X999871Y837070D02*
X994537Y837070D01*
X994537Y839242D02*
X999871Y839242D01*
X999871Y841414D02*
X994537Y841414D01*
X994537Y843586D02*
X999871Y843586D01*
X999871Y845758D02*
X994537Y845758D01*
X991743Y860298D02*
X986409Y860298D01*
X986409Y871982D01*
X991743Y871982D01*
X991743Y860298D01*
X991743Y862470D02*
X986409Y862470D01*
X986409Y864642D02*
X991743Y864642D01*
X991743Y866814D02*
X986409Y866814D01*
X986409Y868986D02*
X991743Y868986D01*
X991743Y871158D02*
X986409Y871158D01*
X994537Y860298D02*
X999871Y860298D01*
X994537Y860298D02*
X994537Y871982D01*
X999871Y871982D01*
X999871Y860298D01*
X999871Y862470D02*
X994537Y862470D01*
X994537Y864642D02*
X999871Y864642D01*
X999871Y866814D02*
X994537Y866814D01*
X994537Y868986D02*
X999871Y868986D01*
X999871Y871158D02*
X994537Y871158D01*
D12*
X993140Y1018540D03*
X1018540Y1018540D03*
X1043940Y1018540D03*
X1069340Y1018540D03*
X1094740Y1018540D03*
X1120140Y1018540D03*
X1145540Y1018540D03*
X1170940Y1018540D03*
X1145540Y789940D03*
X1170940Y789940D03*
X1018540Y967740D03*
X1043940Y967740D03*
X1069340Y967740D03*
X1094740Y967740D03*
X1120140Y967740D03*
X1145540Y967740D03*
D13*
X942340Y853440D03*
D12*
X1018540Y789940D03*
X993140Y789940D03*
D14*
X1225550Y786130D03*
X937260Y1023620D03*
D12*
X1043940Y789940D03*
X1069340Y789940D03*
X1094740Y789940D03*
X1120140Y789940D03*
D15*
X1195728Y926844D02*
X1201320Y926844D01*
X1195728Y926844D02*
X1195728Y938532D01*
X1201320Y938532D01*
X1201320Y926844D01*
X1201320Y929013D02*
X1195728Y929013D01*
X1195728Y931182D02*
X1201320Y931182D01*
X1201320Y933351D02*
X1195728Y933351D01*
X1195728Y935520D02*
X1201320Y935520D01*
X1201320Y937689D02*
X1195728Y937689D01*
X1206142Y926844D02*
X1211734Y926844D01*
X1206142Y926844D02*
X1206142Y938532D01*
X1211734Y938532D01*
X1211734Y926844D01*
X1211734Y929013D02*
X1206142Y929013D01*
X1206142Y931182D02*
X1211734Y931182D01*
X1211734Y933351D02*
X1206142Y933351D01*
X1206142Y935520D02*
X1211734Y935520D01*
X1211734Y937689D02*
X1206142Y937689D01*
D10*
X25400Y1264920D03*
X279400Y1264920D03*
D11*
X248183Y1134999D02*
X242849Y1134999D01*
X248183Y1134999D02*
X248183Y1123315D01*
X242849Y1123315D01*
X242849Y1134999D01*
X242849Y1125487D02*
X248183Y1125487D01*
X248183Y1127659D02*
X242849Y1127659D01*
X242849Y1129831D02*
X248183Y1129831D01*
X248183Y1132003D02*
X242849Y1132003D01*
X242849Y1134175D02*
X248183Y1134175D01*
X240055Y1134999D02*
X234721Y1134999D01*
X240055Y1134999D02*
X240055Y1123315D01*
X234721Y1123315D01*
X234721Y1134999D01*
X234721Y1125487D02*
X240055Y1125487D01*
X240055Y1127659D02*
X234721Y1127659D01*
X234721Y1129831D02*
X240055Y1129831D01*
X240055Y1132003D02*
X234721Y1132003D01*
X234721Y1134175D02*
X240055Y1134175D01*
X62103Y1093978D02*
X56769Y1093978D01*
X56769Y1105662D01*
X62103Y1105662D01*
X62103Y1093978D01*
X62103Y1096150D02*
X56769Y1096150D01*
X56769Y1098322D02*
X62103Y1098322D01*
X62103Y1100494D02*
X56769Y1100494D01*
X56769Y1102666D02*
X62103Y1102666D01*
X62103Y1104838D02*
X56769Y1104838D01*
X64897Y1093978D02*
X70231Y1093978D01*
X64897Y1093978D02*
X64897Y1105662D01*
X70231Y1105662D01*
X70231Y1093978D01*
X70231Y1096150D02*
X64897Y1096150D01*
X64897Y1098322D02*
X70231Y1098322D01*
X70231Y1100494D02*
X64897Y1100494D01*
X64897Y1102666D02*
X70231Y1102666D01*
X70231Y1104838D02*
X64897Y1104838D01*
X62103Y1119378D02*
X56769Y1119378D01*
X56769Y1131062D01*
X62103Y1131062D01*
X62103Y1119378D01*
X62103Y1121550D02*
X56769Y1121550D01*
X56769Y1123722D02*
X62103Y1123722D01*
X62103Y1125894D02*
X56769Y1125894D01*
X56769Y1128066D02*
X62103Y1128066D01*
X62103Y1130238D02*
X56769Y1130238D01*
X64897Y1119378D02*
X70231Y1119378D01*
X64897Y1119378D02*
X64897Y1131062D01*
X70231Y1131062D01*
X70231Y1119378D01*
X70231Y1121550D02*
X64897Y1121550D01*
X64897Y1123722D02*
X70231Y1123722D01*
X70231Y1125894D02*
X64897Y1125894D01*
X64897Y1128066D02*
X70231Y1128066D01*
X70231Y1130238D02*
X64897Y1130238D01*
D12*
X63500Y1277620D03*
X88900Y1277620D03*
X114300Y1277620D03*
X139700Y1277620D03*
X165100Y1277620D03*
X190500Y1277620D03*
X215900Y1277620D03*
X241300Y1277620D03*
X215900Y1049020D03*
X241300Y1049020D03*
X88900Y1226820D03*
X114300Y1226820D03*
X139700Y1226820D03*
X165100Y1226820D03*
X190500Y1226820D03*
X215900Y1226820D03*
D13*
X12700Y1112520D03*
D12*
X88900Y1049020D03*
X63500Y1049020D03*
D14*
X295910Y1045210D03*
X7620Y1282700D03*
D12*
X114300Y1049020D03*
X139700Y1049020D03*
X165100Y1049020D03*
X190500Y1049020D03*
D15*
X266088Y1185924D02*
X271680Y1185924D01*
X266088Y1185924D02*
X266088Y1197612D01*
X271680Y1197612D01*
X271680Y1185924D01*
X271680Y1188093D02*
X266088Y1188093D01*
X266088Y1190262D02*
X271680Y1190262D01*
X271680Y1192431D02*
X266088Y1192431D01*
X266088Y1194600D02*
X271680Y1194600D01*
X271680Y1196769D02*
X266088Y1196769D01*
X276502Y1185924D02*
X282094Y1185924D01*
X276502Y1185924D02*
X276502Y1197612D01*
X282094Y1197612D01*
X282094Y1185924D01*
X282094Y1188093D02*
X276502Y1188093D01*
X276502Y1190262D02*
X282094Y1190262D01*
X282094Y1192431D02*
X276502Y1192431D01*
X276502Y1194600D02*
X282094Y1194600D01*
X282094Y1196769D02*
X276502Y1196769D01*
D10*
X335280Y1264920D03*
X589280Y1264920D03*
D11*
X558063Y1134999D02*
X552729Y1134999D01*
X558063Y1134999D02*
X558063Y1123315D01*
X552729Y1123315D01*
X552729Y1134999D01*
X552729Y1125487D02*
X558063Y1125487D01*
X558063Y1127659D02*
X552729Y1127659D01*
X552729Y1129831D02*
X558063Y1129831D01*
X558063Y1132003D02*
X552729Y1132003D01*
X552729Y1134175D02*
X558063Y1134175D01*
X549935Y1134999D02*
X544601Y1134999D01*
X549935Y1134999D02*
X549935Y1123315D01*
X544601Y1123315D01*
X544601Y1134999D01*
X544601Y1125487D02*
X549935Y1125487D01*
X549935Y1127659D02*
X544601Y1127659D01*
X544601Y1129831D02*
X549935Y1129831D01*
X549935Y1132003D02*
X544601Y1132003D01*
X544601Y1134175D02*
X549935Y1134175D01*
X371983Y1093978D02*
X366649Y1093978D01*
X366649Y1105662D01*
X371983Y1105662D01*
X371983Y1093978D01*
X371983Y1096150D02*
X366649Y1096150D01*
X366649Y1098322D02*
X371983Y1098322D01*
X371983Y1100494D02*
X366649Y1100494D01*
X366649Y1102666D02*
X371983Y1102666D01*
X371983Y1104838D02*
X366649Y1104838D01*
X374777Y1093978D02*
X380111Y1093978D01*
X374777Y1093978D02*
X374777Y1105662D01*
X380111Y1105662D01*
X380111Y1093978D01*
X380111Y1096150D02*
X374777Y1096150D01*
X374777Y1098322D02*
X380111Y1098322D01*
X380111Y1100494D02*
X374777Y1100494D01*
X374777Y1102666D02*
X380111Y1102666D01*
X380111Y1104838D02*
X374777Y1104838D01*
X371983Y1119378D02*
X366649Y1119378D01*
X366649Y1131062D01*
X371983Y1131062D01*
X371983Y1119378D01*
X371983Y1121550D02*
X366649Y1121550D01*
X366649Y1123722D02*
X371983Y1123722D01*
X371983Y1125894D02*
X366649Y1125894D01*
X366649Y1128066D02*
X371983Y1128066D01*
X371983Y1130238D02*
X366649Y1130238D01*
X374777Y1119378D02*
X380111Y1119378D01*
X374777Y1119378D02*
X374777Y1131062D01*
X380111Y1131062D01*
X380111Y1119378D01*
X380111Y1121550D02*
X374777Y1121550D01*
X374777Y1123722D02*
X380111Y1123722D01*
X380111Y1125894D02*
X374777Y1125894D01*
X374777Y1128066D02*
X380111Y1128066D01*
X380111Y1130238D02*
X374777Y1130238D01*
D12*
X373380Y1277620D03*
X398780Y1277620D03*
X424180Y1277620D03*
X449580Y1277620D03*
X474980Y1277620D03*
X500380Y1277620D03*
X525780Y1277620D03*
X551180Y1277620D03*
X525780Y1049020D03*
X551180Y1049020D03*
X398780Y1226820D03*
X424180Y1226820D03*
X449580Y1226820D03*
X474980Y1226820D03*
X500380Y1226820D03*
X525780Y1226820D03*
D13*
X322580Y1112520D03*
D12*
X398780Y1049020D03*
X373380Y1049020D03*
D14*
X605790Y1045210D03*
X317500Y1282700D03*
D12*
X424180Y1049020D03*
X449580Y1049020D03*
X474980Y1049020D03*
X500380Y1049020D03*
D15*
X575968Y1185924D02*
X581560Y1185924D01*
X575968Y1185924D02*
X575968Y1197612D01*
X581560Y1197612D01*
X581560Y1185924D01*
X581560Y1188093D02*
X575968Y1188093D01*
X575968Y1190262D02*
X581560Y1190262D01*
X581560Y1192431D02*
X575968Y1192431D01*
X575968Y1194600D02*
X581560Y1194600D01*
X581560Y1196769D02*
X575968Y1196769D01*
X586382Y1185924D02*
X591974Y1185924D01*
X586382Y1185924D02*
X586382Y1197612D01*
X591974Y1197612D01*
X591974Y1185924D01*
X591974Y1188093D02*
X586382Y1188093D01*
X586382Y1190262D02*
X591974Y1190262D01*
X591974Y1192431D02*
X586382Y1192431D01*
X586382Y1194600D02*
X591974Y1194600D01*
X591974Y1196769D02*
X586382Y1196769D01*
D10*
X645160Y1264920D03*
X899160Y1264920D03*
D11*
X867943Y1134999D02*
X862609Y1134999D01*
X867943Y1134999D02*
X867943Y1123315D01*
X862609Y1123315D01*
X862609Y1134999D01*
X862609Y1125487D02*
X867943Y1125487D01*
X867943Y1127659D02*
X862609Y1127659D01*
X862609Y1129831D02*
X867943Y1129831D01*
X867943Y1132003D02*
X862609Y1132003D01*
X862609Y1134175D02*
X867943Y1134175D01*
X859815Y1134999D02*
X854481Y1134999D01*
X859815Y1134999D02*
X859815Y1123315D01*
X854481Y1123315D01*
X854481Y1134999D01*
X854481Y1125487D02*
X859815Y1125487D01*
X859815Y1127659D02*
X854481Y1127659D01*
X854481Y1129831D02*
X859815Y1129831D01*
X859815Y1132003D02*
X854481Y1132003D01*
X854481Y1134175D02*
X859815Y1134175D01*
X681863Y1093978D02*
X676529Y1093978D01*
X676529Y1105662D01*
X681863Y1105662D01*
X681863Y1093978D01*
X681863Y1096150D02*
X676529Y1096150D01*
X676529Y1098322D02*
X681863Y1098322D01*
X681863Y1100494D02*
X676529Y1100494D01*
X676529Y1102666D02*
X681863Y1102666D01*
X681863Y1104838D02*
X676529Y1104838D01*
X684657Y1093978D02*
X689991Y1093978D01*
X684657Y1093978D02*
X684657Y1105662D01*
X689991Y1105662D01*
X689991Y1093978D01*
X689991Y1096150D02*
X684657Y1096150D01*
X684657Y1098322D02*
X689991Y1098322D01*
X689991Y1100494D02*
X684657Y1100494D01*
X684657Y1102666D02*
X689991Y1102666D01*
X689991Y1104838D02*
X684657Y1104838D01*
X681863Y1119378D02*
X676529Y1119378D01*
X676529Y1131062D01*
X681863Y1131062D01*
X681863Y1119378D01*
X681863Y1121550D02*
X676529Y1121550D01*
X676529Y1123722D02*
X681863Y1123722D01*
X681863Y1125894D02*
X676529Y1125894D01*
X676529Y1128066D02*
X681863Y1128066D01*
X681863Y1130238D02*
X676529Y1130238D01*
X684657Y1119378D02*
X689991Y1119378D01*
X684657Y1119378D02*
X684657Y1131062D01*
X689991Y1131062D01*
X689991Y1119378D01*
X689991Y1121550D02*
X684657Y1121550D01*
X684657Y1123722D02*
X689991Y1123722D01*
X689991Y1125894D02*
X684657Y1125894D01*
X684657Y1128066D02*
X689991Y1128066D01*
X689991Y1130238D02*
X684657Y1130238D01*
D12*
X683260Y1277620D03*
X708660Y1277620D03*
X734060Y1277620D03*
X759460Y1277620D03*
X784860Y1277620D03*
X810260Y1277620D03*
X835660Y1277620D03*
X861060Y1277620D03*
X835660Y1049020D03*
X861060Y1049020D03*
X708660Y1226820D03*
X734060Y1226820D03*
X759460Y1226820D03*
X784860Y1226820D03*
X810260Y1226820D03*
X835660Y1226820D03*
D13*
X632460Y1112520D03*
D12*
X708660Y1049020D03*
X683260Y1049020D03*
D14*
X915670Y1045210D03*
X627380Y1282700D03*
D12*
X734060Y1049020D03*
X759460Y1049020D03*
X784860Y1049020D03*
X810260Y1049020D03*
D15*
X885848Y1185924D02*
X891440Y1185924D01*
X885848Y1185924D02*
X885848Y1197612D01*
X891440Y1197612D01*
X891440Y1185924D01*
X891440Y1188093D02*
X885848Y1188093D01*
X885848Y1190262D02*
X891440Y1190262D01*
X891440Y1192431D02*
X885848Y1192431D01*
X885848Y1194600D02*
X891440Y1194600D01*
X891440Y1196769D02*
X885848Y1196769D01*
X896262Y1185924D02*
X901854Y1185924D01*
X896262Y1185924D02*
X896262Y1197612D01*
X901854Y1197612D01*
X901854Y1185924D01*
X901854Y1188093D02*
X896262Y1188093D01*
X896262Y1190262D02*
X901854Y1190262D01*
X901854Y1192431D02*
X896262Y1192431D01*
X896262Y1194600D02*
X901854Y1194600D01*
X901854Y1196769D02*
X896262Y1196769D01*
D10*
X955040Y1264920D03*
X1209040Y1264920D03*
D11*
X1177823Y1134999D02*
X1172489Y1134999D01*
X1177823Y1134999D02*
X1177823Y1123315D01*
X1172489Y1123315D01*
X1172489Y1134999D01*
X1172489Y1125487D02*
X1177823Y1125487D01*
X1177823Y1127659D02*
X1172489Y1127659D01*
X1172489Y1129831D02*
X1177823Y1129831D01*
X1177823Y1132003D02*
X1172489Y1132003D01*
X1172489Y1134175D02*
X1177823Y1134175D01*
X1169695Y1134999D02*
X1164361Y1134999D01*
X1169695Y1134999D02*
X1169695Y1123315D01*
X1164361Y1123315D01*
X1164361Y1134999D01*
X1164361Y1125487D02*
X1169695Y1125487D01*
X1169695Y1127659D02*
X1164361Y1127659D01*
X1164361Y1129831D02*
X1169695Y1129831D01*
X1169695Y1132003D02*
X1164361Y1132003D01*
X1164361Y1134175D02*
X1169695Y1134175D01*
X991743Y1093978D02*
X986409Y1093978D01*
X986409Y1105662D01*
X991743Y1105662D01*
X991743Y1093978D01*
X991743Y1096150D02*
X986409Y1096150D01*
X986409Y1098322D02*
X991743Y1098322D01*
X991743Y1100494D02*
X986409Y1100494D01*
X986409Y1102666D02*
X991743Y1102666D01*
X991743Y1104838D02*
X986409Y1104838D01*
X994537Y1093978D02*
X999871Y1093978D01*
X994537Y1093978D02*
X994537Y1105662D01*
X999871Y1105662D01*
X999871Y1093978D01*
X999871Y1096150D02*
X994537Y1096150D01*
X994537Y1098322D02*
X999871Y1098322D01*
X999871Y1100494D02*
X994537Y1100494D01*
X994537Y1102666D02*
X999871Y1102666D01*
X999871Y1104838D02*
X994537Y1104838D01*
X991743Y1119378D02*
X986409Y1119378D01*
X986409Y1131062D01*
X991743Y1131062D01*
X991743Y1119378D01*
X991743Y1121550D02*
X986409Y1121550D01*
X986409Y1123722D02*
X991743Y1123722D01*
X991743Y1125894D02*
X986409Y1125894D01*
X986409Y1128066D02*
X991743Y1128066D01*
X991743Y1130238D02*
X986409Y1130238D01*
X994537Y1119378D02*
X999871Y1119378D01*
X994537Y1119378D02*
X994537Y1131062D01*
X999871Y1131062D01*
X999871Y1119378D01*
X999871Y1121550D02*
X994537Y1121550D01*
X994537Y1123722D02*
X999871Y1123722D01*
X999871Y1125894D02*
X994537Y1125894D01*
X994537Y1128066D02*
X999871Y1128066D01*
X999871Y1130238D02*
X994537Y1130238D01*
D12*
X993140Y1277620D03*
X1018540Y1277620D03*
X1043940Y1277620D03*
X1069340Y1277620D03*
X1094740Y1277620D03*
X1120140Y1277620D03*
X1145540Y1277620D03*
X1170940Y1277620D03*
X1145540Y1049020D03*
X1170940Y1049020D03*
X1018540Y1226820D03*
X1043940Y1226820D03*
X1069340Y1226820D03*
X1094740Y1226820D03*
X1120140Y1226820D03*
X1145540Y1226820D03*
D13*
X942340Y1112520D03*
D12*
X1018540Y1049020D03*
X993140Y1049020D03*
D14*
X1225550Y1045210D03*
X937260Y1282700D03*
D12*
X1043940Y1049020D03*
X1069340Y1049020D03*
X1094740Y1049020D03*
X1120140Y1049020D03*
D15*
X1195728Y1185924D02*
X1201320Y1185924D01*
X1195728Y1185924D02*
X1195728Y1197612D01*
X1201320Y1197612D01*
X1201320Y1185924D01*
X1201320Y1188093D02*
X1195728Y1188093D01*
X1195728Y1190262D02*
X1201320Y1190262D01*
X1201320Y1192431D02*
X1195728Y1192431D01*
X1195728Y1194600D02*
X1201320Y1194600D01*
X1201320Y1196769D02*
X1195728Y1196769D01*
X1206142Y1185924D02*
X1211734Y1185924D01*
X1206142Y1185924D02*
X1206142Y1197612D01*
X1211734Y1197612D01*
X1211734Y1185924D01*
X1211734Y1188093D02*
X1206142Y1188093D01*
X1206142Y1190262D02*
X1211734Y1190262D01*
X1211734Y1192431D02*
X1206142Y1192431D01*
X1206142Y1194600D02*
X1211734Y1194600D01*
X1211734Y1196769D02*
X1206142Y1196769D01*
D10*
X25400Y1524000D03*
X279400Y1524000D03*
D11*
X248183Y1394079D02*
X242849Y1394079D01*
X248183Y1394079D02*
X248183Y1382395D01*
X242849Y1382395D01*
X242849Y1394079D01*
X242849Y1384567D02*
X248183Y1384567D01*
X248183Y1386739D02*
X242849Y1386739D01*
X242849Y1388911D02*
X248183Y1388911D01*
X248183Y1391083D02*
X242849Y1391083D01*
X242849Y1393255D02*
X248183Y1393255D01*
X240055Y1394079D02*
X234721Y1394079D01*
X240055Y1394079D02*
X240055Y1382395D01*
X234721Y1382395D01*
X234721Y1394079D01*
X234721Y1384567D02*
X240055Y1384567D01*
X240055Y1386739D02*
X234721Y1386739D01*
X234721Y1388911D02*
X240055Y1388911D01*
X240055Y1391083D02*
X234721Y1391083D01*
X234721Y1393255D02*
X240055Y1393255D01*
X62103Y1353058D02*
X56769Y1353058D01*
X56769Y1364742D01*
X62103Y1364742D01*
X62103Y1353058D01*
X62103Y1355230D02*
X56769Y1355230D01*
X56769Y1357402D02*
X62103Y1357402D01*
X62103Y1359574D02*
X56769Y1359574D01*
X56769Y1361746D02*
X62103Y1361746D01*
X62103Y1363918D02*
X56769Y1363918D01*
X64897Y1353058D02*
X70231Y1353058D01*
X64897Y1353058D02*
X64897Y1364742D01*
X70231Y1364742D01*
X70231Y1353058D01*
X70231Y1355230D02*
X64897Y1355230D01*
X64897Y1357402D02*
X70231Y1357402D01*
X70231Y1359574D02*
X64897Y1359574D01*
X64897Y1361746D02*
X70231Y1361746D01*
X70231Y1363918D02*
X64897Y1363918D01*
X62103Y1378458D02*
X56769Y1378458D01*
X56769Y1390142D01*
X62103Y1390142D01*
X62103Y1378458D01*
X62103Y1380630D02*
X56769Y1380630D01*
X56769Y1382802D02*
X62103Y1382802D01*
X62103Y1384974D02*
X56769Y1384974D01*
X56769Y1387146D02*
X62103Y1387146D01*
X62103Y1389318D02*
X56769Y1389318D01*
X64897Y1378458D02*
X70231Y1378458D01*
X64897Y1378458D02*
X64897Y1390142D01*
X70231Y1390142D01*
X70231Y1378458D01*
X70231Y1380630D02*
X64897Y1380630D01*
X64897Y1382802D02*
X70231Y1382802D01*
X70231Y1384974D02*
X64897Y1384974D01*
X64897Y1387146D02*
X70231Y1387146D01*
X70231Y1389318D02*
X64897Y1389318D01*
D12*
X63500Y1536700D03*
X88900Y1536700D03*
X114300Y1536700D03*
X139700Y1536700D03*
X165100Y1536700D03*
X190500Y1536700D03*
X215900Y1536700D03*
X241300Y1536700D03*
X215900Y1308100D03*
X241300Y1308100D03*
X88900Y1485900D03*
X114300Y1485900D03*
X139700Y1485900D03*
X165100Y1485900D03*
X190500Y1485900D03*
X215900Y1485900D03*
D13*
X12700Y1371600D03*
D12*
X88900Y1308100D03*
X63500Y1308100D03*
D14*
X295910Y1304290D03*
X7620Y1541780D03*
D12*
X114300Y1308100D03*
X139700Y1308100D03*
X165100Y1308100D03*
X190500Y1308100D03*
D15*
X266088Y1445004D02*
X271680Y1445004D01*
X266088Y1445004D02*
X266088Y1456692D01*
X271680Y1456692D01*
X271680Y1445004D01*
X271680Y1447173D02*
X266088Y1447173D01*
X266088Y1449342D02*
X271680Y1449342D01*
X271680Y1451511D02*
X266088Y1451511D01*
X266088Y1453680D02*
X271680Y1453680D01*
X271680Y1455849D02*
X266088Y1455849D01*
X276502Y1445004D02*
X282094Y1445004D01*
X276502Y1445004D02*
X276502Y1456692D01*
X282094Y1456692D01*
X282094Y1445004D01*
X282094Y1447173D02*
X276502Y1447173D01*
X276502Y1449342D02*
X282094Y1449342D01*
X282094Y1451511D02*
X276502Y1451511D01*
X276502Y1453680D02*
X282094Y1453680D01*
X282094Y1455849D02*
X276502Y1455849D01*
D10*
X335280Y1524000D03*
X589280Y1524000D03*
D11*
X558063Y1394079D02*
X552729Y1394079D01*
X558063Y1394079D02*
X558063Y1382395D01*
X552729Y1382395D01*
X552729Y1394079D01*
X552729Y1384567D02*
X558063Y1384567D01*
X558063Y1386739D02*
X552729Y1386739D01*
X552729Y1388911D02*
X558063Y1388911D01*
X558063Y1391083D02*
X552729Y1391083D01*
X552729Y1393255D02*
X558063Y1393255D01*
X549935Y1394079D02*
X544601Y1394079D01*
X549935Y1394079D02*
X549935Y1382395D01*
X544601Y1382395D01*
X544601Y1394079D01*
X544601Y1384567D02*
X549935Y1384567D01*
X549935Y1386739D02*
X544601Y1386739D01*
X544601Y1388911D02*
X549935Y1388911D01*
X549935Y1391083D02*
X544601Y1391083D01*
X544601Y1393255D02*
X549935Y1393255D01*
X371983Y1353058D02*
X366649Y1353058D01*
X366649Y1364742D01*
X371983Y1364742D01*
X371983Y1353058D01*
X371983Y1355230D02*
X366649Y1355230D01*
X366649Y1357402D02*
X371983Y1357402D01*
X371983Y1359574D02*
X366649Y1359574D01*
X366649Y1361746D02*
X371983Y1361746D01*
X371983Y1363918D02*
X366649Y1363918D01*
X374777Y1353058D02*
X380111Y1353058D01*
X374777Y1353058D02*
X374777Y1364742D01*
X380111Y1364742D01*
X380111Y1353058D01*
X380111Y1355230D02*
X374777Y1355230D01*
X374777Y1357402D02*
X380111Y1357402D01*
X380111Y1359574D02*
X374777Y1359574D01*
X374777Y1361746D02*
X380111Y1361746D01*
X380111Y1363918D02*
X374777Y1363918D01*
X371983Y1378458D02*
X366649Y1378458D01*
X366649Y1390142D01*
X371983Y1390142D01*
X371983Y1378458D01*
X371983Y1380630D02*
X366649Y1380630D01*
X366649Y1382802D02*
X371983Y1382802D01*
X371983Y1384974D02*
X366649Y1384974D01*
X366649Y1387146D02*
X371983Y1387146D01*
X371983Y1389318D02*
X366649Y1389318D01*
X374777Y1378458D02*
X380111Y1378458D01*
X374777Y1378458D02*
X374777Y1390142D01*
X380111Y1390142D01*
X380111Y1378458D01*
X380111Y1380630D02*
X374777Y1380630D01*
X374777Y1382802D02*
X380111Y1382802D01*
X380111Y1384974D02*
X374777Y1384974D01*
X374777Y1387146D02*
X380111Y1387146D01*
X380111Y1389318D02*
X374777Y1389318D01*
D12*
X373380Y1536700D03*
X398780Y1536700D03*
X424180Y1536700D03*
X449580Y1536700D03*
X474980Y1536700D03*
X500380Y1536700D03*
X525780Y1536700D03*
X551180Y1536700D03*
X525780Y1308100D03*
X551180Y1308100D03*
X398780Y1485900D03*
X424180Y1485900D03*
X449580Y1485900D03*
X474980Y1485900D03*
X500380Y1485900D03*
X525780Y1485900D03*
D13*
X322580Y1371600D03*
D12*
X398780Y1308100D03*
X373380Y1308100D03*
D14*
X605790Y1304290D03*
X317500Y1541780D03*
D12*
X424180Y1308100D03*
X449580Y1308100D03*
X474980Y1308100D03*
X500380Y1308100D03*
D15*
X575968Y1445004D02*
X581560Y1445004D01*
X575968Y1445004D02*
X575968Y1456692D01*
X581560Y1456692D01*
X581560Y1445004D01*
X581560Y1447173D02*
X575968Y1447173D01*
X575968Y1449342D02*
X581560Y1449342D01*
X581560Y1451511D02*
X575968Y1451511D01*
X575968Y1453680D02*
X581560Y1453680D01*
X581560Y1455849D02*
X575968Y1455849D01*
X586382Y1445004D02*
X591974Y1445004D01*
X586382Y1445004D02*
X586382Y1456692D01*
X591974Y1456692D01*
X591974Y1445004D01*
X591974Y1447173D02*
X586382Y1447173D01*
X586382Y1449342D02*
X591974Y1449342D01*
X591974Y1451511D02*
X586382Y1451511D01*
X586382Y1453680D02*
X591974Y1453680D01*
X591974Y1455849D02*
X586382Y1455849D01*
D10*
X645160Y1524000D03*
X899160Y1524000D03*
D11*
X867943Y1394079D02*
X862609Y1394079D01*
X867943Y1394079D02*
X867943Y1382395D01*
X862609Y1382395D01*
X862609Y1394079D01*
X862609Y1384567D02*
X867943Y1384567D01*
X867943Y1386739D02*
X862609Y1386739D01*
X862609Y1388911D02*
X867943Y1388911D01*
X867943Y1391083D02*
X862609Y1391083D01*
X862609Y1393255D02*
X867943Y1393255D01*
X859815Y1394079D02*
X854481Y1394079D01*
X859815Y1394079D02*
X859815Y1382395D01*
X854481Y1382395D01*
X854481Y1394079D01*
X854481Y1384567D02*
X859815Y1384567D01*
X859815Y1386739D02*
X854481Y1386739D01*
X854481Y1388911D02*
X859815Y1388911D01*
X859815Y1391083D02*
X854481Y1391083D01*
X854481Y1393255D02*
X859815Y1393255D01*
X681863Y1353058D02*
X676529Y1353058D01*
X676529Y1364742D01*
X681863Y1364742D01*
X681863Y1353058D01*
X681863Y1355230D02*
X676529Y1355230D01*
X676529Y1357402D02*
X681863Y1357402D01*
X681863Y1359574D02*
X676529Y1359574D01*
X676529Y1361746D02*
X681863Y1361746D01*
X681863Y1363918D02*
X676529Y1363918D01*
X684657Y1353058D02*
X689991Y1353058D01*
X684657Y1353058D02*
X684657Y1364742D01*
X689991Y1364742D01*
X689991Y1353058D01*
X689991Y1355230D02*
X684657Y1355230D01*
X684657Y1357402D02*
X689991Y1357402D01*
X689991Y1359574D02*
X684657Y1359574D01*
X684657Y1361746D02*
X689991Y1361746D01*
X689991Y1363918D02*
X684657Y1363918D01*
X681863Y1378458D02*
X676529Y1378458D01*
X676529Y1390142D01*
X681863Y1390142D01*
X681863Y1378458D01*
X681863Y1380630D02*
X676529Y1380630D01*
X676529Y1382802D02*
X681863Y1382802D01*
X681863Y1384974D02*
X676529Y1384974D01*
X676529Y1387146D02*
X681863Y1387146D01*
X681863Y1389318D02*
X676529Y1389318D01*
X684657Y1378458D02*
X689991Y1378458D01*
X684657Y1378458D02*
X684657Y1390142D01*
X689991Y1390142D01*
X689991Y1378458D01*
X689991Y1380630D02*
X684657Y1380630D01*
X684657Y1382802D02*
X689991Y1382802D01*
X689991Y1384974D02*
X684657Y1384974D01*
X684657Y1387146D02*
X689991Y1387146D01*
X689991Y1389318D02*
X684657Y1389318D01*
D12*
X683260Y1536700D03*
X708660Y1536700D03*
X734060Y1536700D03*
X759460Y1536700D03*
X784860Y1536700D03*
X810260Y1536700D03*
X835660Y1536700D03*
X861060Y1536700D03*
X835660Y1308100D03*
X861060Y1308100D03*
X708660Y1485900D03*
X734060Y1485900D03*
X759460Y1485900D03*
X784860Y1485900D03*
X810260Y1485900D03*
X835660Y1485900D03*
D13*
X632460Y1371600D03*
D12*
X708660Y1308100D03*
X683260Y1308100D03*
D14*
X915670Y1304290D03*
X627380Y1541780D03*
D12*
X734060Y1308100D03*
X759460Y1308100D03*
X784860Y1308100D03*
X810260Y1308100D03*
D15*
X885848Y1445004D02*
X891440Y1445004D01*
X885848Y1445004D02*
X885848Y1456692D01*
X891440Y1456692D01*
X891440Y1445004D01*
X891440Y1447173D02*
X885848Y1447173D01*
X885848Y1449342D02*
X891440Y1449342D01*
X891440Y1451511D02*
X885848Y1451511D01*
X885848Y1453680D02*
X891440Y1453680D01*
X891440Y1455849D02*
X885848Y1455849D01*
X896262Y1445004D02*
X901854Y1445004D01*
X896262Y1445004D02*
X896262Y1456692D01*
X901854Y1456692D01*
X901854Y1445004D01*
X901854Y1447173D02*
X896262Y1447173D01*
X896262Y1449342D02*
X901854Y1449342D01*
X901854Y1451511D02*
X896262Y1451511D01*
X896262Y1453680D02*
X901854Y1453680D01*
X901854Y1455849D02*
X896262Y1455849D01*
D10*
X955040Y1524000D03*
X1209040Y1524000D03*
D11*
X1177823Y1394079D02*
X1172489Y1394079D01*
X1177823Y1394079D02*
X1177823Y1382395D01*
X1172489Y1382395D01*
X1172489Y1394079D01*
X1172489Y1384567D02*
X1177823Y1384567D01*
X1177823Y1386739D02*
X1172489Y1386739D01*
X1172489Y1388911D02*
X1177823Y1388911D01*
X1177823Y1391083D02*
X1172489Y1391083D01*
X1172489Y1393255D02*
X1177823Y1393255D01*
X1169695Y1394079D02*
X1164361Y1394079D01*
X1169695Y1394079D02*
X1169695Y1382395D01*
X1164361Y1382395D01*
X1164361Y1394079D01*
X1164361Y1384567D02*
X1169695Y1384567D01*
X1169695Y1386739D02*
X1164361Y1386739D01*
X1164361Y1388911D02*
X1169695Y1388911D01*
X1169695Y1391083D02*
X1164361Y1391083D01*
X1164361Y1393255D02*
X1169695Y1393255D01*
X991743Y1353058D02*
X986409Y1353058D01*
X986409Y1364742D01*
X991743Y1364742D01*
X991743Y1353058D01*
X991743Y1355230D02*
X986409Y1355230D01*
X986409Y1357402D02*
X991743Y1357402D01*
X991743Y1359574D02*
X986409Y1359574D01*
X986409Y1361746D02*
X991743Y1361746D01*
X991743Y1363918D02*
X986409Y1363918D01*
X994537Y1353058D02*
X999871Y1353058D01*
X994537Y1353058D02*
X994537Y1364742D01*
X999871Y1364742D01*
X999871Y1353058D01*
X999871Y1355230D02*
X994537Y1355230D01*
X994537Y1357402D02*
X999871Y1357402D01*
X999871Y1359574D02*
X994537Y1359574D01*
X994537Y1361746D02*
X999871Y1361746D01*
X999871Y1363918D02*
X994537Y1363918D01*
X991743Y1378458D02*
X986409Y1378458D01*
X986409Y1390142D01*
X991743Y1390142D01*
X991743Y1378458D01*
X991743Y1380630D02*
X986409Y1380630D01*
X986409Y1382802D02*
X991743Y1382802D01*
X991743Y1384974D02*
X986409Y1384974D01*
X986409Y1387146D02*
X991743Y1387146D01*
X991743Y1389318D02*
X986409Y1389318D01*
X994537Y1378458D02*
X999871Y1378458D01*
X994537Y1378458D02*
X994537Y1390142D01*
X999871Y1390142D01*
X999871Y1378458D01*
X999871Y1380630D02*
X994537Y1380630D01*
X994537Y1382802D02*
X999871Y1382802D01*
X999871Y1384974D02*
X994537Y1384974D01*
X994537Y1387146D02*
X999871Y1387146D01*
X999871Y1389318D02*
X994537Y1389318D01*
D12*
X993140Y1536700D03*
X1018540Y1536700D03*
X1043940Y1536700D03*
X1069340Y1536700D03*
X1094740Y1536700D03*
X1120140Y1536700D03*
X1145540Y1536700D03*
X1170940Y1536700D03*
X1145540Y1308100D03*
X1170940Y1308100D03*
X1018540Y1485900D03*
X1043940Y1485900D03*
X1069340Y1485900D03*
X1094740Y1485900D03*
X1120140Y1485900D03*
X1145540Y1485900D03*
D13*
X942340Y1371600D03*
D12*
X1018540Y1308100D03*
X993140Y1308100D03*
D14*
X1225550Y1304290D03*
X937260Y1541780D03*
D12*
X1043940Y1308100D03*
X1069340Y1308100D03*
X1094740Y1308100D03*
X1120140Y1308100D03*
D15*
X1195728Y1445004D02*
X1201320Y1445004D01*
X1195728Y1445004D02*
X1195728Y1456692D01*
X1201320Y1456692D01*
X1201320Y1445004D01*
X1201320Y1447173D02*
X1195728Y1447173D01*
X1195728Y1449342D02*
X1201320Y1449342D01*
X1201320Y1451511D02*
X1195728Y1451511D01*
X1195728Y1453680D02*
X1201320Y1453680D01*
X1201320Y1455849D02*
X1195728Y1455849D01*
X1206142Y1445004D02*
X1211734Y1445004D01*
X1206142Y1445004D02*
X1206142Y1456692D01*
X1211734Y1456692D01*
X1211734Y1445004D01*
X1211734Y1447173D02*
X1206142Y1447173D01*
X1206142Y1449342D02*
X1211734Y1449342D01*
X1211734Y1451511D02*
X1206142Y1451511D01*
X1206142Y1453680D02*
X1211734Y1453680D01*
X1211734Y1455849D02*
X1206142Y1455849D01*
D16*
X-26238Y1522730D03*
X1260678Y1522730D03*
D17*
X-35293Y63500D02*
X-35290Y63722D01*
X-35282Y63944D01*
X-35268Y64166D01*
X-35249Y64388D01*
X-35225Y64608D01*
X-35195Y64829D01*
X-35160Y65048D01*
X-35119Y65267D01*
X-35073Y65484D01*
X-35022Y65700D01*
X-34965Y65915D01*
X-34903Y66129D01*
X-34836Y66340D01*
X-34764Y66551D01*
X-34686Y66759D01*
X-34604Y66965D01*
X-34516Y67169D01*
X-34424Y67372D01*
X-34326Y67571D01*
X-34224Y67768D01*
X-34117Y67963D01*
X-34005Y68155D01*
X-33888Y68344D01*
X-33767Y68531D01*
X-33641Y68714D01*
X-33511Y68894D01*
X-33376Y69071D01*
X-33238Y69244D01*
X-33095Y69414D01*
X-32947Y69581D01*
X-32796Y69744D01*
X-32641Y69903D01*
X-32482Y70058D01*
X-32319Y70209D01*
X-32152Y70357D01*
X-31982Y70500D01*
X-31809Y70638D01*
X-31632Y70773D01*
X-31452Y70903D01*
X-31269Y71029D01*
X-31082Y71150D01*
X-30893Y71267D01*
X-30701Y71379D01*
X-30506Y71486D01*
X-30309Y71588D01*
X-30110Y71686D01*
X-29907Y71778D01*
X-29703Y71866D01*
X-29497Y71948D01*
X-29289Y72026D01*
X-29078Y72098D01*
X-28867Y72165D01*
X-28653Y72227D01*
X-28438Y72284D01*
X-28222Y72335D01*
X-28005Y72381D01*
X-27786Y72422D01*
X-27567Y72457D01*
X-27346Y72487D01*
X-27126Y72511D01*
X-26904Y72530D01*
X-26682Y72544D01*
X-26460Y72552D01*
X-26238Y72555D01*
X-26016Y72552D01*
X-25794Y72544D01*
X-25572Y72530D01*
X-25350Y72511D01*
X-25130Y72487D01*
X-24909Y72457D01*
X-24690Y72422D01*
X-24471Y72381D01*
X-24254Y72335D01*
X-24038Y72284D01*
X-23823Y72227D01*
X-23609Y72165D01*
X-23398Y72098D01*
X-23187Y72026D01*
X-22979Y71948D01*
X-22773Y71866D01*
X-22569Y71778D01*
X-22366Y71686D01*
X-22167Y71588D01*
X-21970Y71486D01*
X-21775Y71379D01*
X-21583Y71267D01*
X-21394Y71150D01*
X-21207Y71029D01*
X-21024Y70903D01*
X-20844Y70773D01*
X-20667Y70638D01*
X-20494Y70500D01*
X-20324Y70357D01*
X-20157Y70209D01*
X-19994Y70058D01*
X-19835Y69903D01*
X-19680Y69744D01*
X-19529Y69581D01*
X-19381Y69414D01*
X-19238Y69244D01*
X-19100Y69071D01*
X-18965Y68894D01*
X-18835Y68714D01*
X-18709Y68531D01*
X-18588Y68344D01*
X-18471Y68155D01*
X-18359Y67963D01*
X-18252Y67768D01*
X-18150Y67571D01*
X-18052Y67372D01*
X-17960Y67169D01*
X-17872Y66965D01*
X-17790Y66759D01*
X-17712Y66551D01*
X-17640Y66340D01*
X-17573Y66129D01*
X-17511Y65915D01*
X-17454Y65700D01*
X-17403Y65484D01*
X-17357Y65267D01*
X-17316Y65048D01*
X-17281Y64829D01*
X-17251Y64608D01*
X-17227Y64388D01*
X-17208Y64166D01*
X-17194Y63944D01*
X-17186Y63722D01*
X-17183Y63500D01*
X-17186Y63278D01*
X-17194Y63056D01*
X-17208Y62834D01*
X-17227Y62612D01*
X-17251Y62392D01*
X-17281Y62171D01*
X-17316Y61952D01*
X-17357Y61733D01*
X-17403Y61516D01*
X-17454Y61300D01*
X-17511Y61085D01*
X-17573Y60871D01*
X-17640Y60660D01*
X-17712Y60449D01*
X-17790Y60241D01*
X-17872Y60035D01*
X-17960Y59831D01*
X-18052Y59628D01*
X-18150Y59429D01*
X-18252Y59232D01*
X-18359Y59037D01*
X-18471Y58845D01*
X-18588Y58656D01*
X-18709Y58469D01*
X-18835Y58286D01*
X-18965Y58106D01*
X-19100Y57929D01*
X-19238Y57756D01*
X-19381Y57586D01*
X-19529Y57419D01*
X-19680Y57256D01*
X-19835Y57097D01*
X-19994Y56942D01*
X-20157Y56791D01*
X-20324Y56643D01*
X-20494Y56500D01*
X-20667Y56362D01*
X-20844Y56227D01*
X-21024Y56097D01*
X-21207Y55971D01*
X-21394Y55850D01*
X-21583Y55733D01*
X-21775Y55621D01*
X-21970Y55514D01*
X-22167Y55412D01*
X-22366Y55314D01*
X-22569Y55222D01*
X-22773Y55134D01*
X-22979Y55052D01*
X-23187Y54974D01*
X-23398Y54902D01*
X-23609Y54835D01*
X-23823Y54773D01*
X-24038Y54716D01*
X-24254Y54665D01*
X-24471Y54619D01*
X-24690Y54578D01*
X-24909Y54543D01*
X-25130Y54513D01*
X-25350Y54489D01*
X-25572Y54470D01*
X-25794Y54456D01*
X-26016Y54448D01*
X-26238Y54445D01*
X-26460Y54448D01*
X-26682Y54456D01*
X-26904Y54470D01*
X-27126Y54489D01*
X-27346Y54513D01*
X-27567Y54543D01*
X-27786Y54578D01*
X-28005Y54619D01*
X-28222Y54665D01*
X-28438Y54716D01*
X-28653Y54773D01*
X-28867Y54835D01*
X-29078Y54902D01*
X-29289Y54974D01*
X-29497Y55052D01*
X-29703Y55134D01*
X-29907Y55222D01*
X-30110Y55314D01*
X-30309Y55412D01*
X-30506Y55514D01*
X-30701Y55621D01*
X-30893Y55733D01*
X-31082Y55850D01*
X-31269Y55971D01*
X-31452Y56097D01*
X-31632Y56227D01*
X-31809Y56362D01*
X-31982Y56500D01*
X-32152Y56643D01*
X-32319Y56791D01*
X-32482Y56942D01*
X-32641Y57097D01*
X-32796Y57256D01*
X-32947Y57419D01*
X-33095Y57586D01*
X-33238Y57756D01*
X-33376Y57929D01*
X-33511Y58106D01*
X-33641Y58286D01*
X-33767Y58469D01*
X-33888Y58656D01*
X-34005Y58845D01*
X-34117Y59037D01*
X-34224Y59232D01*
X-34326Y59429D01*
X-34424Y59628D01*
X-34516Y59831D01*
X-34604Y60035D01*
X-34686Y60241D01*
X-34764Y60449D01*
X-34836Y60660D01*
X-34903Y60871D01*
X-34965Y61085D01*
X-35022Y61300D01*
X-35073Y61516D01*
X-35119Y61733D01*
X-35160Y61952D01*
X-35195Y62171D01*
X-35225Y62392D01*
X-35249Y62612D01*
X-35268Y62834D01*
X-35282Y63056D01*
X-35290Y63278D01*
X-35293Y63500D01*
D18*
X-26238Y63500D03*
M02*
