M48
;GenerationSoftware,Autodesk,EAGLE,9.6.2*%
;CreationDate,2023-06-29T18:17:23Z*%
FMAT,2
ICI,OFF
METRIC,TZ,000.000
T5C0.305
T4C0.381
T3C0.950
T2C1.016
T1C3.302
%
G90
M71
T1
X2540Y126492
X95504Y152400
X2540Y22860
X27940Y22860
X33528Y22860
X58928Y22860
X64516Y22860
X89916Y22860
X95504Y22860
X120904Y22860
X2540Y48768
X27940Y48768
X33528Y48768
X58928Y48768
X64516Y48768
X89916Y48768
X95504Y48768
X120904Y48768
X2540Y74676
X27940Y74676
X33528Y74676
X58928Y74676
X64516Y74676
X89916Y74676
X95504Y74676
X120904Y74676
X2540Y100584
X27940Y100584
X33528Y100584
X58928Y100584
X64516Y100584
X89916Y100584
X95504Y100584
X120904Y100584
X120904Y152400
X27940Y126492
X33528Y126492
X58928Y126492
X64516Y126492
X89916Y126492
X95504Y126492
X120904Y126492
X2540Y152400
X27940Y152400
X33528Y152400
X58928Y152400
X64516Y152400
X89916Y152400
T2
X52578Y130810
X55118Y130810
X39878Y148590
X42418Y148590
X44958Y148590
X47498Y148590
X50038Y148590
X52578Y148590
X39878Y130810
X37338Y130810
X42418Y130810
X44958Y130810
X47498Y130810
X50038Y130810
X68326Y153670
X70866Y153670
X73406Y153670
X75946Y153670
X78486Y153670
X81026Y153670
X83566Y153670
X86106Y153670
X83566Y130810
X86106Y130810
X70866Y148590
X73406Y148590
X21590Y78994
X75946Y148590
X78486Y148590
X81026Y148590
X83566Y148590
X70866Y130810
X68326Y130810
X73406Y130810
X75946Y130810
X78486Y130810
X81026Y130810
X99314Y153670
X101854Y153670
X104394Y153670
X106934Y153670
X109474Y153670
X112014Y153670
X114554Y153670
X117094Y153670
X114554Y130810
X117094Y130810
X101854Y148590
X73406Y1270
X6350Y24130
X8890Y24130
X11430Y24130
X13970Y24130
X16510Y24130
X19050Y24130
X21590Y24130
X24130Y24130
X21590Y1270
X24130Y1270
X8890Y19050
X11430Y19050
X13970Y19050
X16510Y19050
X19050Y19050
X21590Y19050
X104394Y148590
X8890Y1270
X6350Y1270
X11430Y1270
X13970Y1270
X16510Y1270
X19050Y1270
X37338Y24130
X39878Y24130
X42418Y24130
X44958Y24130
X47498Y24130
X50038Y24130
X52578Y24130
X55118Y24130
X52578Y1270
X55118Y1270
X39878Y19050
X42418Y19050
X44958Y19050
X47498Y19050
X50038Y19050
X52578Y19050
X106934Y148590
X39878Y1270
X37338Y1270
X42418Y1270
X44958Y1270
X47498Y1270
X50038Y1270
X68326Y24130
X70866Y24130
X73406Y24130
X75946Y24130
X78486Y24130
X81026Y24130
X83566Y24130
X86106Y24130
X83566Y1270
X86106Y1270
X70866Y19050
X73406Y19050
X75946Y19050
X78486Y19050
X81026Y19050
X83566Y19050
X109474Y148590
X70866Y1270
X68326Y1270
X112014Y148590
X75946Y1270
X78486Y1270
X81026Y1270
X99314Y24130
X101854Y24130
X104394Y24130
X106934Y24130
X109474Y24130
X112014Y24130
X114554Y24130
X117094Y24130
X114554Y1270
X117094Y1270
X101854Y19050
X104394Y19050
X106934Y19050
X109474Y19050
X112014Y19050
X114554Y19050
X114554Y148590
X101854Y1270
X99314Y1270
X104394Y1270
X106934Y1270
X109474Y1270
X112014Y1270
X6350Y50038
X8890Y50038
X11430Y50038
X13970Y50038
X16510Y50038
X19050Y50038
X21590Y50038
X24130Y50038
X21590Y27178
X24130Y27178
X8890Y44958
X11430Y44958
X13970Y44958
X16510Y44958
X19050Y44958
X21590Y44958
X101854Y130810
X8890Y27178
X6350Y27178
X11430Y27178
X13970Y27178
X16510Y27178
X19050Y27178
X37338Y50038
X39878Y50038
X42418Y50038
X44958Y50038
X47498Y50038
X50038Y50038
X52578Y50038
X55118Y50038
X52578Y27178
X55118Y27178
X39878Y44958
X42418Y44958
X44958Y44958
X47498Y44958
X50038Y44958
X52578Y44958
X99314Y130810
X39878Y27178
X37338Y27178
X42418Y27178
X44958Y27178
X47498Y27178
X50038Y27178
X68326Y50038
X70866Y50038
X73406Y50038
X75946Y50038
X78486Y50038
X81026Y50038
X83566Y50038
X86106Y50038
X83566Y27178
X86106Y27178
X70866Y44958
X73406Y44958
X75946Y44958
X78486Y44958
X81026Y44958
X83566Y44958
X104394Y130810
X70866Y27178
X68326Y27178
X73406Y27178
X75946Y27178
X78486Y27178
X81026Y27178
X99314Y50038
X101854Y50038
X104394Y50038
X106934Y50038
X109474Y50038
X112014Y50038
X114554Y50038
X117094Y50038
X114554Y27178
X117094Y27178
X101854Y44958
X104394Y44958
X106934Y44958
X109474Y44958
X112014Y44958
X114554Y44958
X106934Y130810
X101854Y27178
X99314Y27178
X104394Y27178
X106934Y27178
X109474Y27178
X112014Y27178
X6350Y75946
X8890Y75946
X11430Y75946
X13970Y75946
X16510Y75946
X19050Y75946
X21590Y75946
X24130Y75946
X21590Y53086
X24130Y53086
X8890Y70866
X11430Y70866
X13970Y70866
X16510Y70866
X19050Y70866
X21590Y70866
X109474Y130810
X8890Y53086
X6350Y53086
X11430Y53086
X13970Y53086
X16510Y53086
X19050Y53086
X37338Y75946
X39878Y75946
X42418Y75946
X44958Y75946
X47498Y75946
X50038Y75946
X52578Y75946
X55118Y75946
X52578Y53086
X55118Y53086
X39878Y70866
X42418Y70866
X44958Y70866
X47498Y70866
X50038Y70866
X52578Y70866
X112014Y130810
X39878Y53086
X37338Y53086
X42418Y53086
X44958Y53086
X47498Y53086
X50038Y53086
X68326Y75946
X70866Y75946
X73406Y75946
X75946Y75946
X78486Y75946
X81026Y75946
X83566Y75946
X86106Y75946
X83566Y53086
X86106Y53086
X70866Y70866
X73406Y70866
X75946Y70866
X78486Y70866
X81026Y70866
X83566Y70866
X70866Y53086
X68326Y53086
X73406Y53086
X75946Y53086
X78486Y53086
X81026Y53086
X99314Y75946
X101854Y75946
X104394Y75946
X106934Y75946
X109474Y75946
X112014Y75946
X114554Y75946
X117094Y75946
X114554Y53086
X117094Y53086
X101854Y70866
X104394Y70866
X106934Y70866
X109474Y70866
X112014Y70866
X114554Y70866
X101854Y53086
X99314Y53086
X104394Y53086
X106934Y53086
X109474Y53086
X112014Y53086
X6350Y101854
X8890Y101854
X11430Y101854
X13970Y101854
X16510Y101854
X19050Y101854
X21590Y101854
X24130Y101854
X24130Y78994
X8890Y96774
X11430Y96774
X13970Y96774
X16510Y96774
X19050Y96774
X21590Y96774
X8890Y78994
X6350Y78994
X11430Y78994
X13970Y78994
X16510Y78994
X19050Y78994
X37338Y101854
X39878Y101854
X42418Y101854
X44958Y101854
X47498Y101854
X50038Y101854
X52578Y101854
X55118Y101854
X52578Y78994
X55118Y78994
X39878Y96774
X42418Y96774
X44958Y96774
X47498Y96774
X50038Y96774
X52578Y96774
X39878Y78994
X37338Y78994
X42418Y78994
X44958Y78994
X47498Y78994
X50038Y78994
X68326Y101854
X70866Y101854
X73406Y101854
X75946Y101854
X78486Y101854
X81026Y101854
X83566Y101854
X86106Y101854
X83566Y78994
X86106Y78994
X70866Y96774
X73406Y96774
X75946Y96774
X78486Y96774
X81026Y96774
X83566Y96774
X70866Y78994
X68326Y78994
X73406Y78994
X75946Y78994
X78486Y78994
X81026Y78994
X99314Y101854
X101854Y101854
X104394Y101854
X106934Y101854
X109474Y101854
X112014Y101854
X114554Y101854
X117094Y101854
X114554Y78994
X117094Y78994
X101854Y96774
X104394Y96774
X106934Y96774
X109474Y96774
X112014Y96774
X114554Y96774
X101854Y78994
X99314Y78994
X104394Y78994
X106934Y78994
X109474Y78994
X112014Y78994
X6350Y127762
X8890Y127762
X11430Y127762
X13970Y127762
X16510Y127762
X19050Y127762
X21590Y127762
X24130Y127762
X21590Y104902
X24130Y104902
X8890Y122682
X11430Y122682
X13970Y122682
X16510Y122682
X19050Y122682
X21590Y122682
X8890Y104902
X6350Y104902
X11430Y104902
X13970Y104902
X16510Y104902
X19050Y104902
X37338Y127762
X39878Y127762
X42418Y127762
X44958Y127762
X47498Y127762
X50038Y127762
X52578Y127762
X55118Y127762
X52578Y104902
X55118Y104902
X39878Y122682
X42418Y122682
X44958Y122682
X47498Y122682
X50038Y122682
X52578Y122682
X39878Y104902
X37338Y104902
X42418Y104902
X44958Y104902
X47498Y104902
X50038Y104902
X68326Y127762
X70866Y127762
X73406Y127762
X75946Y127762
X78486Y127762
X81026Y127762
X83566Y127762
X86106Y127762
X83566Y104902
X86106Y104902
X70866Y122682
X73406Y122682
X75946Y122682
X78486Y122682
X81026Y122682
X83566Y122682
X70866Y104902
X68326Y104902
X73406Y104902
X75946Y104902
X78486Y104902
X81026Y104902
X99314Y127762
X101854Y127762
X104394Y127762
X106934Y127762
X109474Y127762
X112014Y127762
X114554Y127762
X117094Y127762
X114554Y104902
X117094Y104902
X101854Y122682
X104394Y122682
X106934Y122682
X109474Y122682
X112014Y122682
X114554Y122682
X101854Y104902
X99314Y104902
X104394Y104902
X106934Y104902
X109474Y104902
X112014Y104902
X6350Y153670
X8890Y153670
X11430Y153670
X13970Y153670
X16510Y153670
X19050Y153670
X21590Y153670
X24130Y153670
X21590Y130810
X24130Y130810
X8890Y148590
X11430Y148590
X13970Y148590
X16510Y148590
X19050Y148590
X21590Y148590
X8890Y130810
X6350Y130810
X11430Y130810
X13970Y130810
X16510Y130810
X19050Y130810
X37338Y153670
X39878Y153670
X42418Y153670
X44958Y153670
X47498Y153670
X50038Y153670
X52578Y153670
X55118Y153670
T3
X32258Y111252
X1270Y7620
X32258Y7620
X63246Y7620
X94234Y7620
X1270Y33528
X32258Y33528
X63246Y33528
X94234Y33528
X1270Y59436
X32258Y59436
X94234Y59436
X1270Y111252
X63246Y111252
X32258Y85344
X94234Y85344
X63246Y59436
X94234Y137160
X94234Y111252
X1270Y85344
X63246Y85344
X63246Y137160
X1270Y137160
X32258Y137160
T4
X73035Y94242
X76203Y83454
X73035Y42426
X76203Y31638
X73035Y68334
X42047Y16518
X45215Y5730
X73035Y16518
X76203Y5730
X42047Y120150
X45215Y109362
X73035Y120150
X14227Y109362
X104023Y120150
X107191Y109362
X11059Y146058
X14227Y135270
X42047Y146058
X45215Y135270
X73035Y146058
X76203Y135270
X104023Y146058
X107191Y135270
X14227Y5730
X76203Y57546
X42047Y42426
X11059Y16518
X45215Y31638
X104023Y42426
X104023Y16518
X107191Y5730
X107191Y31638
X11059Y120150
X104023Y68334
X107191Y57546
X42047Y94242
X45215Y83454
X42047Y68334
X76203Y109362
X11059Y42426
X14227Y31638
X45215Y57546
X11059Y68334
X14227Y57546
X11059Y94242
X14227Y83454
X104023Y94242
X107191Y83454
T5
X53470Y55626
X38006Y64018
X46990Y61468
X46586Y56523
X52578Y63246
X56477Y71074
X85725Y64008
X71090Y63886
X86106Y62484
X76865Y55733
X74295Y57404
X64516Y64516
X90916Y59516
X65786Y58166
X70866Y67056
X81026Y67056
X73406Y67056
X91186Y72136
X84526Y61684
X83058Y61214
X81407Y61468
X83058Y57531
X81407Y57531
X69068Y67300
X67640Y66977
X65837Y67188
X72197Y73309
X87254Y73254
X71643Y57140
X69657Y56497
X66891Y55242
X77013Y61674
X87160Y55933
X90846Y54834
X77196Y57452
X74046Y62070
X70609Y63157
X85438Y66698
X67432Y56962
X84181Y63944
X69014Y65827
X86777Y68242
X69830Y63970
X67313Y61854
X65903Y61819
X67404Y72352
X79743Y54000
X82520Y55011
X73266Y65844
X83820Y61542
X71501Y61468
X69596Y61976
X83566Y67056
X82296Y67056
X78994Y61341
X79756Y56853
X84704Y66101
X81046Y66076
X68326Y63246
X86131Y58623
X84836Y64516
X81026Y68326
X84458Y55626
X68994Y64018
X77978Y61468
X77574Y56523
X83566Y63246
X87465Y71074
X116713Y64008
X102078Y63886
X117094Y62484
X107853Y55733
X105283Y57404
X95504Y64516
X121904Y59516
X96774Y58166
X101854Y67056
X112014Y67056
X104394Y67056
X122174Y72136
X115514Y61684
X114046Y61214
X112395Y61468
X114046Y57531
X112395Y57531
X100056Y67300
X98628Y66977
X96825Y67188
X103185Y73309
X118242Y73254
X102631Y57140
X100645Y56497
X97879Y55242
X108001Y61674
X118148Y55933
X121834Y54834
X108184Y57452
X105034Y62070
X101597Y63157
X116426Y66698
X98420Y56962
X115169Y63944
X100002Y65827
X117765Y68242
X100818Y63970
X98301Y61854
X96891Y61819
X98392Y72352
X110731Y54000
X113508Y55011
X104254Y65844
X114808Y61542
X102489Y61468
X100584Y61976
X114554Y67056
X113284Y67056
X109982Y61341
X110744Y56853
X115692Y66101
X112034Y66076
X99314Y63246
X117119Y58623
X115824Y64516
X112014Y68326
X115446Y55626
X99982Y64018
X108966Y61468
X108562Y56523
X114554Y63246
X118453Y71074
X23749Y89916
X9114Y89794
X24130Y88392
X14889Y81641
X12319Y83312
X2540Y90424
X28940Y85424
X3810Y84074
X8890Y92964
X19050Y92964
X11430Y92964
X29210Y98044
X22550Y87592
X21082Y87122
X19431Y87376
X21082Y83439
X19431Y83439
X7092Y93208
X5664Y92885
X3861Y93096
X10221Y99217
X25278Y99162
X9667Y83048
X7681Y82405
X4915Y81150
X15037Y87582
X25184Y81841
X28870Y80742
X15220Y83360
X12070Y87978
X8633Y89065
X23462Y92606
X5456Y82870
X22205Y89852
X7038Y91735
X24801Y94150
X7854Y89878
X5337Y87762
X3927Y87727
X5428Y98260
X17767Y79908
X20544Y80919
X11290Y91752
X21844Y87450
X9525Y87376
X7620Y87884
X21590Y92964
X20320Y92964
X17018Y87249
X17780Y82761
X22728Y92009
X19070Y91984
X6350Y89154
X24155Y84531
X22860Y90424
X19050Y94234
X22482Y81534
X7018Y89926
X16002Y87376
X15598Y82431
X21590Y89154
X25489Y96982
X54737Y89916
X40102Y89794
X55118Y88392
X45877Y81641
X43307Y83312
X33528Y90424
X59928Y85424
X34798Y84074
X39878Y92964
X50038Y92964
X42418Y92964
X60198Y98044
X53538Y87592
X52070Y87122
X50419Y87376
X52070Y83439
X50419Y83439
X38080Y93208
X36652Y92885
X34849Y93096
X41209Y99217
X56266Y99162
X40655Y83048
X38669Y82405
X35903Y81150
X46025Y87582
X56172Y81841
X59858Y80742
X46208Y83360
X43058Y87978
X39621Y89065
X54450Y92606
X36444Y82870
X53193Y89852
X38026Y91735
X55789Y94150
X38842Y89878
X36325Y87762
X34915Y87727
X36416Y98260
X48755Y79908
X51532Y80919
X42278Y91752
X52832Y87450
X40513Y87376
X38608Y87884
X52578Y92964
X51308Y92964
X48006Y87249
X48768Y82761
X53716Y92009
X50058Y91984
X37338Y89154
X55143Y84531
X53848Y90424
X50038Y94234
X53470Y81534
X38006Y89926
X46990Y87376
X46586Y82431
X52578Y89154
X56477Y96982
X85725Y89916
X71090Y89794
X86106Y88392
X76865Y81641
X74295Y83312
X64516Y90424
X90916Y85424
X65786Y84074
X70866Y92964
X81026Y92964
X73406Y92964
X91186Y98044
X84526Y87592
X83058Y87122
X81407Y87376
X83058Y83439
X81407Y83439
X69068Y93208
X67640Y92885
X65837Y93096
X72197Y99217
X87254Y99162
X71643Y83048
X69657Y82405
X66891Y81150
X77013Y87582
X87160Y81841
X90846Y80742
X77196Y83360
X74046Y87978
X70609Y89065
X85438Y92606
X67432Y82870
X84181Y89852
X69014Y91735
X86777Y94150
X69830Y89878
X67313Y87762
X65903Y87727
X67404Y98260
X79743Y79908
X82520Y80919
X73266Y91752
X83820Y87450
X71501Y87376
X69596Y87884
X83566Y92964
X82296Y92964
X78994Y87249
X79756Y82761
X84704Y92009
X81046Y91984
X68326Y89154
X86131Y84531
X84836Y90424
X81026Y94234
X84458Y81534
X68994Y89926
X77978Y87376
X77574Y82431
X83566Y89154
X87465Y96982
X116713Y89916
X102078Y89794
X117094Y88392
X107853Y81641
X105283Y83312
X95504Y90424
X121904Y85424
X96774Y84074
X101854Y92964
X112014Y92964
X104394Y92964
X122174Y98044
X115514Y87592
X114046Y87122
X112395Y87376
X114046Y83439
X112395Y83439
X100056Y93208
X98628Y92885
X96825Y93096
X103185Y99217
X118242Y99162
X102631Y83048
X100645Y82405
X97879Y81150
X108001Y87582
X118148Y81841
X121834Y80742
X108184Y83360
X105034Y87978
X101597Y89065
X116426Y92606
X98420Y82870
X115169Y89852
X100002Y91735
X117765Y94150
X100818Y89878
X98301Y87762
X96891Y87727
X98392Y98260
X110731Y79908
X113508Y80919
X104254Y91752
X114808Y87450
X102489Y87376
X100584Y87884
X114554Y92964
X113284Y92964
X109982Y87249
X110744Y82761
X115692Y92009
X112034Y91984
X99314Y89154
X117119Y84531
X115824Y90424
X112014Y94234
X115446Y81534
X99982Y89926
X108966Y87376
X108562Y82431
X114554Y89154
X118453Y96982
X23749Y115824
X9114Y115702
X24130Y114300
X14889Y107549
X12319Y109220
X2540Y116332
X28940Y111332
X3810Y109982
X8890Y118872
X19050Y118872
X11430Y118872
X29210Y123952
X22550Y113500
X21082Y113030
X19431Y113284
X21082Y109347
X19431Y109347
X7092Y119116
X5664Y118793
X3861Y119004
X10221Y125125
X25278Y125070
X9667Y108956
X7681Y108313
X4915Y107058
X15037Y113490
X25184Y107749
X28870Y106650
X15220Y109268
X12070Y113886
X8633Y114973
X23462Y118514
X5456Y108778
X22205Y115760
X7038Y117643
X24801Y120058
X7854Y115786
X5337Y113670
X3927Y113635
X5428Y124168
X17767Y105816
X20544Y106827
X19050Y41148
X21844Y113358
X9525Y113284
X7620Y113792
X21590Y118872
X20320Y118872
X17018Y113157
X17780Y108669
X22728Y117917
X19070Y117892
X6350Y115062
X24155Y110439
X22860Y116332
X19050Y120142
X22482Y107442
X7018Y115834
X16002Y113284
X15598Y108339
X21590Y115062
X25489Y122890
X23749Y12192
X9114Y12070
X54737Y115824
X40102Y115702
X55118Y114300
X45877Y107549
X43307Y109220
X33528Y116332
X59928Y111332
X34798Y109982
X39878Y118872
X50038Y118872
X42418Y118872
X60198Y123952
X53538Y113500
X52070Y113030
X50419Y113284
X52070Y109347
X50419Y109347
X38080Y119116
X36652Y118793
X34849Y119004
X41209Y125125
X56266Y125070
X40655Y108956
X38669Y108313
X35903Y107058
X46025Y113490
X56172Y107749
X59858Y106650
X46208Y109268
X43058Y113886
X39621Y114973
X54450Y118514
X36444Y108778
X53193Y115760
X38026Y117643
X55789Y120058
X38842Y115786
X36325Y113670
X34915Y113635
X36416Y124168
X48755Y105816
X51532Y106827
X42278Y117660
X52832Y113358
X40513Y113284
X38608Y113792
X52578Y118872
X51308Y118872
X48006Y113157
X48768Y108669
X53716Y117917
X50058Y117892
X37338Y115062
X55143Y110439
X53848Y116332
X50038Y120142
X53470Y107442
X38006Y115834
X46990Y113284
X46586Y108339
X52578Y115062
X56477Y122890
X24130Y10668
X14889Y3917
X85725Y115824
X71090Y115702
X86106Y114300
X76865Y107549
X74295Y109220
X64516Y116332
X90916Y111332
X65786Y109982
X70866Y118872
X81026Y118872
X73406Y118872
X91186Y123952
X84526Y113500
X83058Y113030
X81407Y113284
X83058Y109347
X81407Y109347
X69068Y119116
X67640Y118793
X65837Y119004
X72197Y125125
X87254Y125070
X71643Y108956
X69657Y108313
X66891Y107058
X77013Y113490
X87160Y107749
X90846Y106650
X77196Y109268
X74046Y113886
X70609Y114973
X85438Y118514
X67432Y108778
X84181Y115760
X69014Y117643
X86777Y120058
X69830Y115786
X67313Y113670
X65903Y113635
X67404Y124168
X79743Y105816
X82520Y106827
X73266Y117660
X83820Y113358
X71501Y113284
X69596Y113792
X83566Y118872
X82296Y118872
X78994Y113157
X79756Y108669
X84704Y117917
X81046Y117892
X68326Y115062
X86131Y110439
X84836Y116332
X81026Y120142
X84458Y107442
X68994Y115834
X77978Y113284
X77574Y108339
X83566Y115062
X87465Y122890
X12319Y5588
X2540Y12700
X116713Y115824
X102078Y115702
X117094Y114300
X107853Y107549
X105283Y109220
X95504Y116332
X121904Y111332
X96774Y109982
X101854Y118872
X112014Y118872
X104394Y118872
X122174Y123952
X115514Y113500
X114046Y113030
X112395Y113284
X114046Y109347
X112395Y109347
X100056Y119116
X98628Y118793
X96825Y119004
X103185Y125125
X118242Y125070
X102631Y108956
X100645Y108313
X97879Y107058
X108001Y113490
X118148Y107749
X121834Y106650
X108184Y109268
X105034Y113886
X101597Y114973
X116426Y118514
X98420Y108778
X115169Y115760
X100002Y117643
X117765Y120058
X100818Y115786
X98301Y113670
X96891Y113635
X98392Y124168
X110731Y105816
X113508Y106827
X104254Y117660
X114808Y113358
X102489Y113284
X100584Y113792
X114554Y118872
X113284Y118872
X109982Y113157
X110744Y108669
X115692Y117917
X112034Y117892
X99314Y115062
X117119Y110439
X115824Y116332
X112014Y120142
X115446Y107442
X99982Y115834
X108966Y113284
X108562Y108339
X114554Y115062
X118453Y122890
X28940Y7700
X3810Y6350
X23749Y141732
X9114Y141610
X24130Y140208
X14889Y133457
X12319Y135128
X2540Y142240
X28940Y137240
X3810Y135890
X8890Y144780
X19050Y144780
X11430Y144780
X29210Y149860
X22550Y139408
X21082Y138938
X19431Y139192
X21082Y135255
X19431Y135255
X7092Y145024
X5664Y144701
X3861Y144912
X10221Y151033
X25278Y150978
X9667Y134864
X7681Y134221
X4915Y132966
X15037Y139398
X25184Y133657
X28870Y132558
X15220Y135176
X12070Y139794
X8633Y140881
X23462Y144422
X5456Y134686
X22205Y141669
X7038Y143551
X24801Y145966
X7854Y141694
X5337Y139578
X3927Y139543
X5428Y150076
X17767Y131724
X20544Y132735
X11290Y143568
X21844Y139266
X9525Y139192
X7620Y139700
X21590Y144780
X20320Y144780
X17018Y139065
X17780Y134577
X22728Y143825
X19070Y143800
X6350Y140970
X24155Y136347
X22860Y142240
X19050Y146050
X22482Y133350
X7018Y141742
X16002Y139192
X15598Y134247
X21590Y140970
X25489Y148798
X8890Y15240
X19050Y15240
X54737Y141732
X40102Y141610
X55118Y140208
X45877Y133457
X43307Y135128
X33528Y142240
X59928Y137240
X34798Y135890
X39878Y144780
X50038Y144780
X42418Y144780
X60198Y149860
X53538Y139408
X52070Y138938
X50419Y139192
X52070Y135255
X50419Y135255
X38080Y145024
X36652Y144701
X34849Y144912
X41209Y151033
X56266Y150978
X40655Y134864
X38669Y134221
X35903Y132966
X46025Y139398
X56172Y133657
X59858Y132558
X46208Y135176
X43058Y139794
X39621Y140881
X54450Y144422
X36444Y134686
X53193Y141669
X38026Y143551
X55789Y145966
X38842Y141694
X36325Y139578
X34915Y139543
X36416Y150076
X48755Y131724
X51532Y132735
X42278Y143568
X52832Y139266
X40513Y139192
X38608Y139700
X52578Y144780
X51308Y144780
X48006Y139065
X48768Y134577
X53716Y143825
X50058Y143800
X37338Y140970
X55143Y136347
X53848Y142240
X50038Y146050
X53470Y133350
X38006Y141742
X46990Y139192
X46586Y134247
X52578Y140970
X56477Y148798
X11430Y15240
X29210Y20320
X85725Y141732
X71090Y141610
X86106Y140208
X76865Y133457
X74295Y135128
X64516Y142240
X90916Y137240
X65786Y135890
X70866Y144780
X81026Y144780
X73406Y144780
X91186Y149860
X84526Y139408
X83058Y138938
X81407Y139192
X83058Y135255
X81407Y135255
X69068Y145024
X67640Y144701
X65837Y144912
X72197Y151033
X87254Y150978
X71643Y134864
X69657Y134221
X66891Y132966
X77013Y139398
X87160Y133657
X90846Y132558
X77196Y135176
X74046Y139794
X70609Y140881
X85438Y144422
X67432Y134686
X84181Y141669
X69014Y143551
X86777Y145966
X69830Y141694
X67313Y139578
X65903Y139543
X67404Y150076
X79743Y131724
X82520Y132735
X73266Y143568
X83820Y139266
X71501Y139192
X69596Y139700
X83566Y144780
X82296Y144780
X78994Y139065
X79756Y134577
X84704Y143825
X81046Y143800
X68326Y140970
X86131Y136347
X84836Y142240
X81026Y146050
X84458Y133350
X68994Y141742
X77978Y139192
X77574Y134247
X83566Y140970
X87465Y148798
X22550Y9868
X21082Y9398
X116713Y141732
X102078Y141610
X117094Y140208
X107853Y133457
X105283Y135128
X95504Y142240
X121904Y137240
X96774Y135890
X101854Y144780
X112014Y144780
X104394Y144780
X122174Y149860
X115514Y139408
X114046Y138938
X112395Y139192
X114046Y135255
X112395Y135255
X100056Y145024
X98628Y144701
X96825Y144912
X103185Y151033
X118242Y150978
X102631Y134864
X100645Y134221
X97879Y132966
X108001Y139398
X118148Y133657
X121834Y132558
X108184Y135176
X105034Y139794
X101597Y140881
X116426Y144422
X98420Y134686
X115169Y141669
X100002Y143551
X117765Y145966
X100818Y141694
X98301Y139578
X96891Y139543
X98392Y150076
X110731Y131724
X113508Y132735
X104254Y143568
X114808Y139266
X102489Y139192
X100584Y139700
X114554Y144780
X113284Y144780
X109982Y139065
X110744Y134577
X115692Y143825
X112034Y143800
X99314Y140970
X117119Y136347
X115824Y142240
X112014Y146050
X115446Y133350
X99982Y141742
X108966Y139192
X108562Y134247
X114554Y140970
X118453Y148798
X19431Y9652
X21082Y5715
X19431Y5715
X7092Y15484
X5664Y15161
X3861Y15372
X10221Y21493
X25278Y21438
X9667Y5324
X7681Y4681
X4915Y3426
X15037Y9858
X25184Y4117
X28870Y3018
X15220Y5636
X12070Y10254
X8633Y11341
X23462Y14882
X5456Y5146
X22205Y12128
X7038Y14011
X24801Y16426
X7854Y12154
X5337Y10038
X3927Y10003
X5428Y20536
X17767Y2184
X20544Y3195
X11290Y14028
X21844Y9726
X9525Y9652
X7620Y10160
X21590Y15240
X20320Y15240
X17018Y9525
X17780Y5037
X22728Y14285
X19070Y14260
X6350Y11430
X24155Y6807
X22860Y12700
X19050Y16510
X22482Y3810
X7018Y12202
X16002Y9652
X15598Y4707
X21590Y11430
X25489Y19258
X54737Y12192
X40102Y12070
X55118Y10668
X45877Y3917
X43307Y5588
X33528Y12700
X59928Y7700
X34798Y6350
X39878Y15240
X50038Y15240
X42418Y15240
X60198Y20320
X53538Y9868
X52070Y9398
X50419Y9652
X52070Y5715
X50419Y5715
X38080Y15484
X36652Y15161
X34849Y15372
X41209Y21493
X56266Y21438
X40655Y5324
X38669Y4681
X35903Y3426
X46025Y9858
X56172Y4117
X59858Y3018
X46208Y5636
X43058Y10254
X39621Y11341
X54450Y14882
X36444Y5146
X53193Y12128
X38026Y14011
X55789Y16426
X38842Y12154
X36325Y10038
X34915Y10003
X36416Y20536
X48755Y2184
X51532Y3195
X42278Y14028
X52832Y9726
X40513Y9652
X38608Y10160
X52578Y15240
X51308Y15240
X48006Y9525
X48768Y5037
X53716Y14285
X50058Y14260
X37338Y11430
X55143Y6807
X53848Y12700
X50038Y16510
X53470Y3810
X38006Y12202
X46990Y9652
X46586Y4707
X52578Y11430
X56477Y19258
X85725Y12192
X71090Y12070
X86106Y10668
X76865Y3917
X74295Y5588
X64516Y12700
X90916Y7700
X65786Y6350
X70866Y15240
X81026Y15240
X73406Y15240
X91186Y20320
X84526Y9868
X83058Y9398
X81407Y9652
X83058Y5715
X81407Y5715
X69068Y15484
X67640Y15161
X65837Y15372
X72197Y21493
X87254Y21438
X71643Y5324
X69657Y4681
X66891Y3426
X77013Y9858
X87160Y4117
X90846Y3018
X77196Y5636
X74046Y10254
X70609Y11341
X85438Y14882
X67432Y5146
X84181Y12128
X69014Y14011
X86777Y16426
X69830Y12154
X67313Y10038
X65903Y10003
X67404Y20536
X79743Y2184
X82520Y3195
X73266Y14028
X83820Y9726
X71501Y9652
X69596Y10160
X83566Y15240
X82296Y15240
X78994Y9525
X79756Y5037
X84704Y14285
X81046Y14260
X68326Y11430
X86131Y6807
X84836Y12700
X81026Y16510
X84458Y3810
X68994Y12202
X77978Y9652
X77574Y4707
X83566Y11430
X87465Y19258
X116713Y12192
X102078Y12070
X117094Y10668
X107853Y3917
X105283Y5588
X95504Y12700
X121904Y7700
X96774Y6350
X101854Y15240
X112014Y15240
X104394Y15240
X122174Y20320
X115514Y9868
X114046Y9398
X112395Y9652
X114046Y5715
X112395Y5715
X100056Y15484
X98628Y15161
X96825Y15372
X103185Y21493
X118242Y21438
X102631Y5324
X100645Y4681
X97879Y3426
X108001Y9858
X118148Y4117
X121834Y3018
X108184Y5636
X105034Y10254
X101597Y11341
X116426Y14882
X98420Y5146
X115169Y12128
X100002Y14011
X117765Y16426
X100818Y12154
X98301Y10038
X96891Y10003
X98392Y20536
X110731Y2184
X113508Y3195
X104254Y14028
X114808Y9726
X102489Y9652
X100584Y10160
X114554Y15240
X113284Y15240
X109982Y9525
X110744Y5037
X115692Y14285
X112034Y14260
X99314Y11430
X117119Y6807
X115824Y12700
X112014Y16510
X115446Y3810
X99982Y12202
X108966Y9652
X108562Y4707
X114554Y11430
X118453Y19258
X23749Y38100
X9114Y37978
X24130Y36576
X14889Y29825
X12319Y31496
X2540Y38608
X28940Y33608
X3810Y32258
X8890Y41148
X11430Y41148
X29210Y46228
X22550Y35776
X21082Y35306
X19431Y35560
X21082Y31623
X19431Y31623
X7092Y41392
X5664Y41069
X3861Y41280
X10221Y47401
X25278Y47346
X9667Y31232
X7681Y30589
X4915Y29334
X15037Y35766
X25184Y30025
X28870Y28926
X15220Y31544
X12070Y36162
X8633Y37249
X23462Y40790
X5456Y31054
X22205Y38037
X7038Y39919
X24801Y42334
X7854Y38062
X5337Y35946
X3927Y35911
X5428Y46444
X17767Y28092
X20544Y29103
X11290Y39936
X21844Y35634
X9525Y35560
X7620Y36068
X21590Y41148
X20320Y41148
X17018Y35433
X17780Y30945
X22728Y40193
X19070Y40168
X6350Y37338
X24155Y32715
X22860Y38608
X19050Y42418
X22482Y29718
X7018Y38110
X16002Y35560
X15598Y30615
X21590Y37338
X25489Y45166
X54737Y38100
X40102Y37978
X55118Y36576
X45877Y29825
X43307Y31496
X33528Y38608
X59928Y33608
X34798Y32258
X39878Y41148
X50038Y41148
X42418Y41148
X60198Y46228
X53538Y35776
X52070Y35306
X50419Y35560
X52070Y31623
X50419Y31623
X38080Y41392
X36652Y41069
X34849Y41280
X41209Y47401
X56266Y47346
X40655Y31232
X38669Y30589
X35903Y29334
X46025Y35766
X56172Y30025
X59858Y28926
X46208Y31544
X43058Y36162
X39621Y37249
X54450Y40790
X36444Y31054
X53193Y38037
X38026Y39919
X55789Y42334
X38842Y38062
X11290Y117660
X36325Y35946
X34915Y35911
X36416Y46444
X48755Y28092
X51532Y29103
X42278Y39936
X52832Y35634
X40513Y35560
X38608Y36068
X52578Y41148
X51308Y41148
X48006Y35433
X48768Y30945
X53716Y40193
X50058Y40168
X37338Y37338
X55143Y32715
X53848Y38608
X50038Y42418
X53470Y29718
X38006Y38110
X46990Y35560
X46586Y30615
X52578Y37338
X56477Y45166
X85725Y38100
X71090Y37978
X86106Y36576
X76865Y29825
X74295Y31496
X64516Y38608
X90916Y33608
X65786Y32258
X70866Y41148
X81026Y41148
X73406Y41148
X91186Y46228
X84526Y35776
X83058Y35306
X81407Y35560
X83058Y31623
X81407Y31623
X69068Y41392
X67640Y41069
X65837Y41280
X72197Y47401
X87254Y47346
X71643Y31232
X69657Y30589
X66891Y29334
X77013Y35766
X87160Y30025
X90846Y28926
X77196Y31544
X74046Y36162
X70609Y37249
X85438Y40790
X67432Y31054
X84181Y38037
X69014Y39919
X86777Y42334
X69830Y38062
X67313Y35946
X65903Y35911
X67404Y46444
X79743Y28092
X82520Y29103
X73266Y39936
X83820Y35634
X71501Y35560
X69596Y36068
X83566Y41148
X82296Y41148
X78994Y35433
X79756Y30945
X84704Y40193
X81046Y40168
X68326Y37338
X86131Y32715
X84836Y38608
X81026Y42418
X84458Y29718
X68994Y38110
X77978Y35560
X77574Y30615
X83566Y37338
X87465Y45166
X116713Y38100
X102078Y37978
X117094Y36576
X107853Y29825
X105283Y31496
X95504Y38608
X121904Y33608
X96774Y32258
X101854Y41148
X112014Y41148
X104394Y41148
X122174Y46228
X115514Y35776
X114046Y35306
X112395Y35560
X114046Y31623
X112395Y31623
X100056Y41392
X98628Y41069
X96825Y41280
X103185Y47401
X118242Y47346
X102631Y31232
X100645Y30589
X97879Y29334
X108001Y35766
X118148Y30025
X121834Y28926
X108184Y31544
X105034Y36162
X101597Y37249
X116426Y40790
X98420Y31054
X115169Y38037
X100002Y39919
X117765Y42334
X100818Y38062
X98301Y35946
X96891Y35911
X98392Y46444
X110731Y28092
X113508Y29103
X104254Y39936
X114808Y35634
X102489Y35560
X100584Y36068
X114554Y41148
X113284Y41148
X109982Y35433
X110744Y30945
X115692Y40193
X112034Y40168
X99314Y37338
X117119Y32715
X115824Y38608
X112014Y42418
X115446Y29718
X99982Y38110
X108966Y35560
X108562Y30615
X114554Y37338
X118453Y45166
X23749Y64008
X9114Y63886
X24130Y62484
X14889Y55733
X12319Y57404
X2540Y64516
X28940Y59516
X3810Y58166
X8890Y67056
X19050Y67056
X11430Y67056
X29210Y72136
X22550Y61684
X21082Y61214
X19431Y61468
X21082Y57531
X19431Y57531
X7092Y67300
X5664Y66977
X3861Y67188
X10221Y73309
X25278Y73254
X9667Y57140
X7681Y56497
X4915Y55242
X15037Y61674
X25184Y55933
X28870Y54834
X15220Y57452
X12070Y62070
X8633Y63157
X23462Y66698
X5456Y56962
X22205Y63944
X7038Y65827
X24801Y68242
X7854Y63970
X5337Y61854
X3927Y61819
X5428Y72352
X17767Y54000
X20544Y55011
X11290Y65844
X21844Y61542
X9525Y61468
X7620Y61976
X21590Y67056
X20320Y67056
X17018Y61341
X17780Y56853
X22728Y66101
X19070Y66076
X6350Y63246
X24155Y58623
X22860Y64516
X19050Y68326
X22482Y55626
X7018Y64018
X16002Y61468
X15598Y56523
X21590Y63246
X25489Y71074
X54737Y64008
X40102Y63886
X55118Y62484
X45877Y55733
X43307Y57404
X33528Y64516
X59928Y59516
X34798Y58166
X39878Y67056
X50038Y67056
X42418Y67056
X60198Y72136
X53538Y61684
X52070Y61214
X50419Y61468
X52070Y57531
X50419Y57531
X38080Y67300
X36652Y66977
X34849Y67188
X41209Y73309
X56266Y73254
X40655Y57140
X38669Y56497
X35903Y55242
X46025Y61674
X56172Y55933
X59858Y54834
X46208Y57452
X43058Y62070
X39621Y63157
X54450Y66698
X36444Y56962
X53193Y63944
X38026Y65827
X55789Y68242
X38842Y63970
X36325Y61854
X34915Y61819
X36416Y72352
X48755Y54000
X51532Y55011
X42278Y65844
X52832Y61542
X40513Y61468
X38608Y61976
X52578Y67056
X51308Y67056
X48006Y61341
X48768Y56853
X53716Y66101
X50058Y66076
X37338Y63246
X55143Y58623
X53848Y64516
X50038Y68326
M30